{"glyphs":{"0":{"ha":754,"x_min":0,"x_max":0,"o":"m 145 82 b 356 -7 195 23 265 -7 b 538 53 425 -7 486 13 b 660 220 591 93 631 148 b 704 468 690 292 704 375 b 630 722 704 578 679 663 b 419 811 580 781 510 811 b 237 751 350 811 289 791 b 115 584 184 712 144 656 b 71 336 85 512 71 430 b 145 82 71 226 96 141 z m 488 232 b 369 149 459 176 419 149 b 276 199 328 149 297 165 b 244 344 255 232 244 281 b 288 572 244 440 259 516 b 406 656 316 628 356 656 b 499 605 446 656 477 639 b 531 458 520 571 531 522 b 488 232 531 363 516 288 z "},"1":{"ha":522,"x_min":0,"x_max":0,"o":"m 211 14 b 272 -7 229 0 249 -7 b 371 79 331 -7 363 22 b 456 696 413 418 441 624 b 460 732 458 709 460 721 b 440 790 460 757 453 776 b 379 811 426 804 406 811 b 326 804 365 811 348 809 l 268 790 b 149 754 215 777 176 765 b 96 721 123 743 105 732 b 79 678 87 710 81 695 l 78 665 b 93 618 78 648 83 632 b 135 597 103 604 117 597 l 151 600 l 260 631 b 223 392 250 575 237 496 b 186 94 209 289 196 190 l 185 79 b 211 14 185 50 194 28 z "},"2":{"ha":778,"x_min":0,"x_max":0,"o":"m 706 136 b 661 156 695 149 681 156 l 343 150 b 609 354 459 209 547 277 b 701 575 671 431 701 505 b 631 749 701 649 678 707 b 435 811 583 790 518 811 b 258 776 365 811 306 799 b 150 682 210 752 174 721 b 114 554 126 643 114 600 b 135 490 114 526 121 505 b 196 468 150 475 170 468 b 278 550 250 468 278 495 b 315 643 278 590 290 621 b 412 676 339 665 372 676 b 490 651 448 676 473 668 b 514 571 506 634 514 607 b 463 428 514 525 497 478 b 328 288 429 378 384 331 b 150 182 272 245 213 210 b 85 138 120 169 99 154 b 64 69 71 122 64 99 b 78 9 64 43 69 22 b 115 -11 88 -4 100 -11 b 149 -6 125 -11 136 -9 b 176 1 163 -2 172 0 b 229 14 200 10 217 14 b 340 10 256 14 293 13 b 438 4 388 7 420 5 b 636 -6 525 -2 592 -6 b 698 23 662 -6 683 4 b 721 88 713 42 721 63 b 706 136 721 107 716 123 z "},"3":{"ha":722,"x_min":0,"x_max":0,"o":"m 612 338 b 493 396 580 370 540 389 b 624 483 547 415 591 444 b 675 607 658 521 675 563 b 604 760 675 675 651 725 b 400 811 557 794 489 811 b 233 781 336 811 280 801 b 122 700 185 760 148 733 b 83 594 96 667 83 631 b 103 537 83 570 90 551 b 161 515 117 522 136 515 b 213 531 183 515 201 521 b 242 585 226 542 235 560 b 379 676 256 646 301 676 b 485 600 450 676 485 651 b 444 505 485 563 471 531 b 311 451 416 478 372 461 b 270 431 292 448 278 441 b 258 383 262 422 258 406 b 273 338 258 366 263 351 b 317 318 283 326 297 319 b 433 292 369 316 408 308 b 471 221 458 277 471 253 b 431 151 471 189 458 166 b 331 128 405 135 371 128 b 236 147 288 128 256 134 b 196 204 216 160 202 179 b 169 259 188 230 179 248 b 121 275 158 270 142 275 b 61 249 96 275 76 266 b 39 178 46 232 39 208 b 115 46 39 125 64 81 b 342 -7 165 11 241 -7 b 501 19 399 -7 452 2 b 617 94 549 36 588 61 b 660 215 645 128 660 168 b 612 338 660 264 644 305 z "},"4":{"ha":801,"x_min":0,"x_max":0,"o":"m 767 250 b 693 313 767 292 742 313 l 643 313 b 688 558 656 398 671 480 b 690 586 689 565 690 574 b 619 647 690 627 667 647 b 550 624 590 647 567 640 b 514 558 533 609 521 587 b 468 313 494 481 479 399 l 254 313 b 446 714 291 414 355 548 b 460 761 455 730 460 745 b 444 797 460 776 454 788 b 397 811 433 806 418 811 b 313 791 359 811 331 804 b 260 722 295 778 277 755 b 76 318 178 571 117 437 b 67 263 70 299 67 280 b 90 190 67 233 75 209 b 144 163 106 172 124 163 b 450 161 214 162 316 161 l 443 93 b 442 69 442 88 442 80 b 515 -21 442 9 466 -21 b 590 1 550 -21 574 -13 b 617 88 605 16 614 45 l 622 161 l 651 161 b 739 181 691 161 720 168 b 767 250 757 194 767 217 z "},"5":{"ha":719,"x_min":0,"x_max":0,"o":"m 336 661 b 394 663 348 662 368 663 b 526 658 405 663 449 661 b 613 656 569 656 598 656 b 676 676 642 656 663 662 b 694 743 688 689 694 712 b 683 778 694 759 691 771 b 644 797 676 786 663 793 b 563 808 625 802 598 805 b 393 811 527 810 471 811 b 168 792 285 811 210 805 b 101 703 124 778 101 748 b 118 666 101 687 107 675 b 163 653 129 657 144 653 l 165 653 b 138 529 152 597 143 556 l 122 463 b 118 428 119 450 118 439 b 142 376 118 405 126 388 b 222 358 159 365 185 359 b 482 228 395 353 482 309 b 449 151 482 197 471 172 b 364 119 426 130 398 119 b 221 204 284 119 237 148 b 193 259 213 230 204 248 b 146 275 182 270 166 275 b 85 249 120 275 100 266 b 64 178 71 232 64 208 b 142 43 64 121 90 76 b 350 -7 195 10 264 -7 b 517 26 414 -7 469 4 b 624 117 564 49 600 79 b 661 247 649 156 661 199 b 568 421 661 320 630 378 b 296 494 506 463 415 488 b 336 661 311 565 324 620 z "},"6":{"ha":751,"x_min":0,"x_max":0,"o":"m 313 610 b 444 674 347 653 391 674 b 509 657 470 674 492 668 b 546 611 526 646 538 631 b 578 556 555 585 566 567 b 628 540 591 546 607 540 b 692 560 656 540 677 547 b 715 617 708 574 715 593 l 714 632 b 635 762 707 686 681 729 b 460 811 590 795 531 811 b 253 751 381 811 312 791 b 117 581 195 710 149 654 b 69 331 85 509 69 425 b 145 83 69 225 95 142 b 364 -7 196 23 269 -7 b 530 30 428 -7 483 5 b 637 130 577 54 612 88 b 674 272 661 172 674 219 b 643 388 674 315 663 353 b 558 469 623 423 594 450 b 433 499 521 489 480 499 b 332 481 396 499 363 493 b 250 422 301 470 274 450 b 313 610 258 506 279 568 z m 299 326 b 392 360 321 349 352 360 b 467 332 423 360 448 350 b 494 257 485 313 494 288 b 460 165 494 219 483 188 b 371 129 438 141 408 129 b 293 158 338 129 312 139 b 265 238 275 178 265 204 b 299 326 265 275 276 304 z "},"7":{"ha":690,"x_min":0,"x_max":0,"o":"m 705 788 b 668 808 695 802 683 808 b 634 803 659 808 647 806 b 607 796 621 799 612 797 b 554 783 584 787 566 783 b 443 787 527 783 490 785 b 346 793 396 790 363 792 b 147 803 259 800 193 803 b 85 774 121 803 101 793 b 62 710 70 755 62 734 b 78 661 62 690 68 674 b 122 642 88 648 103 642 l 464 647 b 297 479 396 598 341 542 b 201 290 253 416 221 353 b 171 115 181 226 171 168 b 197 20 171 70 180 38 b 262 -7 215 2 237 -7 b 327 19 288 -7 310 2 b 358 104 344 37 355 65 b 428 383 367 203 390 296 b 633 615 467 470 535 548 b 666 638 640 620 651 627 b 704 672 681 648 694 659 b 719 728 714 684 719 703 b 705 788 719 755 715 775 z "},"8":{"ha":711,"x_min":0,"x_max":0,"o":"m 661 226 b 525 413 661 304 616 366 b 642 506 579 441 618 472 b 678 621 666 540 678 578 b 606 760 678 679 654 725 b 417 811 559 794 495 811 b 190 748 321 811 246 790 b 107 574 135 706 107 648 b 133 476 107 539 116 507 b 208 396 150 445 175 418 b 92 303 155 367 116 336 b 56 193 68 269 56 233 b 131 46 56 130 81 81 b 342 -7 182 11 252 -7 b 510 22 406 -7 462 3 b 622 104 558 42 595 69 b 661 226 648 139 661 180 z m 313 652 b 406 676 336 668 367 676 b 511 600 476 676 511 651 b 483 536 511 578 502 556 b 383 471 464 516 431 494 b 278 582 313 503 278 540 b 313 652 278 613 289 636 z m 451 150 b 349 128 426 135 392 128 b 256 149 310 128 279 135 b 222 210 234 164 222 184 b 247 276 222 234 231 256 b 336 336 264 297 294 317 b 456 269 394 310 434 288 b 489 211 478 251 489 231 b 451 150 489 185 476 165 z "},"9":{"ha":751,"x_min":0,"x_max":0,"o":"m 626 722 b 407 811 575 781 502 811 b 241 774 343 811 288 799 b 134 674 194 750 159 716 b 97 532 109 632 97 585 b 128 416 97 489 107 451 b 213 335 148 381 177 354 b 337 306 250 315 291 306 b 439 323 375 306 408 311 b 521 382 469 334 497 354 b 458 194 512 299 491 236 b 326 131 424 152 380 131 b 262 147 300 131 279 136 b 225 193 245 158 232 174 b 192 248 216 219 205 237 b 143 264 180 259 163 264 b 78 244 115 264 94 257 b 56 188 63 230 56 212 l 57 172 b 135 42 63 119 90 75 b 311 -7 181 9 240 -7 b 517 53 390 -7 459 13 b 653 223 576 94 622 150 b 701 474 685 296 701 379 b 626 722 701 579 676 662 z m 472 478 b 379 444 450 456 419 444 b 304 472 348 444 323 454 b 276 547 286 491 276 516 b 310 640 276 585 288 616 b 400 675 333 663 363 675 b 478 646 433 675 459 665 b 506 567 496 626 506 600 b 472 478 506 530 494 500 z "},"Ɛ":{"ha":368,"x_min":0,"x_max":0,"o":""},"Ƒ":{"ha":368,"x_min":0,"x_max":0,"o":""},"Ǩ":{"ha":368,"x_min":0,"x_max":0,"o":""},"ǩ":{"ha":368,"x_min":0,"x_max":0,"o":""},"Ȯ":{"ha":368,"x_min":0,"x_max":0,"o":""},"ȯ":{"ha":368,"x_min":0,"x_max":0,"o":""},"ȴ":{"ha":368,"x_min":0,"x_max":0,"o":""},"ȵ":{"ha":368,"x_min":0,"x_max":0,"o":""},"ȶ":{"ha":368,"x_min":0,"x_max":0,"o":""},"ˈ":{"ha":368,"x_min":0,"x_max":0,"o":""},"̐":{"ha":368,"x_min":0,"x_max":0,"o":""},"̥":{"ha":368,"x_min":0,"x_max":0,"o":""},"̯":{"ha":368,"x_min":0,"x_max":0,"o":""},"̰":{"ha":368,"x_min":0,"x_max":0,"o":""},"ν":{"ha":368,"x_min":0,"x_max":0,"o":""},"ξ":{"ha":368,"x_min":0,"x_max":0,"o":""},"ο":{"ha":368,"x_min":0,"x_max":0,"o":""},"―":{"ha":368,"x_min":0,"x_max":0,"o":""},"‖":{"ha":368,"x_min":0,"x_max":0,"o":""},"‗":{"ha":368,"x_min":0,"x_max":0,"o":""},"‛":{"ha":368,"x_min":0,"x_max":0,"o":""},"‟":{"ha":368,"x_min":0,"x_max":0,"o":""},"‣":{"ha":368,"x_min":0,"x_max":0,"o":""},"․":{"ha":368,"x_min":0,"x_max":0,"o":""},"‥":{"ha":368,"x_min":0,"x_max":0,"o":""},"₢":{"ha":368,"x_min":0,"x_max":0,"o":""},"₥":{"ha":368,"x_min":0,"x_max":0,"o":""},"₨":{"ha":368,"x_min":0,"x_max":0,"o":""},"₪":{"ha":368,"x_min":0,"x_max":0,"o":""},"₯":{"ha":368,"x_min":0,"x_max":0,"o":""},"₰":{"ha":368,"x_min":0,"x_max":0,"o":""},"₳":{"ha":368,"x_min":0,"x_max":0,"o":""},"₶":{"ha":368,"x_min":0,"x_max":0,"o":""},"₷":{"ha":368,"x_min":0,"x_max":0,"o":""},"₻":{"ha":368,"x_min":0,"x_max":0,"o":""},"∐":{"ha":368,"x_min":0,"x_max":0,"o":""},"∓":{"ha":368,"x_min":0,"x_max":0,"o":""},"∔":{"ha":368,"x_min":0,"x_max":0,"o":""},"∖":{"ha":368,"x_min":0,"x_max":0,"o":""},"∗":{"ha":368,"x_min":0,"x_max":0,"o":""},"∘":{"ha":368,"x_min":0,"x_max":0,"o":""},"∛":{"ha":368,"x_min":0,"x_max":0,"o":""},"∜":{"ha":368,"x_min":0,"x_max":0,"o":""},"∝":{"ha":368,"x_min":0,"x_max":0,"o":""},"≡":{"ha":368,"x_min":0,"x_max":0,"o":""},"≢":{"ha":368,"x_min":0,"x_max":0,"o":""},"≣":{"ha":368,"x_min":0,"x_max":0,"o":""},"\u0000":{"ha":0,"x_min":0,"x_max":0,"o":""},"\r":{"ha":368,"x_min":0,"x_max":0,"o":""}," ":{"ha":368,"x_min":0,"x_max":0,"o":""},"!":{"ha":472,"x_min":0,"x_max":0,"o":"m 176 338 b 222 325 188 329 204 325 b 294 369 260 325 284 340 b 408 733 331 472 369 593 b 504 1089 448 872 480 991 b 508 1117 507 1099 508 1108 b 419 1174 508 1155 479 1174 b 299 1085 354 1174 313 1144 b 224 742 275 988 250 874 b 160 388 197 609 175 491 l 158 376 b 176 338 158 359 164 346 z m 77 124 b 169 90 98 101 129 90 b 268 128 211 90 244 103 b 304 231 292 154 304 188 b 273 319 304 269 294 299 b 181 349 252 339 221 349 b 81 311 138 349 105 336 b 46 211 58 286 46 253 b 77 124 46 175 56 146 z "},"\"":{"ha":708,"x_min":0,"x_max":0,"o":"m 233 716 b 290 697 248 703 267 697 b 354 716 314 697 336 703 b 392 779 373 728 385 750 l 447 1035 b 454 1086 452 1056 454 1073 b 362 1172 454 1144 424 1172 b 242 1044 291 1172 251 1130 l 214 779 b 233 716 211 750 217 728 z m 427 716 b 485 697 442 703 462 697 b 549 716 509 697 530 703 b 586 779 567 728 580 750 l 642 1035 b 649 1086 646 1056 649 1073 b 557 1172 649 1144 618 1172 b 436 1044 486 1172 445 1130 l 408 779 b 427 716 406 750 412 728 z "},"#":{"ha":972,"x_min":0,"x_max":0,"o":"m 763 481 l 874 481 b 927 502 897 481 915 488 b 946 563 940 516 946 537 b 874 639 946 613 922 639 l 810 639 l 833 722 b 838 747 836 731 838 739 b 816 794 838 767 830 782 b 763 811 802 805 784 811 b 702 791 741 811 721 804 b 663 731 683 778 670 757 l 636 639 l 474 639 l 497 722 b 501 747 500 731 501 739 b 480 794 501 767 494 782 b 426 811 466 805 448 811 b 366 791 405 811 385 804 b 326 731 347 778 334 757 l 300 639 l 176 639 b 122 619 153 639 135 632 b 103 563 109 606 103 588 b 122 502 103 537 109 516 b 176 481 135 488 153 481 l 254 481 l 207 319 l 121 319 b 67 300 98 319 80 313 b 47 243 54 287 47 268 b 67 183 47 217 54 197 b 121 161 80 168 98 161 l 161 161 l 140 90 b 136 60 138 79 136 69 b 157 8 136 38 143 20 b 207 -11 171 -5 188 -11 b 267 10 228 -11 248 -4 b 308 72 286 25 300 45 l 335 161 l 497 161 l 476 90 b 472 60 474 79 472 69 b 493 8 472 37 479 20 b 543 -11 507 -5 524 -11 b 603 10 564 -11 584 -4 b 644 72 622 25 636 45 l 671 161 l 818 161 b 872 183 841 161 859 168 b 890 243 884 197 890 217 b 818 319 890 294 866 319 l 717 319 z m 590 481 l 543 319 l 381 319 l 426 481 z "},"$":{"ha":728,"x_min":0,"x_max":0,"o":"m 547 400 b 433 451 516 417 479 434 l 464 676 b 519 600 498 664 517 639 b 540 551 520 580 527 563 b 587 533 552 539 568 533 b 648 556 612 533 632 541 b 672 626 664 572 672 595 b 621 744 672 674 655 713 b 481 806 587 776 540 796 l 500 949 b 488 980 502 962 498 972 b 453 992 478 988 467 992 b 415 981 439 992 426 988 b 397 949 404 973 398 963 l 381 810 b 183 738 301 804 235 780 b 106 571 131 695 106 639 b 135 459 106 526 116 489 b 210 387 155 429 180 405 b 319 335 241 369 277 351 l 292 126 b 238 156 269 132 252 142 b 214 210 225 171 217 188 b 190 271 209 237 201 258 b 139 290 179 284 162 290 b 79 264 116 290 96 281 b 54 189 63 246 54 221 b 113 64 54 141 74 99 b 274 -3 153 29 206 6 l 256 -142 b 266 -174 254 -156 257 -166 b 300 -186 275 -182 286 -186 b 340 -174 315 -186 328 -182 b 360 -142 351 -166 358 -156 l 376 -6 b 578 67 461 1 528 25 b 654 226 629 108 654 162 b 623 332 654 268 644 303 b 547 400 602 361 577 383 z m 285 531 b 265 582 272 546 265 562 b 291 649 265 609 274 631 b 364 682 308 666 332 677 l 340 490 b 285 531 316 503 298 517 z m 467 152 b 392 122 449 137 424 127 l 414 299 b 473 260 440 287 459 274 b 493 211 486 246 493 230 b 467 152 493 187 484 167 z "},"%":{"ha":1244,"x_min":0,"x_max":0,"o":"m 956 897 b 974 960 968 918 974 938 b 953 1018 974 983 967 1002 b 904 1042 940 1034 924 1042 b 821 981 874 1042 846 1021 b 702 876 794 938 754 903 b 531 829 650 848 593 833 b 468 980 525 888 504 939 b 325 1042 432 1021 384 1042 b 194 1003 277 1042 233 1029 b 102 895 156 977 125 941 b 68 737 79 849 68 797 b 93 618 68 695 76 655 b 168 528 110 581 135 551 b 287 494 201 506 241 494 b 426 545 338 494 384 511 b 514 681 467 579 496 624 b 661 711 563 682 612 693 l 329 144 b 307 74 314 119 307 95 b 329 17 307 50 314 31 b 381 -6 344 2 361 -6 b 451 39 410 -6 434 9 z m 354 644 b 301 619 338 628 321 619 b 244 652 278 619 259 630 b 221 749 228 674 221 706 b 248 874 221 804 230 846 b 317 917 266 903 289 917 b 328 915 322 917 326 916 b 324 868 325 899 324 883 b 340 787 324 841 329 814 b 388 718 351 759 367 737 b 354 644 381 686 370 661 z m 1000 563 b 878 597 967 586 926 597 b 746 559 829 597 785 584 b 654 451 707 534 676 498 b 621 293 632 405 621 352 b 646 174 621 250 629 211 b 720 84 663 137 687 107 b 842 50 753 61 794 50 b 973 89 890 50 934 63 b 1066 197 1012 115 1043 151 b 1100 354 1089 244 1100 296 b 1075 474 1100 397 1092 437 b 1000 563 1058 511 1033 541 z m 920 218 b 854 175 902 189 880 175 b 797 206 831 175 812 185 b 774 304 781 227 774 260 b 801 430 774 360 783 402 b 869 472 819 458 842 472 b 924 440 891 472 909 461 b 947 343 940 418 947 386 b 920 218 947 288 938 247 z "},"&":{"ha":1182,"x_min":0,"x_max":0,"o":"m 907 182 b 1122 422 991 251 1063 331 b 1153 500 1143 455 1153 481 b 1072 546 1153 531 1126 546 b 1021 537 1052 546 1035 543 b 985 506 1007 531 995 520 b 803 299 925 422 864 353 b 568 583 706 408 627 503 b 777 766 668 645 738 706 b 836 957 816 826 836 889 b 769 1149 836 1038 814 1103 b 579 1219 724 1196 661 1219 b 409 1178 515 1219 459 1206 b 293 1060 359 1150 321 1111 b 251 883 265 1009 251 950 b 332 624 251 808 278 722 b 126 449 237 566 168 508 b 63 260 84 391 63 327 b 108 124 63 210 78 164 b 236 28 138 83 181 51 b 431 -7 292 5 356 -7 b 744 75 531 -7 635 20 l 861 -62 b 958 -101 883 -88 916 -101 b 1032 -78 989 -101 1013 -94 b 1060 -21 1050 -63 1060 -44 b 1028 49 1060 3 1049 26 z m 467 1024 b 569 1074 492 1057 526 1074 b 647 1044 604 1074 630 1064 b 674 964 665 1025 674 998 b 635 833 674 917 661 873 b 488 710 609 794 560 752 b 429 901 449 779 429 843 b 467 1024 429 950 442 991 z m 646 193 b 439 146 580 162 511 146 b 306 181 382 146 338 158 b 257 281 273 205 257 238 b 414 494 257 355 309 426 b 646 193 470 411 548 311 z "},"'":{"ha":403,"x_min":0,"x_max":0,"o":"m 177 716 b 235 697 192 703 212 697 b 299 716 259 697 280 703 b 336 779 317 728 330 750 l 392 1035 b 399 1086 396 1056 399 1073 b 307 1172 399 1144 368 1172 b 186 1044 236 1172 195 1130 l 158 779 b 177 716 156 750 162 728 z "},"(":{"ha":851,"x_min":0,"x_max":0,"o":"m 211 -78 b 456 -185 268 -149 349 -185 b 615 -144 507 -185 561 -171 b 757 -36 670 -116 717 -81 b 785 35 775 -15 785 9 b 766 90 785 56 778 75 b 721 114 753 106 738 114 b 675 92 705 114 690 106 b 460 -24 598 15 526 -24 b 375 1 425 -24 396 -15 b 328 85 354 18 338 46 b 314 247 319 125 314 179 b 342 528 314 334 323 428 b 422 817 360 629 387 725 b 549 1049 457 909 500 987 b 643 1133 577 1085 609 1113 b 751 1164 677 1154 713 1164 b 917 1101 801 1164 856 1143 b 949 1090 929 1094 939 1090 b 1002 1121 968 1090 986 1100 b 1026 1186 1018 1141 1026 1163 b 1003 1243 1026 1209 1019 1228 b 899 1303 975 1269 940 1289 b 771 1325 857 1318 814 1325 b 386 1124 620 1325 492 1258 b 247 870 332 1055 286 971 b 157 553 207 770 177 664 b 126 233 137 442 126 335 b 211 -78 126 97 155 -6 z "},")":{"ha":851,"x_min":0,"x_max":0,"o":"m 14 -163 b 142 -185 56 -178 98 -185 b 526 17 293 -185 421 -118 b 666 270 580 85 627 170 b 756 587 705 371 735 476 b 786 907 776 699 786 805 b 701 1218 786 1043 758 1147 b 457 1325 645 1289 563 1325 b 297 1284 405 1325 352 1311 b 156 1176 243 1257 195 1221 b 128 1106 137 1155 128 1131 b 147 1050 128 1084 134 1066 b 192 1026 159 1034 174 1026 b 238 1049 207 1026 223 1034 b 453 1164 314 1125 386 1164 b 537 1139 488 1164 516 1156 b 584 1055 559 1122 574 1094 b 599 893 594 1016 599 962 b 571 612 599 806 589 712 b 490 323 552 511 525 415 b 364 92 455 231 413 154 b 269 7 335 56 304 27 b 161 -24 235 -13 199 -24 b -4 39 111 -24 56 -3 b -36 50 -16 46 -27 50 b -90 19 -56 50 -73 40 b -114 -46 -106 -1 -114 -23 b -90 -103 -114 -69 -106 -88 b 14 -163 -63 -129 -28 -149 z "},"*":{"ha":722,"x_min":0,"x_max":0,"o":"m 710 1024 b 731 1074 724 1038 731 1054 b 726 1100 731 1083 729 1092 b 702 1134 722 1114 714 1125 b 663 1147 691 1143 677 1147 b 611 1131 648 1147 631 1142 l 499 1063 l 547 1182 b 556 1222 553 1198 556 1211 b 535 1274 556 1243 549 1260 b 485 1294 522 1288 505 1294 b 430 1270 462 1294 443 1286 b 411 1206 416 1254 410 1232 l 415 1079 l 335 1179 b 269 1217 315 1204 294 1217 b 215 1190 246 1217 228 1208 b 197 1142 203 1176 197 1160 b 210 1103 197 1128 201 1115 b 244 1074 218 1091 230 1081 l 362 1013 l 231 994 b 177 971 207 992 190 984 b 158 921 165 958 158 941 b 162 894 158 912 160 903 b 187 860 167 880 175 868 b 228 847 198 851 212 847 b 278 863 243 847 259 852 l 389 931 l 342 811 b 333 771 336 796 333 783 b 354 719 333 750 340 733 b 404 699 368 706 385 699 b 459 723 427 699 446 707 b 478 786 472 739 479 760 l 474 915 l 554 814 b 619 778 573 790 594 778 b 674 804 641 778 659 787 b 692 851 686 818 692 834 b 679 890 692 865 687 878 b 643 921 671 902 659 913 l 529 982 l 657 1000 b 710 1024 679 1003 697 1011 z "},"+":{"ha":972,"x_min":0,"x_max":0,"o":"m 860 460 b 811 479 849 473 832 479 l 585 479 l 615 733 b 597 788 618 756 612 775 b 543 807 582 800 564 807 b 486 788 522 807 503 800 b 457 733 469 775 460 756 l 426 479 l 200 479 b 138 451 174 479 153 470 b 115 389 123 433 115 412 b 132 341 115 370 121 354 b 181 321 143 328 159 321 l 406 321 l 375 67 b 391 11 372 43 378 24 b 443 -8 404 -2 422 -8 b 502 11 465 -8 485 -2 b 533 67 519 24 530 43 l 564 321 l 792 321 b 853 349 818 321 838 330 b 876 413 869 368 876 389 b 860 460 876 431 871 447 z "},",":{"ha":357,"x_min":0,"x_max":0,"o":"m 40 -206 b 89 -219 52 -215 69 -219 b 131 -203 106 -219 121 -214 b 175 -135 142 -192 156 -169 b 246 22 203 -84 226 -31 b 275 151 265 76 275 119 b 249 224 275 182 266 206 b 174 251 232 242 207 251 b 90 214 139 251 111 239 b 57 107 68 189 57 153 b 49 -14 57 63 54 22 b 26 -132 44 -50 37 -89 b 22 -161 24 -143 22 -153 b 40 -206 22 -181 28 -196 z "},"-":{"ha":560,"x_min":0,"x_max":0,"o":"m 99 361 b 153 342 113 346 131 340 l 438 369 b 510 451 486 374 510 401 b 491 510 510 477 503 497 b 438 528 478 524 461 530 l 153 500 b 98 479 129 498 110 491 b 79 424 85 467 79 449 b 99 361 79 397 86 376 z "},".":{"ha":357,"x_min":0,"x_max":0,"o":"m 70 26 b 163 -7 91 4 122 -7 b 261 31 204 -7 237 6 b 297 133 285 57 297 91 b 266 222 297 172 287 202 b 174 251 245 241 214 251 b 74 214 131 251 98 239 b 39 114 51 189 39 156 b 70 26 39 78 49 49 z "},"/":{"ha":707,"x_min":0,"x_max":0,"o":"m 37 16 b 93 -7 53 1 72 -7 b 133 4 107 -7 120 -3 b 164 38 145 12 156 23 l 758 1153 b 774 1210 769 1170 774 1189 b 751 1273 774 1235 766 1256 b 696 1299 735 1290 717 1299 b 652 1283 681 1299 666 1294 b 614 1236 638 1273 625 1257 l 32 143 b 13 76 19 119 13 97 b 37 16 13 51 21 31 z "},":":{"ha":357,"x_min":0,"x_max":0,"o":"m 70 82 b 163 49 91 60 122 49 b 261 87 204 49 237 61 b 297 189 285 112 297 146 b 266 277 297 228 287 257 b 174 307 245 297 214 307 b 74 269 131 307 98 294 b 39 169 51 244 39 211 b 70 82 39 133 49 104 z m 119 325 b 211 292 140 303 170 292 b 310 330 253 292 286 304 b 346 432 334 355 346 389 b 315 520 346 471 335 500 b 222 550 294 540 263 550 b 123 513 180 550 147 538 b 88 413 99 488 88 454 b 119 325 88 376 98 347 z "},";":{"ha":357,"x_min":0,"x_max":0,"o":"m 40 -164 b 89 -178 52 -173 69 -178 b 131 -161 106 -178 121 -172 b 175 -93 142 -150 156 -127 b 246 64 203 -42 226 10 b 275 193 265 118 275 161 b 249 266 275 224 266 248 b 174 293 232 284 207 293 b 90 256 139 293 111 281 b 57 149 68 231 57 195 b 49 28 57 104 54 64 b 26 -90 44 -8 37 -48 b 22 -119 24 -101 22 -111 b 40 -164 22 -140 28 -155 z m 119 297 b 211 264 140 275 170 264 b 310 302 253 264 286 277 b 346 404 334 328 346 362 b 315 492 346 443 335 472 b 222 522 294 512 263 522 b 123 485 180 522 147 510 b 88 385 99 460 88 426 b 119 297 88 349 98 319 z "},"<":{"ha":972,"x_min":0,"x_max":0,"o":"m 163 311 l 729 94 b 763 88 741 90 752 88 b 820 113 786 88 805 96 b 843 171 835 130 843 150 b 831 210 843 185 839 198 b 794 236 822 222 810 231 l 350 401 l 836 565 b 884 599 857 573 873 584 b 900 649 895 615 900 631 b 883 696 900 667 894 683 b 838 715 872 709 857 715 b 804 710 826 715 815 713 l 185 494 b 133 452 163 487 146 473 b 114 387 120 431 114 410 b 126 340 114 370 118 354 b 163 311 135 326 147 317 z "},"=":{"ha":972,"x_min":0,"x_max":0,"o":"m 151 417 b 200 397 163 404 179 397 l 811 397 b 873 426 837 397 858 407 b 896 489 888 445 896 466 b 879 536 896 507 890 523 b 831 556 868 549 852 556 l 219 556 b 158 528 194 556 173 546 b 135 465 142 509 135 488 b 151 417 135 447 140 431 z m 113 278 b 161 258 124 265 140 258 l 772 258 b 834 287 798 258 819 268 b 857 350 849 306 857 327 b 840 397 857 369 851 384 b 792 417 829 410 813 417 l 181 417 b 119 389 155 417 134 407 b 96 326 103 370 96 350 b 113 278 96 308 101 292 z "},">":{"ha":972,"x_min":0,"x_max":0,"o":"m 156 89 b 189 94 167 89 178 91 l 808 310 b 860 352 830 317 847 331 b 879 417 873 373 879 394 b 867 464 879 434 875 450 b 831 493 858 478 846 488 l 264 710 b 231 717 252 714 241 717 b 173 691 207 717 188 708 b 150 633 158 674 150 655 b 162 594 150 619 154 606 b 199 568 171 582 183 574 l 643 403 l 157 239 b 109 205 136 231 120 220 b 93 156 98 190 93 173 b 110 108 93 137 99 121 b 156 89 121 95 136 89 z "},"?":{"ha":661,"x_min":0,"x_max":0,"o":"m 225 270 b 265 256 235 260 249 256 b 315 273 284 256 300 261 b 346 326 329 284 339 302 b 374 395 353 352 363 375 b 431 465 386 415 405 438 b 544 569 456 492 494 527 b 678 717 604 620 648 669 b 722 875 707 764 722 817 b 647 1045 722 949 697 1006 b 433 1104 596 1084 525 1104 b 262 1069 366 1104 309 1093 b 159 977 216 1046 182 1016 b 125 850 136 939 125 896 b 148 777 125 819 133 794 b 214 751 163 760 185 751 b 269 769 239 751 257 757 b 286 810 280 780 286 794 l 285 867 b 318 938 285 895 296 919 b 415 967 340 957 373 967 b 522 871 487 967 522 935 b 487 758 522 832 511 794 b 374 626 464 722 426 678 b 253 474 317 570 277 519 b 211 318 229 428 215 376 b 225 270 210 296 215 280 z m 120 54 b 212 21 141 32 172 21 b 311 59 254 21 287 34 b 347 161 335 84 347 119 b 316 249 347 200 337 229 b 224 279 295 269 264 279 b 124 242 181 279 148 267 b 89 142 101 217 89 183 b 120 54 89 106 99 76 z "},"@":{"ha":1410,"x_min":0,"x_max":0,"o":"m 348 -322 b 700 -400 445 -374 562 -400 b 962 -367 787 -400 874 -389 b 1193 -274 1049 -346 1126 -314 b 1228 -240 1209 -264 1220 -253 b 1239 -197 1235 -226 1239 -212 b 1221 -145 1239 -177 1233 -159 b 1175 -124 1209 -131 1194 -124 b 1140 -133 1164 -124 1152 -127 b 920 -222 1064 -173 991 -203 b 706 -250 849 -241 778 -250 b 352 -127 548 -250 430 -209 b 235 200 274 -45 235 64 b 301 534 235 320 257 432 b 501 781 346 636 413 719 b 825 874 590 843 698 874 b 1105 786 944 874 1037 844 b 1207 532 1173 728 1207 643 b 1174 333 1207 460 1196 393 b 1093 190 1153 272 1125 224 b 999 138 1061 155 1029 138 b 949 153 975 138 959 143 b 933 192 938 163 933 176 b 965 414 933 233 944 307 b 986 553 979 487 986 533 b 918 601 986 585 963 601 b 857 596 897 601 876 600 b 840 638 852 616 847 630 b 799 650 833 646 819 650 b 617 590 735 650 674 630 b 481 430 560 549 515 496 b 429 219 446 364 429 294 b 481 55 429 151 447 96 b 626 -7 516 14 564 -7 b 728 24 664 -7 698 3 b 800 110 759 45 782 74 b 983 -7 828 32 889 -7 b 1167 59 1047 -7 1109 15 b 1310 247 1226 103 1274 166 b 1365 529 1347 329 1365 423 b 1299 801 1365 636 1343 726 b 1114 969 1254 875 1193 931 b 842 1026 1035 1007 944 1026 b 412 908 674 1026 531 987 b 144 600 293 830 203 727 b 54 193 84 473 54 338 b 128 -108 54 82 79 -19 b 348 -322 178 -198 251 -269 z m 726 169 b 668 133 708 145 688 133 b 620 154 648 133 632 140 b 603 218 609 168 603 189 b 632 365 603 270 613 319 b 710 477 651 412 678 449 b 818 521 743 505 779 520 l 767 265 b 726 169 758 225 745 194 z "},"A":{"ha":1092,"x_min":0,"x_max":0,"o":"m 244 40 b 417 -7 295 9 353 -7 b 719 208 550 -7 651 65 b 794 49 730 140 755 87 b 951 -7 834 12 887 -7 b 1111 36 1014 -7 1068 7 b 1244 161 1155 65 1199 106 b 1271 247 1262 182 1271 211 b 1260 293 1271 267 1267 282 b 1232 310 1253 304 1244 310 b 1194 290 1218 310 1206 303 b 1093 188 1154 242 1120 208 b 1008 158 1066 168 1038 158 b 940 192 978 158 955 170 b 918 301 925 215 918 251 b 948 549 918 358 928 441 b 1014 847 968 658 990 757 b 1018 875 1017 858 1018 868 b 919 939 1018 918 985 939 b 853 925 892 939 869 934 b 819 872 836 916 825 898 b 715 450 785 694 750 554 b 599 225 680 346 641 271 b 450 156 556 179 506 156 b 328 220 400 156 359 177 b 282 403 297 263 282 324 b 343 706 282 511 302 612 b 528 931 384 799 445 874 b 828 1017 610 988 710 1017 b 936 1009 866 1017 902 1014 b 1060 985 970 1004 1012 996 b 1076 983 1063 984 1069 983 b 1140 1015 1100 983 1122 994 b 1167 1083 1158 1037 1167 1059 b 1128 1139 1167 1113 1154 1131 b 995 1168 1088 1152 1044 1162 b 858 1178 947 1175 901 1178 b 435 1069 694 1178 552 1141 b 168 780 317 996 228 900 b 78 389 108 660 78 530 b 122 177 78 307 93 237 b 244 40 152 117 192 72 z "},"B":{"ha":1149,"x_min":0,"x_max":0,"o":"m 1122 685 b 1206 889 1178 742 1206 810 b 1082 1113 1206 981 1164 1056 b 707 1197 1000 1169 875 1197 b 386 1160 598 1197 491 1185 b 113 1056 281 1135 190 1100 b 42 999 75 1034 52 1015 b 28 939 33 982 28 962 b 41 895 28 921 32 907 b 79 878 50 884 63 878 b 154 904 100 878 125 887 b 390 1001 219 943 298 975 b 678 1039 483 1026 579 1039 b 921 992 787 1039 868 1023 b 1000 865 974 961 1000 919 b 954 753 1000 823 985 785 b 828 679 924 722 882 697 b 650 650 775 662 716 652 b 589 624 620 649 600 640 b 572 558 578 607 572 585 b 583 518 572 540 576 526 b 622 504 591 510 604 505 b 797 458 704 501 762 486 b 849 356 831 431 849 396 b 758 212 849 297 818 249 b 472 156 697 174 602 156 b 364 161 444 156 408 157 b 415 515 374 273 391 391 b 487 808 439 638 463 736 b 496 853 493 825 496 840 b 411 900 496 884 468 900 b 335 886 380 900 354 895 b 296 838 315 877 302 861 b 204 426 259 705 228 568 b 156 18 180 284 164 148 b 172 -47 154 -11 159 -32 b 240 -69 184 -62 207 -69 b 322 -50 274 -69 301 -63 b 356 8 344 -37 355 -18 b 467 4 383 6 420 4 b 785 48 591 4 697 19 b 793 51 787 49 790 50 b 794 49 793 50 794 50 b 951 -7 834 12 887 -7 b 1111 36 1014 -7 1068 7 b 1244 161 1155 65 1199 106 b 1271 247 1262 182 1271 211 b 1260 293 1271 267 1267 282 b 1232 310 1253 304 1244 310 b 1194 290 1218 310 1206 303 b 1093 188 1154 242 1120 208 b 1008 158 1066 168 1038 158 b 977 163 997 158 987 160 b 985 172 980 166 983 169 b 1054 363 1031 226 1054 289 b 1010 485 1054 409 1039 450 b 879 563 980 521 937 547 b 1122 685 986 588 1067 628 z "},"C":{"ha":985,"x_min":0,"x_max":0,"o":"m 1008 1281 z m 342 53 b 629 -7 423 13 519 -7 b 831 13 693 -7 760 0 b 981 63 902 27 915 34 b 1188 232 1042 89 1188 175 b 1176 275 1188 250 1184 264 b 1143 292 1169 286 1158 292 b 1108 283 1134 292 1122 289 b 1000 231 1074 270 1002 231 b 847 182 967 214 881 190 b 661 160 786 167 721 160 b 386 251 540 160 448 190 b 293 508 324 311 293 397 b 344 784 293 615 310 707 b 479 960 379 861 424 920 b 654 1019 535 1000 593 1019 b 789 893 744 1019 789 977 b 781 826 789 876 786 854 b 775 781 777 804 775 789 b 797 728 775 757 782 740 b 858 710 812 716 832 710 b 944 761 895 710 924 727 b 974 897 964 795 974 841 b 896 1101 974 981 948 1049 b 668 1178 844 1152 768 1178 b 375 1091 561 1178 463 1149 b 166 846 287 1033 217 951 b 89 483 115 740 89 619 b 154 225 89 385 111 299 b 342 53 198 151 260 94 z "},"D":{"ha":1133,"x_min":0,"x_max":0,"o":"m 246 7 b 428 -7 313 -2 374 -7 b 781 65 562 -7 680 17 b 794 49 785 59 790 54 b 951 -7 834 12 887 -7 b 1111 36 1014 -7 1068 7 b 1244 161 1155 65 1199 106 b 1271 247 1262 182 1271 211 b 1260 293 1271 267 1267 282 b 1232 310 1253 304 1244 310 b 1194 290 1218 310 1206 303 b 1093 188 1154 242 1120 208 b 1008 158 1066 168 1038 158 b 948 182 983 158 963 166 b 1051 322 989 223 1023 269 b 1135 688 1107 426 1135 548 b 1068 963 1135 795 1113 887 b 878 1135 1024 1038 960 1096 b 585 1194 795 1175 698 1194 b 336 1160 505 1194 422 1183 b 111 1061 250 1138 175 1105 b 74 1022 94 1049 81 1036 b 63 967 66 1007 63 989 b 76 917 63 947 67 931 b 114 897 86 904 98 897 b 153 910 128 897 141 901 b 349 1001 211 948 277 978 b 569 1036 422 1025 495 1036 b 836 946 684 1036 773 1006 b 931 690 899 886 931 800 b 810 297 931 526 891 395 b 447 150 730 199 609 150 b 353 154 412 150 381 151 b 404 510 363 267 380 386 b 476 808 428 635 452 734 b 485 853 482 825 485 840 b 400 900 485 884 456 900 b 324 886 369 900 343 895 b 285 838 304 877 291 861 b 197 448 250 713 221 583 b 151 108 173 313 158 200 b 169 36 150 75 156 51 b 246 7 183 21 209 12 z "},"E":{"ha":953,"x_min":0,"x_max":0,"o":"m 1083 261 b 1049 253 1074 261 1063 258 b 828 187 988 227 914 205 b 585 160 743 169 662 160 b 329 203 468 160 383 174 b 249 333 275 233 249 276 b 283 430 249 368 260 400 b 392 504 305 460 342 485 b 583 536 443 524 506 534 b 667 629 639 537 667 568 b 654 671 667 649 662 663 b 611 685 646 679 631 684 b 437 731 531 688 472 703 b 383 839 401 759 383 795 b 454 974 383 895 407 940 b 643 1024 501 1007 564 1024 b 768 992 701 1024 743 1013 b 806 911 793 972 806 944 b 799 849 806 900 803 879 b 792 797 794 830 792 813 b 814 745 792 774 799 757 b 875 728 829 734 849 728 b 960 778 912 728 941 745 b 990 911 980 812 990 856 b 904 1103 990 990 962 1054 b 646 1178 847 1153 761 1178 b 411 1136 561 1178 482 1164 b 241 1017 340 1108 283 1069 b 178 840 199 966 178 907 b 222 707 178 791 192 747 b 347 624 251 667 293 639 b 120 502 247 599 172 558 b 43 299 69 446 43 378 b 101 142 43 240 62 188 b 276 33 139 95 198 59 b 569 -7 355 6 453 -7 b 826 16 654 -7 739 1 b 1039 78 913 31 984 52 b 1108 131 1071 94 1094 111 b 1128 201 1121 150 1128 174 b 1117 244 1128 219 1124 233 b 1083 261 1109 256 1098 261 z "},"F":{"ha":989,"x_min":0,"x_max":0,"o":"m 1285 1128 b 1232 1151 1276 1140 1258 1148 b 815 1176 1112 1168 973 1176 b 298 1099 588 1176 416 1150 b 121 849 180 1047 121 963 b 136 753 121 813 126 781 b 168 696 146 724 157 705 b 232 674 186 681 207 674 b 294 692 255 674 276 680 b 322 736 313 705 322 719 b 314 761 322 744 319 753 b 286 851 295 790 286 820 b 347 954 286 897 306 931 b 558 1003 388 977 458 994 b 522 632 545 857 533 734 b 446 631 497 631 472 631 b 381 608 417 631 395 623 b 358 542 366 592 358 570 b 381 490 358 519 366 502 b 436 472 397 478 415 472 l 503 472 l 494 396 b 426 192 484 303 461 235 b 293 128 390 149 346 128 b 128 215 227 128 172 157 b 87 258 111 237 97 251 b 54 269 76 266 65 269 b 15 244 38 269 25 261 b -1 186 4 228 -1 208 b 14 129 -1 164 4 145 b 131 30 39 90 78 57 b 304 -11 183 3 241 -11 b 428 5 350 -11 391 -6 b 569 -7 476 -2 527 -7 b 826 16 654 -7 739 1 b 1039 78 913 31 984 52 b 1108 131 1071 94 1094 111 b 1128 201 1121 150 1128 174 b 1117 244 1128 219 1124 233 b 1083 261 1109 256 1098 261 b 1049 253 1074 261 1063 258 b 828 187 988 227 914 205 b 619 160 756 171 686 163 b 690 413 653 224 677 308 l 699 472 l 936 472 b 1015 499 970 472 997 481 b 1043 574 1034 517 1043 542 b 1026 622 1043 594 1037 610 b 957 640 1014 634 991 640 l 718 636 b 753 1011 730 749 742 874 l 815 1011 b 985 1007 875 1011 931 1010 b 1149 996 1040 1004 1094 1000 l 1197 992 b 1300 1081 1266 987 1300 1017 b 1285 1128 1300 1100 1295 1116 z "},"G":{"ha":1126,"x_min":0,"x_max":0,"o":"m 1267 290 b 1239 307 1260 301 1251 307 b 1207 296 1230 307 1219 303 b 1004 151 1146 255 1078 207 l 1019 257 b 1047 458 1035 362 1044 429 b 1031 516 1050 483 1045 503 b 981 536 1018 529 1001 536 l 721 536 b 665 514 698 536 679 529 b 644 453 651 499 644 479 b 665 391 644 424 651 403 b 725 372 679 378 699 372 l 867 372 l 847 203 b 647 160 778 174 711 160 b 384 251 532 160 445 190 b 293 508 323 311 293 397 b 346 787 293 617 311 709 b 485 961 381 864 428 922 b 674 1019 543 1000 606 1019 b 792 987 729 1019 769 1009 b 828 897 816 966 828 936 b 819 836 828 882 825 862 b 814 789 816 814 814 798 b 837 739 814 768 822 751 b 897 721 852 727 872 721 b 983 770 934 721 963 737 b 1012 901 1003 803 1012 847 b 931 1102 1012 985 985 1052 b 687 1178 877 1153 796 1178 b 381 1091 575 1178 472 1149 b 167 847 290 1033 219 952 b 89 483 115 741 89 620 b 154 225 89 385 111 299 b 337 53 198 151 259 94 b 611 -7 416 13 507 -7 b 826 39 681 -7 753 8 l 822 12 b 597 -188 725 -63 650 -129 b 488 -342 543 -246 507 -297 b 458 -474 468 -386 458 -430 b 503 -588 458 -521 473 -559 b 618 -632 532 -617 571 -632 b 836 -467 706 -632 779 -577 b 976 -14 894 -356 940 -206 b 1237 164 1096 69 1183 128 b 1268 196 1251 173 1262 184 b 1278 246 1275 208 1278 225 b 1267 290 1278 263 1274 278 z m 712 -415 b 633 -497 684 -470 657 -497 b 594 -443 607 -497 594 -479 b 641 -315 594 -406 610 -363 b 793 -151 672 -266 723 -212 b 712 -415 768 -273 741 -361 z "},"H":{"ha":1213,"x_min":0,"x_max":0,"o":"m 1381 293 b 1353 310 1374 304 1365 310 b 1315 290 1339 310 1326 303 b 1208 188 1275 242 1240 208 b 1104 158 1177 168 1142 158 b 1003 219 1061 158 1027 179 b 967 426 979 260 967 329 b 971 542 967 466 968 505 b 1322 1019 1205 631 1322 790 b 1282 1163 1322 1079 1309 1127 b 1172 1218 1255 1200 1219 1218 b 1001 1135 1109 1218 1052 1190 b 874 918 950 1079 908 1007 b 797 632 839 829 814 734 b 647 618 756 625 706 621 l 511 611 b 544 924 533 743 544 847 b 495 1116 544 1011 528 1075 b 356 1178 462 1157 416 1178 b 167 1123 292 1178 229 1159 b 13 983 105 1086 53 1040 b -22 892 -11 951 -22 920 b -8 846 -22 873 -18 858 b 25 828 1 834 12 828 b 65 851 40 828 53 836 b 285 1014 147 960 220 1014 b 336 990 306 1014 323 1006 b 356 901 349 975 356 945 b 319 603 356 833 344 733 l 246 600 b 158 576 205 598 176 590 b 132 508 141 561 132 539 b 153 456 132 484 139 467 b 219 440 167 446 189 440 l 286 443 b 211 121 268 355 243 248 b 204 71 206 100 204 83 b 293 -10 204 17 234 -10 b 404 111 348 -10 385 31 b 482 458 438 248 463 364 b 581 465 500 459 532 462 b 781 490 653 471 719 479 b 776 396 778 459 776 427 b 857 97 776 266 803 167 b 1072 -7 911 28 982 -7 b 1365 161 1176 -7 1274 49 b 1392 247 1383 182 1392 211 b 1381 293 1392 267 1388 282 z m 1101 1042 b 1165 1097 1123 1079 1145 1097 b 1193 1079 1176 1097 1186 1091 b 1204 1029 1200 1067 1204 1050 b 1151 811 1204 940 1187 868 b 988 681 1116 755 1062 711 b 1036 890 1000 756 1016 826 b 1101 1042 1056 954 1078 1005 z "},"I":{"ha":635,"x_min":0,"x_max":0,"o":"m 425 -7 b 556 11 425 -7 486 -10 b 650 50 611 28 650 50 b 719 103 650 50 705 83 b 739 174 732 122 739 146 b 728 217 739 191 735 206 b 694 233 720 228 709 233 b 660 225 685 233 674 231 b 549 167 624 211 588 177 b 429 155 510 156 461 157 b 410 154 422 154 416 154 b 458 496 422 246 438 360 l 488 678 b 518 860 491 700 501 761 l 543 1010 b 665 1011 571 1011 612 1011 b 744 1038 700 1011 726 1020 b 772 1110 763 1056 772 1080 b 747 1152 772 1126 764 1141 b 686 1169 731 1164 710 1169 l 432 1171 b 276 1168 371 1171 319 1170 b 140 1067 186 1163 140 1130 b 159 1022 140 1047 147 1032 b 228 1006 172 1011 194 1006 l 344 1007 b 294 675 330 893 313 782 l 264 493 b 215 179 254 432 238 327 l 211 149 l 146 147 b 21 118 92 146 50 137 b -24 40 -9 100 -24 74 b -3 -8 -24 19 -17 3 b 49 -25 11 -19 28 -25 b 114 -18 62 -25 83 -23 b 306 -3 183 -8 247 -3 b 397 -6 320 -3 351 -4 b 425 -7 407 -6 416 -6 b 425 -7 425 -7 425 -7 z "},"J":{"ha":965,"x_min":0,"x_max":0,"o":"m 601 103 b 465 0 556 34 511 0 b 404 26 439 0 419 9 b 382 99 389 43 382 67 b 721 463 382 242 495 363 b 601 103 687 291 647 171 z m 1047 1003 b 1064 1065 1058 1017 1064 1038 b 985 1143 1064 1104 1038 1130 b 682 1176 896 1165 795 1176 b 99 843 293 1176 99 1065 b 138 694 99 787 112 737 b 206 657 153 669 176 657 b 270 680 229 657 250 665 b 300 732 290 695 300 712 b 292 761 300 742 297 752 b 264 851 273 794 264 824 b 356 974 264 908 294 949 b 640 1011 417 999 512 1011 b 796 1003 688 1011 740 1008 l 771 793 b 747 617 765 741 757 682 b 353 392 584 557 453 483 b 203 81 253 302 203 198 b 267 -83 203 15 224 -40 b 447 -149 310 -127 370 -149 b 714 -6 550 -149 639 -101 b 739 -7 720 -6 732 -6 b 739 -7 739 -7 739 -7 b 869 11 739 -7 800 -10 b 964 50 925 28 964 50 b 1033 103 964 50 1019 83 b 1053 174 1046 122 1053 146 b 1042 217 1053 191 1049 206 b 1008 233 1034 228 1023 233 b 974 225 999 233 988 231 b 863 167 938 211 901 177 b 810 158 846 162 828 160 b 962 772 877 308 928 513 b 978 881 963 780 969 816 b 990 982 984 929 988 963 b 1047 1003 1016 982 1035 989 z "},"K":{"ha":1301,"x_min":0,"x_max":0,"o":"m 1470 293 b 1442 310 1463 304 1454 310 b 1404 290 1428 310 1415 303 b 1303 188 1363 242 1330 208 b 1218 158 1276 168 1248 158 b 1131 197 1185 158 1156 171 b 1050 326 1106 222 1079 265 b 996 428 1030 370 1012 404 b 938 490 980 453 961 474 b 851 528 916 507 887 519 b 1133 707 953 557 1047 617 b 1332 1071 1219 797 1286 918 b 1338 1103 1336 1086 1338 1096 b 1316 1152 1338 1124 1330 1141 b 1256 1169 1302 1164 1281 1169 b 1180 1149 1225 1169 1200 1163 b 1138 1089 1160 1135 1146 1115 b 967 755 1092 948 1035 837 b 703 615 899 673 811 626 l 757 989 b 822 1065 800 989 822 1014 b 754 1143 822 1103 800 1129 b 640 1169 713 1156 674 1165 b 525 1176 605 1174 567 1176 b 285 1133 430 1176 350 1162 b 140 1017 220 1103 172 1065 b 92 857 108 969 92 915 b 133 699 92 800 106 748 b 199 660 147 673 169 660 b 262 683 222 660 243 667 b 290 736 281 698 290 716 b 285 761 290 745 288 754 b 265 809 276 779 270 795 b 257 865 259 823 257 842 b 318 983 257 916 277 955 b 497 1024 359 1010 419 1024 b 565 1019 519 1024 541 1022 l 522 707 b 508 612 519 689 515 658 l 463 612 b 416 591 444 612 428 605 b 397 533 403 577 397 557 b 415 483 397 512 403 495 b 465 465 427 471 444 465 l 488 465 l 468 333 b 412 177 457 263 438 211 b 317 126 385 143 354 126 b 235 158 284 126 257 137 b 160 271 214 180 188 217 b 136 302 152 286 144 296 b 106 311 128 308 118 311 b 56 281 85 311 69 301 b 36 208 43 260 36 236 b 46 154 36 189 39 171 b 149 35 65 106 100 66 b 319 -11 199 4 256 -11 b 551 76 418 -11 495 18 b 664 363 607 135 644 230 l 679 465 b 746 442 706 463 728 455 b 799 378 763 430 781 409 b 868 242 817 348 840 303 b 990 53 906 156 947 94 b 1158 -7 1034 13 1090 -7 b 1319 37 1220 -7 1274 8 b 1454 161 1365 66 1410 107 b 1481 247 1472 182 1481 211 b 1470 293 1481 267 1477 282 z "},"L":{"ha":935,"x_min":0,"x_max":0,"o":"m 1103 293 b 1075 310 1097 304 1087 310 b 1038 290 1061 310 1049 303 b 928 203 1003 250 967 222 b 790 176 890 185 844 176 b 717 185 769 176 744 179 b 597 213 689 190 649 200 b 375 261 508 235 434 251 b 393 376 382 294 388 332 l 425 692 b 510 942 437 806 465 889 b 699 1022 554 996 617 1022 b 802 988 745 1022 779 1011 b 836 896 825 966 836 935 b 828 826 836 875 833 852 b 822 781 824 804 822 789 b 844 727 822 757 830 740 b 906 708 859 715 880 708 b 990 760 942 708 970 726 b 1021 897 1011 795 1021 841 b 940 1100 1021 981 994 1048 b 710 1178 887 1152 810 1178 b 536 1149 649 1178 591 1168 b 390 1065 481 1130 433 1102 b 275 911 341 1023 303 971 b 225 682 247 851 231 775 l 200 278 l 182 278 b 8 233 110 278 52 263 b -57 119 -35 203 -57 165 b -10 28 -57 82 -41 52 b 114 -7 21 5 62 -7 b 326 122 208 -7 279 36 b 479 65 375 107 426 88 b 628 11 537 41 587 23 b 761 -7 669 -1 713 -7 b 937 31 830 -7 888 6 b 1087 161 985 56 1036 99 b 1114 247 1105 182 1114 211 b 1103 293 1114 267 1110 282 z "},"M":{"ha":1711,"x_min":0,"x_max":0,"o":"m 249 16 b 322 -7 263 1 288 -7 b 395 21 358 -7 383 2 b 424 119 408 39 417 72 b 538 651 454 343 492 520 b 679 924 584 782 631 873 b 819 1001 727 976 774 1001 b 880 976 846 1001 866 993 b 900 899 893 960 900 934 b 836 465 900 834 879 689 b 797 248 820 382 807 309 b 782 99 787 186 782 137 b 803 15 782 58 789 30 b 872 -7 818 0 841 -7 b 951 22 908 -7 934 3 b 985 133 967 41 978 78 b 1090 639 1012 341 1047 509 b 1226 917 1133 769 1178 861 b 1363 1001 1273 973 1319 1001 b 1416 977 1386 1001 1403 993 b 1435 904 1428 961 1435 937 b 1431 848 1435 886 1433 867 b 1419 787 1428 829 1424 809 b 1410 743 1415 766 1412 751 l 1354 489 b 1321 251 1332 385 1321 306 b 1388 63 1321 173 1343 110 b 1572 -7 1432 16 1494 -7 b 1721 33 1624 -7 1674 6 b 1864 161 1768 60 1816 103 b 1890 247 1881 182 1890 211 b 1880 293 1890 267 1887 282 b 1851 310 1873 304 1863 310 b 1814 290 1838 310 1825 303 b 1710 189 1774 243 1740 209 b 1621 158 1681 169 1651 158 b 1545 187 1588 158 1563 168 b 1518 275 1527 207 1518 236 b 1532 394 1518 308 1523 348 l 1617 792 b 1635 940 1629 850 1635 900 b 1583 1115 1635 1015 1617 1074 b 1433 1178 1548 1157 1498 1178 b 1219 1094 1353 1178 1281 1150 b 1057 819 1157 1039 1103 947 b 1069 933 1065 865 1069 903 b 1017 1114 1069 1011 1052 1071 b 875 1178 983 1156 935 1178 b 658 1088 796 1178 724 1148 b 481 772 593 1028 533 923 b 489 817 482 781 485 795 b 501 899 493 838 497 866 b 508 987 506 933 508 962 b 467 1129 508 1050 495 1097 b 350 1178 440 1162 401 1178 b 186 1127 295 1178 241 1161 b 38 983 131 1093 82 1045 b 8 931 24 964 14 947 b -1 886 2 916 -1 901 b 13 844 -1 870 3 856 b 47 825 23 831 34 825 b 90 851 63 825 77 834 b 202 969 131 905 168 944 b 289 1006 236 993 265 1006 b 335 943 319 1006 335 985 b 322 776 335 899 331 843 b 265 399 308 670 289 544 b 235 213 251 320 241 258 b 226 103 229 168 226 131 b 249 16 226 60 234 31 z "},"N":{"ha":1228,"x_min":0,"x_max":0,"o":"m 249 16 b 322 -7 263 1 288 -7 b 395 21 358 -7 383 2 b 424 119 408 39 417 72 b 535 626 450 325 488 494 b 689 913 582 758 633 853 b 856 1001 744 972 800 1001 b 926 975 886 1001 910 993 b 951 904 943 957 951 934 b 947 848 951 886 950 867 b 936 788 944 829 941 809 b 926 743 931 766 928 751 l 871 489 b 845 351 859 433 850 388 b 838 251 840 315 838 282 b 904 63 838 173 860 110 b 1089 -7 949 16 1010 -7 b 1238 33 1141 -7 1190 6 b 1381 161 1285 60 1332 103 b 1407 247 1398 182 1407 211 b 1397 293 1407 267 1403 282 b 1368 310 1390 304 1380 310 b 1331 290 1354 310 1342 303 b 1227 189 1291 243 1256 209 b 1138 158 1198 169 1168 158 b 1062 187 1105 158 1080 168 b 1035 275 1044 207 1035 236 b 1049 394 1035 308 1039 348 l 1133 792 b 1151 940 1145 850 1151 900 b 1094 1113 1151 1012 1132 1070 b 922 1178 1055 1156 998 1178 b 671 1072 826 1178 742 1142 b 494 760 600 1001 541 897 b 517 993 509 862 517 939 b 478 1131 517 1053 504 1099 b 364 1178 453 1162 415 1178 b 189 1127 303 1178 244 1161 b 38 983 133 1093 83 1045 b 7 931 23 963 13 946 b -1 886 1 917 -1 902 b 13 844 -1 870 3 856 b 47 825 23 831 34 825 b 90 851 63 825 77 834 b 202 969 130 905 167 944 b 289 1006 237 993 266 1006 b 335 943 319 1006 335 985 b 321 776 335 906 330 850 b 286 527 311 689 299 606 b 264 392 273 448 266 403 b 235 207 250 309 240 248 b 226 103 229 166 226 131 b 249 16 226 60 234 31 z "},"O":{"ha":1133,"x_min":0,"x_max":0,"o":"m 733 224 b 542 157 678 179 614 157 b 363 242 469 157 409 185 b 293 493 316 299 293 383 b 339 763 293 594 308 684 b 467 948 369 842 412 904 b 656 1014 521 992 584 1014 b 835 928 729 1014 788 985 b 904 678 881 872 904 788 b 860 409 904 578 889 488 b 733 224 830 330 788 268 z m 956 206 b 1031 329 984 243 1009 284 b 1108 701 1083 437 1108 561 b 1050 959 1108 801 1089 887 b 892 1122 1011 1031 959 1085 b 669 1178 826 1159 752 1178 b 376 1090 562 1178 464 1149 b 166 842 287 1032 217 949 b 89 469 115 734 89 610 b 147 212 89 369 108 284 b 305 49 186 140 239 86 b 528 -7 371 12 445 -7 b 806 71 629 -7 722 19 b 824 53 811 65 817 60 b 992 -7 867 13 923 -7 b 1153 37 1054 -7 1107 8 b 1288 161 1198 66 1243 107 b 1314 247 1305 182 1314 211 b 1303 293 1314 267 1310 282 b 1275 310 1297 304 1287 310 b 1238 290 1261 310 1249 303 b 1136 188 1197 242 1163 208 b 1051 158 1109 168 1081 158 b 964 197 1018 158 989 171 b 956 206 961 199 959 202 z "},"P":{"ha":1074,"x_min":0,"x_max":0,"o":"m 936 815 b 651 519 936 642 841 544 l 697 789 b 700 825 699 798 700 810 b 680 880 700 850 693 868 b 614 897 666 891 644 897 b 544 877 587 897 564 891 b 506 810 524 864 511 841 b 454 519 483 688 466 592 b 403 526 442 520 425 523 b 382 528 398 527 391 528 b 334 510 362 528 346 522 b 317 461 322 498 317 481 b 329 413 317 442 321 426 b 383 388 337 401 356 392 b 431 381 383 388 394 386 l 385 118 b 332 22 373 54 355 22 b 280 59 315 22 298 34 b 235 163 262 84 247 118 b 218 315 224 207 218 258 b 276 681 218 452 237 574 b 440 932 314 788 369 872 b 689 1022 510 992 594 1022 b 876 965 773 1022 835 1003 b 936 815 916 926 936 876 z m 555 -7 b 611 -7 571 -7 590 -7 b 868 16 695 -7 781 1 b 1081 78 955 31 1026 52 b 1149 131 1113 94 1136 111 b 1169 201 1163 150 1169 174 b 1158 244 1169 219 1166 233 b 1125 261 1151 256 1140 261 b 1090 253 1116 261 1104 258 b 870 187 1029 227 956 205 b 626 160 784 169 703 160 b 588 162 612 160 599 160 l 626 376 b 904 450 734 384 826 408 b 1082 611 982 492 1041 545 b 1143 828 1123 677 1143 749 b 1097 1005 1143 894 1128 953 b 959 1129 1066 1057 1020 1099 b 737 1175 898 1160 825 1175 b 399 1077 614 1175 502 1142 b 155 783 297 1012 216 914 b 64 304 94 652 64 492 b 107 51 64 204 78 120 b 222 -101 136 -17 174 -68 b 378 -151 269 -135 321 -151 b 555 -7 467 -151 526 -103 z "},"Q":{"ha":1103,"x_min":0,"x_max":0,"o":"m 733 224 b 542 157 678 179 614 157 b 363 242 469 157 409 185 b 293 493 316 299 293 383 b 339 761 293 593 308 682 b 467 947 369 840 412 902 b 656 1014 522 991 585 1014 b 835 928 729 1014 788 985 b 904 678 881 872 904 788 b 860 409 904 578 889 488 b 733 224 830 330 788 268 z m 1216 -148 b 1194 -133 1211 -138 1204 -133 b 1157 -156 1181 -133 1168 -141 b 1060 -258 1121 -203 1088 -237 b 971 -289 1031 -278 1001 -289 b 880 -256 935 -289 904 -278 b 811 -144 855 -233 832 -196 b 756 -36 792 -97 773 -61 b 730 -4 748 -24 739 -14 b 938 16 786 -1 880 6 b 1150 78 1025 31 1095 52 b 1219 131 1182 94 1205 111 b 1239 201 1232 150 1239 174 b 1228 244 1239 219 1235 233 b 1194 261 1220 256 1209 261 b 1160 253 1185 261 1174 258 b 941 187 1099 227 1026 205 b 1056 386 989 243 1027 309 b 1108 701 1091 480 1108 585 b 1050 959 1108 801 1089 887 b 892 1122 1011 1031 959 1085 b 669 1178 826 1159 752 1178 b 376 1090 562 1178 464 1149 b 166 842 287 1032 217 949 b 89 469 115 734 89 610 b 183 154 89 341 120 236 b 431 1 245 73 328 22 b 499 -26 458 -4 481 -13 b 549 -88 516 -39 533 -60 b 611 -217 566 -116 586 -159 b 686 -351 635 -272 660 -317 b 781 -427 712 -384 744 -410 b 918 -453 818 -444 863 -453 b 1076 -406 972 -453 1024 -437 b 1200 -274 1127 -375 1169 -331 b 1224 -186 1216 -245 1224 -216 b 1216 -148 1224 -170 1221 -158 z "},"R":{"ha":1222,"x_min":0,"x_max":0,"o":"m 1391 293 b 1363 310 1384 304 1375 310 b 1325 290 1349 310 1336 303 b 1224 188 1284 242 1250 208 b 1139 158 1197 168 1169 158 b 1051 197 1106 158 1076 171 b 974 319 1025 223 1000 264 b 901 437 950 371 925 411 b 799 496 877 464 843 484 b 978 581 869 514 929 543 b 1088 712 1027 619 1064 662 b 1125 864 1113 761 1125 812 b 1081 1024 1125 923 1110 976 b 947 1135 1052 1071 1007 1108 b 724 1175 887 1162 813 1175 b 385 1085 596 1175 483 1145 b 158 826 288 1026 212 939 b 76 424 103 713 76 579 b 115 201 76 340 89 266 b 226 48 141 135 178 84 b 390 -7 273 11 328 -7 b 517 38 447 -7 489 8 b 572 168 544 68 563 112 b 586 253 574 178 579 206 b 618 436 604 356 614 417 b 681 412 643 433 664 425 b 733 348 698 400 716 378 b 806 208 751 318 775 271 b 926 42 844 130 884 74 b 1079 -7 968 9 1019 -7 b 1240 37 1141 -7 1195 8 b 1375 161 1286 66 1331 107 b 1401 247 1393 182 1401 211 b 1391 293 1401 267 1398 282 z m 426 437 l 389 229 b 370 171 384 202 378 183 b 340 153 362 159 352 153 b 290 185 325 153 308 163 b 246 281 273 206 258 238 b 228 433 234 323 228 374 b 285 756 228 560 247 668 b 444 956 323 845 376 911 b 682 1024 512 1001 591 1024 b 857 974 759 1024 817 1007 b 917 836 897 940 917 894 b 880 707 917 788 904 745 b 781 618 855 669 822 639 b 644 582 740 597 694 585 l 686 813 b 687 836 687 818 687 826 b 608 907 687 883 661 907 b 492 817 543 907 504 877 b 450 582 479 751 465 673 l 415 582 b 366 563 397 582 380 575 b 344 510 352 550 344 532 b 362 460 344 491 350 475 b 426 437 373 445 395 437 z "},"S":{"ha":963,"x_min":0,"x_max":0,"o":"m 158 59 b 454 -11 232 12 331 -11 b 539 -7 484 -11 512 -10 b 569 -7 548 -7 558 -7 b 826 16 654 -7 739 1 b 1039 78 913 31 984 52 b 1108 131 1071 94 1094 111 b 1128 201 1121 150 1128 174 b 1117 244 1128 219 1124 233 b 1083 261 1109 256 1098 261 b 1049 253 1074 261 1063 258 b 887 200 1002 233 948 216 b 911 329 903 238 911 281 b 866 476 911 388 896 437 b 757 571 836 516 800 548 b 587 649 714 594 658 620 b 451 708 529 672 484 692 b 370 771 419 725 392 746 b 337 861 348 796 337 826 b 401 984 337 914 359 955 b 583 1028 443 1013 504 1028 b 725 997 640 1028 687 1018 b 782 908 763 977 782 947 b 778 856 782 901 781 883 b 774 807 775 841 774 825 b 798 754 774 787 782 769 b 858 732 814 739 834 732 b 936 776 893 732 919 747 b 962 908 954 806 962 850 b 912 1058 962 968 946 1018 b 776 1149 878 1099 833 1129 b 590 1179 720 1169 658 1179 b 353 1136 500 1179 421 1165 b 199 1015 286 1107 235 1067 b 146 837 164 963 146 904 b 194 677 146 774 162 720 b 309 575 226 634 264 600 b 483 496 354 550 412 524 b 612 440 539 474 582 455 b 689 383 643 424 669 405 b 719 301 709 360 719 333 b 653 183 719 250 697 211 b 468 140 608 154 547 140 b 291 171 392 140 333 150 b 228 264 249 191 228 222 b 230 293 228 274 228 284 b 232 313 231 302 232 309 b 236 361 235 326 236 343 b 212 411 236 381 228 398 b 151 431 197 424 176 431 b 74 390 117 431 91 417 b 47 274 56 363 47 325 b 158 59 47 177 84 106 z "},"T":{"ha":921,"x_min":0,"x_max":0,"o":"m 1233 1124 b 1168 1153 1218 1138 1197 1147 b 1009 1171 1123 1161 1070 1167 b 765 1176 948 1175 867 1176 b 360 1143 600 1176 466 1165 b 126 1038 255 1121 177 1086 b 49 849 74 991 49 927 b 67 749 49 812 55 778 b 112 682 79 720 94 698 b 151 668 123 673 136 668 b 216 691 174 668 195 676 b 247 740 237 706 247 723 b 242 761 247 748 245 755 b 214 851 223 790 214 820 b 247 935 214 886 225 914 b 357 986 268 957 305 974 b 571 1008 409 998 480 1006 b 558 948 566 986 562 966 b 549 900 555 930 551 914 b 510 703 536 838 523 772 b 475 493 497 633 485 563 b 451 346 469 451 462 402 b 427 184 442 289 434 235 b 417 74 420 133 417 96 b 442 15 417 50 425 30 b 508 -7 457 1 479 -6 b 511 -7 509 -7 510 -7 b 514 -7 512 -7 513 -7 b 529 -6 519 -7 524 -7 b 701 16 585 -3 644 6 b 914 78 788 31 859 52 b 983 131 946 94 969 111 b 1003 201 996 150 1003 174 b 992 244 1003 219 999 233 b 958 261 984 256 973 261 b 924 253 949 261 938 258 b 703 187 863 227 789 205 b 629 175 682 182 656 178 b 642 277 632 206 637 240 b 674 496 653 360 663 433 b 768 1010 702 668 734 839 b 952 1005 844 1009 905 1007 b 1147 992 999 1003 1064 998 b 1228 1008 1184 989 1211 994 b 1254 1075 1246 1022 1254 1044 b 1233 1124 1254 1094 1247 1110 z "},"U":{"ha":1236,"x_min":0,"x_max":0,"o":"m 285 58 b 461 -7 325 15 383 -7 b 706 100 554 -7 635 29 b 882 411 777 171 836 275 b 860 206 867 309 860 241 b 921 52 860 143 880 91 b 1097 -7 962 13 1020 -7 b 1246 33 1149 -7 1199 6 b 1389 161 1293 60 1341 103 b 1415 247 1406 182 1415 211 b 1405 293 1415 267 1412 282 b 1376 310 1398 304 1388 310 b 1339 290 1362 310 1350 303 b 1235 189 1299 243 1265 209 b 1146 158 1206 169 1176 158 b 1077 188 1117 158 1094 168 b 1051 275 1060 208 1051 237 b 1062 394 1051 301 1055 341 b 1122 785 1077 513 1097 643 b 1149 956 1134 858 1143 915 b 1158 1054 1155 996 1158 1029 b 1135 1149 1158 1098 1150 1129 b 1063 1178 1119 1168 1095 1178 b 990 1150 1026 1178 1002 1169 b 961 1051 977 1131 968 1099 b 848 545 934 846 897 677 b 690 258 799 413 747 318 b 521 169 633 199 576 169 b 450 196 490 169 467 178 b 425 267 433 213 425 237 b 429 323 425 285 426 304 b 440 383 432 342 436 362 b 450 428 445 405 448 419 l 507 682 b 540 844 523 750 534 805 b 550 975 547 884 550 928 b 502 1126 550 1042 534 1092 b 369 1178 470 1161 426 1178 b 37 983 243 1178 132 1113 b -1 886 12 947 -1 915 b 13 844 -1 870 3 856 b 47 825 23 831 34 825 b 90 851 63 825 77 834 b 207 973 131 906 170 947 b 304 1013 244 999 276 1013 b 340 996 319 1013 331 1007 b 353 946 348 985 353 968 b 342 838 353 907 349 871 b 329 776 335 804 331 784 l 243 379 b 225 231 231 321 225 271 b 285 58 225 158 245 101 z "},"V":{"ha":1060,"x_min":0,"x_max":0,"o":"m 1247 586 b 1200 600 1237 595 1221 600 b 1032 613 1137 600 1081 604 b 1101 961 1078 738 1101 855 b 1049 1136 1101 1035 1084 1094 b 908 1200 1015 1179 968 1200 b 777 1163 860 1200 816 1188 b 684 1049 738 1138 707 1100 b 650 864 661 999 650 937 b 693 670 650 791 664 726 b 821 533 722 614 764 569 b 665 282 774 432 722 349 b 508 182 609 215 556 182 b 402 292 461 182 426 219 b 367 615 378 366 367 474 b 408 1068 367 750 381 901 b 411 1099 410 1083 411 1093 b 319 1178 411 1151 381 1178 b 241 1152 282 1178 256 1169 b 206 1054 226 1135 214 1102 b 171 615 182 925 171 778 b 242 161 171 425 194 273 b 457 -7 289 49 361 -7 b 737 130 550 -7 644 39 b 975 474 830 221 909 336 b 1172 457 1032 461 1098 455 b 1240 486 1203 458 1225 468 b 1261 550 1254 505 1261 526 b 1247 586 1261 565 1256 577 z m 878 672 b 790 874 819 716 790 783 b 814 998 790 927 798 969 b 875 1042 830 1027 850 1042 b 917 1015 893 1042 906 1033 b 932 929 927 997 932 968 b 878 672 932 862 914 776 z "},"W":{"ha":1690,"x_min":0,"x_max":0,"o":"m 1877 586 b 1831 600 1867 595 1852 600 b 1664 613 1767 600 1711 604 b 1732 961 1709 740 1732 856 b 1680 1136 1732 1035 1715 1094 b 1539 1200 1645 1179 1598 1200 b 1408 1163 1491 1200 1447 1188 b 1315 1049 1368 1138 1337 1100 b 1281 864 1292 999 1281 937 b 1324 670 1281 791 1295 726 b 1451 533 1352 614 1395 569 b 1301 283 1406 433 1356 350 b 1153 182 1247 216 1197 182 b 1066 230 1115 182 1086 198 b 1026 369 1046 262 1033 308 b 1015 615 1019 431 1015 513 b 1054 1068 1015 766 1028 917 b 1057 1103 1056 1076 1057 1088 b 1037 1159 1057 1128 1050 1147 b 974 1178 1023 1172 1002 1178 b 892 1153 939 1178 912 1170 b 851 1065 872 1137 859 1108 b 736 587 820 880 781 721 b 599 284 691 453 645 352 b 482 182 553 216 514 182 b 396 283 446 182 417 216 b 364 571 375 351 364 447 b 406 1056 364 704 378 866 b 408 1093 407 1074 408 1087 b 385 1160 408 1125 401 1148 b 321 1178 370 1172 349 1178 b 240 1151 284 1178 257 1169 b 204 1054 222 1133 211 1100 b 168 606 180 891 168 742 b 236 159 168 419 191 270 b 438 -7 281 48 349 -7 b 660 111 516 -7 591 32 b 849 471 730 190 793 310 b 918 123 854 325 877 209 b 1101 -7 959 36 1020 -7 b 1372 130 1190 -7 1280 39 b 1606 474 1463 221 1541 336 b 1803 457 1664 462 1730 456 b 1870 486 1833 458 1856 468 b 1892 550 1884 505 1892 526 b 1877 586 1892 565 1887 577 z m 1508 672 b 1421 874 1450 716 1421 783 b 1444 998 1421 927 1429 969 b 1506 1042 1460 1027 1481 1042 b 1547 1015 1523 1042 1537 1033 b 1563 929 1557 997 1563 968 b 1508 672 1563 862 1544 776 z "},"X":{"ha":989,"x_min":0,"x_max":0,"o":"m 1158 293 b 1129 310 1151 304 1141 310 b 1092 290 1115 310 1103 303 b 984 189 1051 243 1015 209 b 894 158 953 169 923 158 b 830 177 868 158 846 165 b 789 235 814 190 800 209 b 751 347 778 261 765 298 l 672 631 l 1033 1047 b 1071 1124 1058 1076 1071 1101 b 1049 1163 1071 1140 1064 1153 b 990 1176 1035 1172 1015 1176 b 919 1163 963 1176 939 1172 b 863 1115 900 1153 881 1138 l 619 819 l 592 917 b 490 1116 567 1008 533 1075 b 328 1178 448 1157 394 1178 b 169 1138 267 1178 214 1164 b 46 1031 125 1111 84 1075 b 6 940 19 998 6 968 b 20 899 6 924 10 910 b 56 883 30 889 42 883 b 93 901 69 883 82 889 b 265 1008 159 973 216 1008 b 354 963 299 1008 328 993 b 425 803 380 932 404 879 l 469 640 l 19 128 b -21 49 -7 98 -21 72 b 5 8 -21 31 -12 17 b 69 -7 22 -2 44 -7 b 138 3 95 -7 118 -3 b 194 49 157 10 176 25 l 522 454 l 569 282 b 672 67 595 188 629 116 b 858 -7 714 18 776 -7 b 1007 37 913 -7 962 8 b 1142 161 1051 66 1096 107 b 1168 247 1159 182 1168 211 b 1158 293 1168 267 1165 282 z "},"Y":{"ha":1182,"x_min":0,"x_max":0,"o":"m 1286 314 b 1261 311 1275 314 1267 313 b 1047 261 1186 296 1115 280 b 1078 475 1057 333 1068 405 b 1108 681 1089 545 1099 614 b 1163 1054 1125 792 1143 916 b 1164 1081 1163 1061 1164 1069 b 1067 1178 1164 1145 1131 1178 b 994 1152 1035 1178 1011 1169 b 963 1065 978 1135 967 1106 b 872 654 944 903 914 766 b 730 403 829 542 782 459 b 576 321 678 348 626 321 b 489 351 535 321 506 331 b 464 453 472 372 464 406 b 472 523 464 471 467 495 b 497 635 478 551 486 588 b 537 827 515 712 528 777 b 550 975 546 878 550 927 b 502 1126 550 1042 534 1092 b 369 1178 470 1161 426 1178 b 38 983 243 1178 132 1113 b -1 886 12 947 -1 915 b 13 844 -1 870 3 856 b 47 825 23 831 34 825 b 90 851 63 825 77 834 b 206 973 131 906 170 947 b 301 1012 243 999 275 1012 b 353 946 336 1012 353 990 b 342 844 353 916 349 882 b 311 692 335 806 325 756 b 276 524 295 621 284 566 b 265 411 269 483 265 445 b 328 223 265 334 286 272 b 510 150 369 174 430 150 b 736 235 593 150 669 178 b 903 492 804 291 859 377 b 889 403 897 455 893 425 l 861 207 b 465 6 684 149 552 81 b 335 -254 378 -70 335 -157 b 398 -398 335 -313 356 -360 b 576 -454 440 -435 500 -454 b 866 -323 692 -454 789 -410 b 1021 82 943 -235 995 -100 l 1025 115 b 1274 168 1106 135 1189 152 b 1319 197 1294 172 1309 181 b 1333 253 1328 212 1333 231 b 1286 314 1333 294 1318 314 z m 840 61 l 839 51 b 597 -313 806 -191 726 -313 b 528 -287 568 -313 545 -304 b 504 -222 512 -270 504 -248 b 840 61 504 -111 616 -17 z "},"Z":{"ha":1001,"x_min":0,"x_max":0,"o":"m 1170 293 b 1142 310 1163 304 1154 310 b 1104 290 1128 310 1115 303 b 995 203 1070 250 1034 222 b 857 176 957 185 911 176 b 778 185 835 176 809 179 b 660 214 748 191 709 201 b 519 247 620 224 573 235 b 693 490 553 290 611 371 b 997 960 796 640 897 797 l 1007 960 b 1061 981 1030 960 1048 967 b 1081 1039 1074 994 1081 1014 b 1067 1091 1081 1060 1076 1078 b 1011 1122 1057 1104 1039 1115 b 797 1162 944 1141 873 1154 b 572 1175 720 1171 645 1175 b 217 1097 425 1175 306 1149 b 82 857 127 1045 82 965 b 98 765 82 823 87 792 b 140 700 109 737 123 716 b 197 679 155 686 174 679 b 256 698 219 679 239 685 b 282 744 273 710 282 726 b 269 781 282 752 278 764 b 253 819 262 795 256 808 b 247 860 249 831 247 844 b 322 976 247 912 272 951 b 556 1012 371 1000 449 1012 b 799 992 638 1012 719 1006 b 307 276 652 741 488 502 b 249 278 294 277 275 278 b 129 257 203 278 163 271 b 49 200 95 243 68 224 b 21 121 30 176 21 150 b 67 28 21 83 36 52 b 189 -7 97 5 138 -7 b 297 20 227 -7 263 2 b 412 117 331 38 370 70 b 546 65 451 104 496 87 b 694 11 604 41 654 23 b 828 -7 735 -1 780 -7 b 1003 31 896 -7 955 6 b 1154 161 1052 56 1102 99 b 1181 247 1172 182 1181 211 b 1170 293 1181 267 1177 282 z "},"[":{"ha":563,"x_min":0,"x_max":0,"o":"m 215 -129 l 429 -131 b 513 -107 468 -131 496 -123 b 538 -40 529 -91 538 -69 b 514 16 538 -14 530 4 b 436 33 498 28 472 33 l 290 33 b 364 600 302 153 327 342 b 397 844 370 652 381 733 b 433 1129 412 956 424 1050 l 600 1129 b 670 1150 632 1129 656 1136 b 692 1218 684 1164 692 1187 b 671 1272 692 1240 685 1258 b 603 1292 657 1285 634 1292 l 408 1292 b 296 1265 355 1292 317 1283 b 253 1168 275 1248 260 1215 b 96 6 188 718 136 331 b 93 -25 94 -9 93 -19 b 215 -129 93 -94 134 -129 z "},"\\":{"ha":707,"x_min":0,"x_max":0,"o":"m 497 12 b 544 -7 511 -1 527 -7 b 609 23 569 -7 590 3 b 638 94 628 43 638 67 b 633 126 638 105 636 115 l 318 1229 b 288 1281 312 1252 302 1269 b 243 1297 275 1292 260 1297 b 178 1267 219 1297 197 1287 b 150 1190 159 1247 150 1222 b 156 1149 150 1176 152 1163 l 464 68 b 497 12 471 43 482 24 z "},"]":{"ha":563,"x_min":0,"x_max":0,"o":"m -46 -110 b 22 -131 -32 -124 -9 -131 l 217 -131 b 329 -104 270 -131 308 -122 b 372 -7 350 -87 365 -54 b 529 1156 437 443 489 831 b 532 1186 531 1170 532 1181 b 410 1290 532 1256 491 1290 l 196 1292 b 113 1268 157 1292 129 1284 b 88 1201 96 1252 88 1230 b 111 1145 88 1175 95 1157 b 189 1128 127 1134 153 1128 l 335 1128 b 261 561 323 1008 298 819 b 228 317 255 509 244 428 b 192 32 213 206 201 111 l 25 32 b -45 11 -7 32 -31 25 b -67 -57 -59 -3 -67 -25 b -46 -110 -67 -79 -60 -97 z "},"^":{"ha":972,"x_min":0,"x_max":0,"o":"m 238 78 b 272 115 251 86 263 99 l 524 576 l 663 115 b 688 78 668 99 677 86 b 726 65 700 69 713 65 b 778 85 746 65 763 72 b 801 139 794 99 801 117 b 797 168 801 149 800 159 l 618 736 b 590 778 613 755 603 769 b 544 793 576 788 561 793 b 494 778 527 793 510 788 b 454 736 478 769 464 755 l 135 167 b 122 125 126 152 122 138 b 143 82 122 107 129 93 b 193 65 157 71 174 65 b 238 78 209 65 224 69 z "},"_":{"ha":492,"x_min":0,"x_max":0,"o":"m -14 -137 b 40 -158 -1 -151 17 -158 l 383 -158 b 437 -137 406 -158 424 -151 b 456 -76 449 -122 456 -102 b 383 0 456 -25 431 0 l 40 0 b -14 -19 17 0 -1 -6 b -33 -76 -27 -32 -33 -51 b -14 -137 -33 -102 -27 -122 z "},"`":{"ha":833,"x_min":0,"x_max":0,"o":"m 378 763 b 421 739 390 747 404 739 b 455 753 434 739 445 744 b 469 789 465 763 469 775 b 464 815 469 798 468 807 l 335 1104 b 301 1146 326 1123 315 1137 b 257 1160 288 1155 273 1160 b 195 1135 234 1160 213 1151 b 168 1071 177 1118 168 1097 b 199 993 168 1045 178 1019 z "},"a":{"ha":653,"x_min":0,"x_max":0,"o":"m 100 56 b 238 -7 134 14 180 -7 b 419 110 311 -7 371 32 b 477 24 432 74 452 45 b 561 -7 503 3 531 -7 b 685 42 601 -7 642 9 b 806 161 727 74 768 114 b 832 247 823 181 832 210 b 822 293 832 267 828 282 b 793 310 815 304 805 310 b 756 290 779 310 767 303 b 654 180 713 239 679 203 b 590 146 629 157 608 146 b 563 158 579 146 570 150 b 553 192 556 167 553 178 b 585 414 553 233 563 307 b 606 553 599 487 606 533 b 538 601 606 585 583 601 b 476 596 516 601 496 600 b 459 638 472 616 466 630 b 418 650 452 646 438 650 b 237 590 354 650 294 630 b 100 430 180 549 134 496 b 49 219 66 364 49 294 b 100 56 49 152 66 97 z m 346 169 b 288 133 327 145 308 133 b 240 154 267 133 251 140 b 222 218 228 168 222 189 b 251 365 222 270 232 319 b 330 477 271 412 297 449 b 438 521 363 505 399 520 l 386 265 b 346 169 378 225 364 194 z "},"b":{"ha":657,"x_min":0,"x_max":0,"o":"m 833 408 b 806 426 827 420 818 426 b 786 424 798 426 792 425 b 631 396 726 408 674 399 b 561 569 623 464 600 522 b 410 646 522 616 472 641 b 553 882 476 728 524 807 b 596 1108 581 957 596 1032 b 557 1251 596 1167 583 1214 b 454 1306 531 1287 497 1306 b 251 1158 375 1306 308 1256 b 121 799 194 1059 150 940 b 76 410 91 659 76 529 b 140 100 76 275 98 171 b 344 -7 183 29 251 -7 b 515 64 406 -7 463 17 b 619 250 566 111 601 173 b 803 283 686 253 747 264 b 833 309 817 288 827 297 b 843 363 840 322 843 339 b 833 408 843 381 840 396 z m 362 1085 b 422 1168 384 1141 404 1168 b 451 1144 434 1168 444 1160 b 461 1076 458 1129 461 1106 b 406 848 461 1010 443 934 b 260 551 370 762 321 663 b 301 861 269 663 283 767 b 362 1085 320 956 340 1030 z m 426 176 b 350 140 404 152 379 140 b 280 182 323 140 300 154 b 250 303 260 210 250 250 b 288 453 250 366 263 416 b 383 510 314 491 345 510 l 387 510 b 382 457 384 488 382 470 b 405 357 382 422 390 388 b 471 281 420 325 442 300 b 426 176 463 235 449 200 z "},"c":{"ha":511,"x_min":0,"x_max":0,"o":"m 120 70 b 332 -7 171 19 241 -7 b 508 37 388 -7 447 8 b 664 161 568 66 620 107 b 690 247 681 183 690 212 b 680 293 690 267 687 282 b 651 310 673 304 663 310 b 614 290 638 310 625 303 b 484 176 571 239 528 201 b 361 138 440 150 399 138 b 221 299 268 138 221 191 b 237 406 221 338 226 373 b 282 483 249 438 263 464 b 342 511 300 502 320 511 b 367 501 353 511 361 508 b 376 474 373 495 376 486 b 369 435 376 462 374 449 b 365 417 369 431 367 425 b 362 394 363 408 362 401 b 378 360 362 380 368 368 b 421 347 389 351 403 347 b 488 387 449 347 471 361 b 514 486 505 414 514 447 b 472 602 514 533 500 572 b 353 647 443 632 404 647 b 204 601 301 647 251 632 b 89 471 157 571 119 527 b 44 274 59 414 44 349 b 120 70 44 189 70 122 z "},"d":{"ha":715,"x_min":0,"x_max":0,"o":"m 884 293 b 856 310 877 304 868 310 b 818 290 842 310 829 303 b 714 179 775 238 740 201 b 638 146 688 157 663 146 b 590 181 618 146 602 157 b 565 296 577 204 569 242 b 769 724 650 442 719 585 b 846 1088 820 863 846 984 b 806 1251 846 1161 833 1215 b 707 1306 780 1288 747 1306 b 512 1115 626 1306 561 1242 b 411 654 462 987 429 834 b 226 583 343 647 281 623 b 96 427 171 542 127 491 b 49 221 64 364 49 295 b 103 56 49 153 67 98 b 243 -7 140 14 187 -7 b 345 18 282 -7 316 1 b 447 117 374 35 408 68 b 608 -7 484 34 538 -7 b 743 42 653 -7 698 9 b 868 161 788 75 830 115 b 894 247 886 181 894 210 b 884 293 894 267 891 282 z m 639 1076 b 692 1169 656 1138 674 1169 b 713 1140 700 1169 707 1160 b 722 1058 719 1121 722 1094 b 567 514 722 921 670 740 b 594 831 572 624 581 730 b 639 1076 606 931 621 1013 z m 344 155 b 292 133 327 141 309 133 b 222 235 245 133 222 167 b 273 409 222 299 239 357 b 400 511 307 461 349 495 b 397 403 398 461 397 425 b 411 235 397 341 402 285 b 344 155 384 196 362 169 z "},"e":{"ha":546,"x_min":0,"x_max":0,"o":"m 715 293 b 686 310 708 304 698 310 b 649 290 672 310 660 303 b 510 176 610 243 564 205 b 368 132 457 147 410 132 b 236 196 303 132 259 153 b 469 305 345 223 423 259 b 537 469 515 351 537 406 b 489 599 537 524 521 567 b 360 647 456 631 413 647 b 198 599 300 647 246 631 b 86 467 150 566 113 522 b 46 289 59 412 46 353 b 126 72 46 197 73 125 b 353 -7 180 19 256 -7 b 553 46 424 -7 491 11 b 699 161 616 81 664 119 b 725 247 716 181 725 210 b 715 293 725 267 722 282 z m 249 451 b 336 511 273 491 302 511 b 376 495 353 511 366 506 b 390 453 385 484 390 470 b 343 362 390 419 375 388 b 214 304 312 337 269 317 l 214 307 b 249 451 214 363 226 412 z "},"f":{"ha":515,"x_min":0,"x_max":0,"o":"m 660 331 b 621 389 660 369 647 389 b 596 388 613 389 604 388 b 572 385 588 387 580 386 b 449 375 527 378 486 375 b 419 376 437 375 428 375 b 353 379 394 378 371 379 b 318 358 343 379 331 372 b 285 310 305 344 294 328 b 274 264 277 291 273 276 b 313 50 290 189 303 118 b 328 -160 323 -18 328 -88 b 286 -304 328 -256 314 -304 b 254 -153 271 -304 261 -254 b 244 140 248 -53 244 45 b 258 379 244 209 249 288 b 649 1090 519 636 649 873 b 612 1247 649 1156 636 1208 b 510 1306 587 1286 553 1306 b 288 1126 429 1306 355 1246 b 130 672 221 1006 168 854 b 72 131 91 489 72 308 b 115 -297 72 -60 86 -203 b 257 -439 143 -392 190 -439 b 385 -360 310 -439 352 -413 b 433 -131 417 -307 433 -231 b 422 42 433 -85 429 -28 b 392 233 414 112 404 176 b 488 221 433 225 465 221 b 660 331 602 221 660 257 z m 419 1083 b 481 1168 443 1140 464 1168 b 515 1083 504 1168 515 1140 b 454 827 514 1004 494 918 b 283 564 414 736 357 648 b 346 859 301 668 322 766 b 419 1083 370 952 394 1027 z "},"g":{"ha":665,"x_min":0,"x_max":0,"o":"m 806 290 b 778 307 799 301 790 307 b 746 296 769 307 758 303 b 540 149 680 253 612 204 b 553 233 545 178 549 206 b 565 306 558 259 562 283 b 600 524 585 422 596 495 b 601 550 601 530 601 539 b 587 591 601 570 597 584 b 538 601 577 598 561 601 b 476 596 514 601 494 600 b 459 638 472 616 466 630 b 418 650 452 646 438 650 b 237 590 354 650 294 630 b 100 430 180 549 134 496 b 49 219 66 364 49 294 b 100 56 49 152 66 97 b 237 -7 134 14 180 -7 b 313 13 262 -7 288 0 b 375 71 339 27 359 46 l 367 17 b 75 -262 224 -94 127 -186 b -3 -474 23 -337 -3 -408 b 42 -588 -3 -521 12 -559 b 157 -632 71 -617 110 -632 b 374 -467 245 -632 317 -577 b 512 -15 431 -358 477 -207 l 601 44 b 776 164 638 70 697 110 b 807 196 790 173 800 184 b 817 246 813 208 817 225 b 806 290 817 263 813 278 z m 349 172 b 287 133 329 146 309 133 b 240 154 267 133 251 140 b 222 218 228 168 222 189 b 251 365 222 270 232 319 b 329 477 271 412 297 449 b 435 521 362 505 397 520 l 390 283 b 349 172 382 235 368 198 z m 251 -414 b 172 -497 222 -469 195 -497 b 142 -482 158 -497 148 -492 b 133 -443 136 -472 133 -459 b 181 -314 133 -406 149 -363 b 335 -149 212 -265 263 -210 b 251 -414 308 -270 280 -358 z "},"h":{"ha":697,"x_min":0,"x_max":0,"o":"m 866 293 b 838 310 859 304 850 310 b 800 290 824 310 811 303 b 698 180 757 239 723 203 b 632 146 672 157 650 146 b 592 201 605 146 592 164 b 618 361 592 227 600 281 b 649 557 638 456 649 521 b 558 647 649 617 619 647 b 458 615 528 647 494 637 b 347 509 421 594 384 559 b 244 317 309 459 275 395 b 249 465 244 368 246 417 b 515 817 372 600 461 717 b 597 1108 570 918 597 1015 b 558 1251 597 1167 584 1214 b 454 1306 531 1287 497 1306 b 249 1148 375 1306 306 1253 b 120 758 192 1043 149 913 b 76 312 91 604 76 455 l 75 201 b 74 131 74 184 74 160 b 87 23 74 79 78 43 b 142 -7 96 3 114 -7 b 272 104 211 -7 255 30 b 326 265 286 161 304 214 b 393 388 349 316 371 357 b 444 435 415 419 432 435 b 460 413 455 435 460 427 b 442 292 460 390 454 350 b 422 153 429 225 422 179 b 458 34 422 101 434 61 b 565 -7 482 7 518 -7 b 719 40 623 -7 674 9 b 850 161 764 72 807 112 b 876 247 868 181 876 210 b 866 293 876 267 873 282 z m 369 1097 b 425 1168 390 1144 408 1168 b 453 1144 437 1168 446 1160 b 463 1076 459 1129 463 1106 b 406 860 463 1012 444 939 b 264 639 369 780 321 706 b 310 903 276 734 291 822 b 369 1097 329 984 349 1049 z "},"i":{"ha":342,"x_min":0,"x_max":0,"o":"m 161 652 b 249 625 181 634 210 625 b 344 658 288 625 320 636 b 381 746 369 679 381 709 b 349 817 381 776 370 800 b 265 842 327 833 300 842 b 170 809 227 842 196 831 b 132 728 145 787 132 760 b 161 652 132 695 142 670 z m 106 57 b 238 -7 134 14 177 -7 b 494 161 317 -7 403 49 b 521 247 512 181 521 210 b 510 293 521 267 517 282 b 482 310 503 304 494 310 b 444 290 468 310 456 303 b 344 181 403 240 369 204 b 282 146 319 157 299 146 b 244 168 264 146 252 153 b 233 232 237 183 233 204 b 267 439 233 268 244 337 b 293 600 284 523 293 577 b 222 647 293 631 269 647 b 156 631 192 647 169 642 b 122 569 142 619 131 599 b 81 387 106 513 92 452 b 65 226 71 322 65 268 b 106 57 65 156 79 100 z "},"j":{"ha":353,"x_min":0,"x_max":0,"o":"m 128 655 b 215 628 147 637 176 628 b 311 660 255 628 287 639 b 347 749 335 682 347 712 b 315 819 347 779 337 803 b 232 844 294 836 266 844 b 137 812 194 844 162 834 b 99 731 111 790 99 763 b 128 655 99 698 108 673 z m 494 290 b 465 307 487 301 477 307 b 433 296 456 307 445 303 b 231 151 372 255 305 207 l 244 247 b 290 600 275 440 290 557 b 277 635 290 615 286 626 b 222 647 268 643 250 647 b 146 628 188 647 163 641 b 115 569 129 616 119 596 b 89 346 103 470 94 396 b 58 83 81 260 71 172 l 49 13 b -239 -263 -92 -97 -188 -189 b -315 -474 -290 -338 -315 -408 b -272 -588 -315 -521 -301 -559 b -156 -632 -242 -617 -204 -632 b 64 -467 -67 -632 6 -577 b 204 -12 121 -356 168 -205 b 464 164 313 63 399 121 b 494 196 478 173 488 184 b 504 246 501 208 504 225 b 494 290 504 263 501 278 z m -61 -415 b -140 -497 -90 -470 -116 -497 b -179 -443 -166 -497 -179 -479 b -133 -315 -179 -406 -164 -363 b 19 -151 -102 -266 -51 -212 b -61 -415 -6 -273 -32 -361 z "},"k":{"ha":729,"x_min":0,"x_max":0,"o":"m 898 293 b 869 310 891 304 881 310 b 832 290 856 310 843 303 b 726 179 788 238 753 201 b 643 146 700 157 672 146 b 574 169 616 146 593 153 b 540 229 555 184 544 204 b 674 343 603 263 648 300 b 713 483 700 386 713 432 b 670 600 713 530 698 569 b 558 647 642 631 605 647 b 397 569 508 647 455 621 b 244 317 340 516 289 432 b 249 465 244 368 246 417 b 515 817 372 600 461 717 b 597 1108 570 918 597 1015 b 558 1251 597 1167 584 1214 b 454 1306 531 1287 497 1306 b 249 1148 375 1306 306 1253 b 120 758 192 1043 149 913 b 76 313 91 604 76 455 b 83 121 76 228 79 164 b 110 24 88 77 97 45 b 174 -7 124 3 145 -7 b 237 16 202 -7 223 1 b 272 104 250 31 262 61 b 333 280 287 164 307 223 b 417 419 359 337 387 383 b 500 474 447 456 475 474 b 526 461 510 474 519 469 b 536 424 533 453 536 440 b 510 351 536 395 527 371 b 422 294 492 331 463 312 b 367 217 385 279 367 253 b 432 54 367 149 388 95 b 604 -7 475 13 533 -7 b 756 39 663 -7 713 8 b 882 161 798 69 840 110 b 908 247 900 181 908 210 b 898 293 908 267 905 282 z m 369 1097 b 425 1168 390 1144 408 1168 b 453 1144 437 1168 446 1160 b 463 1076 459 1129 463 1106 b 406 860 463 1012 444 939 b 264 639 369 780 321 706 b 310 903 276 734 291 822 b 369 1097 329 984 349 1049 z "},"l":{"ha":453,"x_min":0,"x_max":0,"o":"m 622 293 b 593 310 615 304 605 310 b 556 290 579 310 567 303 b 446 178 511 238 475 200 b 346 146 417 157 384 146 b 288 170 322 146 302 154 b 256 251 273 186 262 213 b 504 683 360 394 443 538 b 596 1067 565 829 596 956 b 558 1244 596 1144 583 1203 b 453 1306 532 1285 497 1306 b 249 1150 374 1306 306 1254 b 120 778 192 1046 149 922 b 76 392 91 633 76 505 b 135 104 76 274 96 178 b 317 -7 175 30 235 -7 b 476 40 376 -7 429 9 b 606 161 522 72 566 112 b 632 247 623 181 632 210 b 622 293 632 267 628 282 z m 350 1053 b 422 1168 377 1130 401 1168 b 461 1063 448 1168 461 1133 b 403 765 461 973 442 873 b 246 439 364 656 312 547 b 279 767 248 544 259 653 b 350 1053 300 881 323 976 z "},"m":{"ha":1033,"x_min":0,"x_max":0,"o":"m 91 49 b 165 -7 105 12 130 -7 b 228 16 194 -7 215 1 b 264 104 242 31 254 61 b 312 257 276 154 292 205 b 374 385 332 309 352 351 b 426 435 395 418 412 435 b 442 413 437 435 442 427 b 431 296 442 394 438 355 b 417 143 421 229 417 178 b 440 37 417 101 424 66 b 508 -7 455 8 478 -7 b 573 15 538 -7 559 0 b 608 104 586 30 598 60 b 662 265 622 161 640 214 b 729 388 685 316 707 357 b 781 435 751 419 769 435 b 796 413 791 435 796 427 b 778 292 796 390 790 350 b 758 153 765 225 758 179 b 794 34 758 101 770 61 b 901 -7 819 7 854 -7 b 1058 40 960 -7 1012 9 b 1186 161 1103 72 1146 112 b 1212 247 1204 181 1212 210 b 1202 293 1212 267 1209 282 b 1174 310 1195 304 1186 310 b 1136 290 1160 310 1147 303 b 1034 180 1094 239 1059 203 b 968 146 1009 157 987 146 b 928 201 941 146 928 164 b 954 361 928 227 937 281 b 985 557 975 456 985 521 b 894 647 985 617 955 647 b 736 569 845 647 793 621 b 582 321 680 518 628 435 b 597 396 585 338 590 363 b 624 557 615 474 624 527 b 603 625 624 588 617 610 b 535 647 590 640 567 647 b 431 610 502 647 468 635 b 324 499 395 586 359 549 b 235 315 290 449 260 388 b 249 417 238 356 243 390 b 271 514 254 445 262 477 b 292 614 285 566 292 599 b 281 640 292 627 288 636 b 242 647 273 645 260 647 b 162 628 207 647 181 641 b 121 569 143 616 129 596 b 69 226 87 461 69 347 b 91 49 69 145 77 86 z "},"n":{"ha":689,"x_min":0,"x_max":0,"o":"m 91 49 b 165 -7 105 12 130 -7 b 228 16 194 -7 215 1 b 264 104 242 31 254 61 b 319 265 278 161 296 214 b 385 388 341 316 364 357 b 436 435 407 419 424 435 b 451 413 446 435 451 427 b 433 292 451 390 445 350 b 414 153 420 225 414 179 b 450 34 414 101 426 61 b 557 -7 474 7 510 -7 b 713 40 615 -7 667 9 b 842 161 759 72 802 112 b 868 247 859 181 868 210 b 858 293 868 267 865 282 b 829 310 851 304 841 310 b 792 290 815 310 803 303 b 690 180 749 239 715 203 b 624 146 664 157 642 146 b 583 201 597 146 583 164 b 610 361 583 227 592 281 b 640 557 630 456 640 521 b 550 647 640 617 610 647 b 449 615 519 647 486 637 b 338 508 413 594 375 558 b 235 314 300 458 265 394 b 249 417 238 355 243 389 b 271 514 254 444 262 477 b 292 614 285 566 292 599 b 281 640 292 627 288 636 b 242 647 273 645 260 647 b 162 628 207 647 181 641 b 121 569 143 616 129 596 b 69 226 87 461 69 347 b 91 49 69 145 77 86 z "},"o":{"ha":626,"x_min":0,"x_max":0,"o":"m 803 408 b 775 426 796 420 787 426 b 756 424 769 426 763 425 b 600 396 695 408 644 399 b 524 576 593 467 567 527 b 354 649 481 624 425 649 b 197 602 297 649 244 633 b 86 473 150 571 113 528 b 46 285 59 418 46 355 b 76 140 46 233 56 185 b 166 33 97 96 127 60 b 308 -7 205 6 253 -7 b 485 63 374 -7 433 16 b 589 250 537 110 571 172 b 772 283 656 253 717 264 b 812 362 799 292 812 318 b 803 408 812 381 809 396 z m 397 176 b 319 140 375 152 349 140 b 249 181 293 140 269 154 b 219 297 229 207 219 246 b 256 448 219 362 232 412 b 349 501 281 484 312 501 l 356 501 b 351 457 353 487 351 472 b 374 357 351 422 359 388 b 440 281 390 325 412 300 b 397 176 433 235 418 200 z "},"p":{"ha":668,"x_min":0,"x_max":0,"o":"m 837 293 b 808 310 830 304 820 310 b 771 290 794 310 782 303 b 664 179 727 238 692 201 b 576 146 636 157 607 146 b 528 154 563 146 547 149 b 593 281 556 192 577 234 b 617 424 609 327 617 375 b 567 587 617 491 600 546 b 440 650 534 629 492 650 b 349 626 408 650 377 642 b 261 546 320 609 291 583 b 260 597 260 557 260 574 b 245 644 259 620 254 636 b 203 656 236 652 222 656 b 119 632 169 656 142 648 b 88 568 97 616 87 595 b 90 286 89 515 90 421 b -103 -113 3 141 -61 8 b -165 -431 -144 -234 -165 -340 b -129 -581 -165 -494 -153 -544 b -18 -635 -105 -617 -68 -635 b 169 -455 64 -635 127 -575 b 251 -7 212 -335 239 -186 b 417 46 309 -6 364 12 b 536 -7 447 11 487 -7 b 692 40 594 -7 647 9 b 821 161 738 72 781 112 b 847 247 838 181 847 210 b 837 293 847 267 844 282 z m 351 181 b 258 126 322 152 292 134 b 260 225 259 150 260 182 b 261 404 260 304 260 363 b 382 510 308 475 349 510 b 426 488 400 510 415 503 b 443 425 438 474 443 453 b 418 290 443 378 435 333 b 351 181 401 247 379 210 z m 56 -335 b -7 -499 39 -444 18 -499 b -31 -475 -16 -499 -24 -491 b -42 -407 -38 -459 -42 -437 b -7 -194 -42 -350 -30 -279 b 88 71 16 -110 48 -22 b 56 -335 83 -91 72 -227 z "},"q":{"ha":694,"x_min":0,"x_max":0,"o":"m 878 224 b 846 267 878 252 867 267 b 775 263 826 267 803 265 b 669 258 708 260 673 258 b 605 228 642 258 620 248 b 582 151 590 207 582 182 b 583 129 582 141 582 134 b 593 -58 590 75 593 12 b 582 -226 593 -118 589 -174 b 555 -353 575 -279 566 -321 b 525 -400 544 -384 534 -400 b 498 -355 514 -400 505 -385 b 487 -246 491 -325 487 -288 b 532 147 487 -132 502 -1 b 573 319 542 199 556 256 b 621 492 590 382 606 440 b 644 572 625 505 632 531 b 661 649 655 612 661 638 b 647 689 662 666 657 680 b 583 703 636 698 615 703 b 514 688 554 703 531 698 b 476 628 497 677 485 657 b 425 650 464 643 447 650 b 240 590 359 650 297 630 b 101 431 182 549 135 496 b 49 222 66 365 49 295 b 99 57 49 155 66 100 b 226 -7 133 14 175 -7 b 350 65 277 -7 319 17 b 314 -256 326 -40 314 -147 b 355 -477 314 -343 328 -416 b 475 -568 382 -538 422 -568 b 647 -412 553 -568 610 -516 b 701 -47 683 -309 701 -187 b 696 111 701 6 700 58 b 736 110 713 111 727 111 l 787 108 b 853 139 815 108 837 119 b 878 224 870 159 878 188 z m 343 173 b 282 133 324 147 303 133 b 238 156 263 133 249 141 b 222 222 228 172 222 194 b 252 367 222 273 232 322 b 333 478 272 413 299 450 b 444 521 366 506 404 520 l 385 268 b 343 173 376 231 362 199 z "},"r":{"ha":632,"x_min":0,"x_max":0,"o":"m 91 49 b 165 -7 105 12 130 -7 b 228 16 194 -7 215 1 b 264 104 242 31 254 61 b 318 265 278 161 296 214 b 385 388 340 316 363 357 b 440 435 408 419 426 435 b 456 413 450 435 456 427 b 453 375 456 406 455 394 b 449 333 450 361 449 347 b 487 232 449 291 461 257 b 599 194 512 207 550 194 b 709 223 637 194 674 204 b 800 292 744 242 774 265 b 828 372 819 311 828 338 b 817 415 828 390 824 404 b 789 431 810 425 801 431 b 751 413 776 431 763 425 b 651 351 711 372 677 351 b 617 400 628 351 617 368 b 628 469 617 409 620 432 b 640 557 636 516 640 545 b 550 647 640 617 610 647 b 449 615 519 647 486 637 b 338 508 413 594 375 558 b 235 314 300 458 265 394 b 249 417 238 355 243 389 b 271 514 254 444 262 477 b 292 614 285 566 292 599 b 281 640 292 627 288 636 b 242 647 273 645 260 647 b 162 628 207 647 181 641 b 121 569 143 616 129 596 b 69 226 87 461 69 347 b 91 49 69 145 77 86 z "},"s":{"ha":593,"x_min":0,"x_max":0,"o":"m 215 -4 b 325 -37 240 -26 277 -37 b 457 10 376 -37 420 -22 b 613 44 519 12 571 23 b 746 161 655 65 700 104 b 772 247 763 183 772 212 b 762 293 772 267 769 282 b 733 310 755 304 745 310 b 696 290 719 310 707 303 b 536 150 635 214 581 168 b 539 189 538 167 539 180 b 516 278 539 221 531 251 b 449 378 501 306 478 339 b 403 440 428 403 413 424 b 389 486 394 457 389 472 b 414 571 389 509 397 537 b 429 607 420 583 425 595 b 435 633 433 619 435 628 b 419 656 435 644 430 651 b 365 662 409 660 391 662 b 256 601 310 662 273 642 b 193 462 235 553 214 507 b 138 354 172 417 153 381 b 22 199 112 313 73 262 l 4 176 b -15 125 -9 161 -15 144 b -1 85 -15 109 -11 96 b 35 69 8 75 20 69 b 88 94 53 69 71 78 b 180 197 121 127 152 161 b 265 333 208 233 237 279 b 307 281 278 319 292 301 b 344 219 322 261 334 241 b 360 151 353 198 359 175 b 323 156 351 152 339 154 b 281 160 307 159 293 160 b 203 133 246 160 220 151 b 176 71 185 116 176 95 b 215 -4 176 43 189 18 z "},"t":{"ha":546,"x_min":0,"x_max":0,"o":"m 715 293 b 686 310 708 304 698 310 b 649 290 672 310 660 303 b 540 182 607 242 571 206 b 435 146 510 158 475 146 b 327 204 386 146 350 165 b 293 407 304 243 293 311 b 296 515 293 433 294 469 l 465 515 b 622 611 570 515 622 547 b 613 647 622 629 619 641 b 581 657 606 654 595 657 l 425 657 b 606 1032 545 763 606 888 b 572 1161 606 1084 594 1127 b 481 1213 550 1195 519 1213 b 333 1138 428 1213 378 1188 b 215 936 287 1088 248 1020 b 143 657 183 852 159 759 l 64 657 b 1 579 22 657 1 631 b 16 531 1 557 6 541 b 72 515 26 520 44 515 l 126 515 b 122 392 124 474 122 432 b 406 -7 122 126 217 -7 b 568 40 467 -7 521 9 b 699 161 615 72 659 112 b 725 247 716 181 725 210 b 715 293 725 267 722 282 z m 397 1027 b 443 1079 414 1062 429 1079 b 474 997 463 1079 474 1052 b 433 837 474 949 460 896 b 310 678 405 778 364 725 b 348 883 320 753 333 821 b 397 1027 363 944 379 992 z "},"u":{"ha":642,"x_min":0,"x_max":0,"o":"m 106 51 b 208 -7 133 12 167 -7 b 310 44 244 -7 278 10 b 381 189 341 78 365 126 b 412 44 381 127 391 79 b 510 -7 433 10 465 -7 b 666 40 568 -7 620 9 b 794 161 712 72 755 112 b 821 247 812 181 821 210 b 810 293 821 267 817 282 b 782 310 803 304 794 310 b 744 290 768 310 756 303 b 642 180 702 239 668 203 b 576 146 617 157 595 146 b 547 160 564 146 555 151 b 536 201 540 170 536 184 b 575 421 536 229 549 302 b 610 611 598 525 610 588 b 597 640 610 625 606 634 b 553 647 589 645 574 647 b 484 629 522 647 499 641 b 450 569 469 617 457 597 b 381 361 428 487 405 418 b 315 235 358 305 335 263 b 263 193 294 207 276 193 b 240 205 252 193 245 197 b 233 246 236 213 233 226 b 261 440 233 278 243 343 b 283 533 267 468 274 499 b 299 608 294 576 299 601 b 287 638 299 621 295 631 b 244 647 279 644 265 647 b 165 629 208 647 182 641 b 126 569 149 617 136 597 b 81 385 105 505 90 443 b 67 194 71 328 67 264 b 106 51 67 137 80 89 z "},"v":{"ha":624,"x_min":0,"x_max":0,"o":"m 768 424 b 754 422 762 424 757 423 l 717 415 b 576 394 658 403 612 396 b 610 538 599 448 610 496 b 585 620 610 574 601 601 b 519 649 568 639 546 649 b 438 621 489 649 462 639 b 381 549 413 602 394 578 b 360 457 367 519 360 488 b 381 361 360 420 367 388 b 256 164 353 312 311 246 b 236 579 243 334 236 473 b 219 633 236 604 230 622 b 165 649 207 643 189 649 b 94 631 134 649 110 643 b 69 567 79 619 70 597 l 69 518 b 86 178 69 421 75 307 b 127 38 92 114 105 67 b 217 -7 149 8 179 -7 b 308 22 251 -7 281 3 b 404 131 335 42 367 78 b 493 265 437 177 466 222 b 608 249 529 254 568 249 b 744 269 656 249 702 256 b 794 305 767 277 783 289 b 811 372 806 321 811 344 b 800 410 811 388 807 400 b 768 424 793 419 782 424 z "},"w":{"ha":972,"x_min":0,"x_max":0,"o":"m 1117 424 b 1103 422 1110 424 1106 423 l 1065 415 b 925 394 1007 403 960 396 b 958 538 947 448 958 496 b 933 620 958 574 950 601 b 868 649 917 639 895 649 b 786 621 838 649 810 639 b 729 549 762 602 743 578 b 708 457 715 519 708 488 b 729 361 708 420 715 388 b 604 164 701 312 660 246 b 585 579 591 334 585 473 b 570 633 585 605 580 623 b 518 649 560 644 543 649 b 466 634 498 649 480 644 b 429 578 452 624 439 606 b 256 164 376 434 319 296 b 236 579 243 334 236 473 b 219 633 236 604 230 622 b 165 649 207 643 189 649 b 94 631 134 649 110 643 b 69 567 79 619 70 597 l 69 518 b 86 178 69 421 75 307 b 127 38 92 114 105 67 b 217 -7 149 8 179 -7 b 297 17 247 -7 274 1 b 365 101 319 32 342 61 b 442 279 387 142 413 201 l 449 178 b 484 36 453 112 465 65 b 568 -7 503 7 531 -7 b 658 22 601 -7 631 3 b 753 131 684 42 716 78 b 842 265 785 177 815 222 b 957 249 878 254 916 249 b 1093 269 1005 249 1050 256 b 1143 305 1115 277 1132 289 b 1160 372 1154 321 1160 344 b 1149 410 1160 388 1156 400 b 1117 424 1141 419 1131 424 z "},"x":{"ha":735,"x_min":0,"x_max":0,"o":"m 903 293 b 875 310 897 304 887 310 b 838 290 861 310 849 303 b 726 176 795 238 758 200 b 624 139 694 151 660 139 b 538 174 588 139 559 151 b 507 275 517 198 507 231 b 520 382 507 312 511 348 b 552 465 529 416 540 444 b 588 496 565 485 576 496 b 607 488 597 496 603 493 b 615 463 611 482 613 474 b 632 426 619 447 625 435 b 674 414 639 418 653 414 b 731 449 696 414 715 426 b 754 547 746 473 754 506 b 726 628 754 584 745 611 b 643 653 707 644 679 653 b 541 625 610 653 576 644 b 447 542 506 606 475 579 b 375 624 431 578 406 605 b 269 653 344 643 308 653 b 158 613 224 653 187 639 b 115 501 130 586 115 549 b 133 435 115 472 121 450 b 182 414 145 421 162 414 b 231 427 205 414 221 418 b 253 463 240 436 247 448 b 267 488 257 475 262 483 b 289 496 271 493 279 496 b 319 462 301 496 311 484 b 332 378 328 439 332 411 b 316 258 332 334 327 294 b 276 173 305 222 292 194 b 225 142 259 152 243 142 b 189 183 201 142 189 156 b 193 240 189 188 190 207 b 196 275 195 257 196 269 b 146 313 196 300 179 313 b 56 269 107 313 77 298 b 24 157 34 241 24 203 b 68 39 24 108 38 69 b 189 -6 98 9 138 -6 b 376 94 261 -6 324 28 b 463 19 398 62 427 37 b 589 -7 500 2 542 -7 b 753 41 650 -7 705 9 b 887 161 802 73 847 113 b 914 247 905 181 914 210 b 903 293 914 267 910 282 z "},"y":{"ha":665,"x_min":0,"x_max":0,"o":"m 806 290 b 778 307 799 301 790 307 b 746 296 769 307 758 303 b 537 149 678 251 609 202 l 574 372 b 610 611 598 508 610 588 b 597 639 610 624 606 633 b 553 647 589 644 574 647 b 484 629 522 647 499 641 b 450 569 469 617 457 597 b 381 361 428 487 405 418 b 315 235 358 305 335 263 b 262 193 294 207 276 193 b 233 246 243 193 233 211 b 242 331 233 268 236 297 b 261 440 247 366 254 402 b 283 533 267 468 274 499 b 299 608 294 576 299 601 b 287 638 299 621 295 631 b 244 647 279 644 265 647 b 165 629 208 647 182 641 b 126 569 149 617 136 597 b 81 385 105 505 90 443 b 67 194 71 328 67 264 b 106 51 67 137 80 89 b 208 -7 133 12 167 -7 b 314 45 245 -7 281 10 b 392 197 347 80 373 131 b 369 50 383 133 376 84 l 365 18 b 135 -184 266 -58 190 -125 b 24 -340 81 -243 44 -295 b -6 -474 4 -386 -6 -430 b 39 -588 -6 -521 9 -559 b 154 -632 69 -617 107 -632 b 372 -467 242 -632 315 -577 b 510 -15 428 -358 475 -207 l 776 164 b 807 196 790 173 800 184 b 817 246 813 208 817 225 b 806 290 817 263 813 278 z m 247 -417 b 169 -497 219 -470 193 -497 b 140 -482 156 -497 146 -492 b 131 -443 134 -472 131 -459 b 178 -313 131 -406 147 -363 b 333 -149 210 -264 262 -209 b 247 -417 305 -274 276 -363 z "},"z":{"ha":618,"x_min":0,"x_max":0,"o":"m 788 293 b 760 310 781 304 772 310 b 722 290 746 310 733 303 b 578 172 680 238 632 198 b 421 133 525 146 473 133 b 314 158 374 133 338 142 b 278 222 290 175 278 196 b 361 345 278 263 306 304 b 571 461 417 386 487 425 b 636 506 600 474 622 489 b 657 575 650 522 657 545 b 642 635 657 602 652 622 b 606 654 633 648 620 654 b 572 649 596 654 585 652 b 544 642 558 645 549 643 b 492 631 519 634 501 631 b 392 635 465 631 432 632 b 311 640 353 637 326 639 b 140 650 240 647 183 650 b 97 624 122 650 107 641 b 81 565 86 607 81 587 b 97 510 81 544 86 526 b 143 489 107 495 123 488 l 371 494 b 160 358 279 451 209 406 b 86 196 111 311 86 257 b 123 85 86 155 98 118 b 229 8 147 53 183 27 b 393 -21 275 -11 330 -21 b 610 28 474 -21 546 -5 b 772 161 675 60 729 105 b 799 247 790 184 799 213 b 788 293 799 267 795 282 z "},"{":{"ha":681,"x_min":0,"x_max":0,"o":"m 772 1274 b 664 1292 751 1286 715 1292 b 449 1231 575 1292 503 1271 b 351 1046 395 1190 363 1128 l 343 972 b 322 807 330 867 323 812 b 274 712 316 762 300 730 b 158 685 248 694 209 685 b 74 611 108 685 80 660 b 89 547 71 586 76 565 b 146 519 102 528 121 519 b 240 498 188 519 220 512 b 269 429 259 484 269 461 b 268 406 269 419 269 411 l 256 306 b 248 245 254 287 251 267 b 239 175 245 223 242 200 b 236 118 237 162 236 143 b 302 -67 236 38 258 -23 b 507 -132 346 -110 414 -132 b 625 -110 563 -132 602 -125 b 660 -46 648 -96 660 -75 b 636 6 660 -25 652 -8 b 574 26 620 19 600 26 b 454 49 516 26 476 34 b 421 128 432 63 421 90 b 422 154 421 139 421 148 b 442 307 424 175 431 225 l 454 393 b 457 440 456 415 457 431 b 368 600 457 519 427 572 b 507 781 450 634 496 694 l 511 818 b 533 1008 523 907 531 970 b 555 1083 536 1040 543 1065 b 611 1124 566 1102 585 1116 b 718 1138 637 1133 673 1138 b 781 1157 745 1138 766 1144 b 804 1204 797 1170 804 1186 b 772 1274 804 1238 794 1262 z "},"|":{"ha":453,"x_min":0,"x_max":0,"o":"m 60 -409 b 119 -426 75 -421 94 -426 b 185 -409 144 -426 166 -421 b 217 -350 203 -397 214 -378 b 328 438 237 -175 274 88 b 355 615 331 463 341 522 b 399 910 369 707 384 805 b 439 1225 413 1016 427 1120 b 363 1299 444 1274 419 1299 b 297 1282 338 1299 316 1293 b 265 1225 279 1271 268 1252 b 232 959 256 1144 245 1056 b 186 645 219 862 204 758 b 154 438 169 533 158 463 b 43 -350 100 88 63 -175 b 60 -409 40 -378 46 -397 z "},"}":{"ha":681,"x_min":0,"x_max":0,"o":"m 661 656 b 604 683 648 674 629 683 b 510 705 562 683 530 691 b 481 774 491 719 481 742 b 482 797 481 784 481 792 b 493 882 488 845 492 874 b 506 985 500 931 504 965 b 508 1042 507 998 508 1017 b 442 1226 508 1121 486 1183 b 238 1292 398 1270 330 1292 b 119 1270 182 1292 143 1284 b 85 1206 96 1256 85 1234 b 108 1154 85 1185 93 1168 b 171 1133 124 1140 145 1133 b 290 1111 228 1133 268 1126 b 324 1032 313 1096 324 1070 b 322 1006 324 1021 323 1012 b 307 886 319 976 314 936 b 296 810 306 883 302 858 b 293 762 294 787 293 772 b 382 603 293 684 323 631 b 243 422 300 569 254 508 l 237 375 b 211 151 224 279 215 204 b 190 76 208 120 201 95 b 133 35 178 58 159 44 b 26 22 107 27 72 22 b -37 3 0 22 -22 16 b -60 -44 -52 -10 -60 -26 b -28 -114 -60 -79 -49 -102 b 81 -132 -6 -126 30 -132 b 295 -71 169 -132 241 -112 b 393 114 349 -30 382 31 l 401 181 b 428 396 413 281 422 353 b 476 491 434 441 450 473 b 592 518 502 509 541 518 b 676 592 642 518 670 543 b 661 656 679 617 674 638 z "},"~":{"ha":972,"x_min":0,"x_max":0,"o":"m 617 238 b 664 229 631 232 646 229 b 749 256 694 229 723 238 b 826 342 775 274 800 303 b 885 476 865 401 885 446 b 867 522 885 496 879 511 b 822 538 855 532 840 538 b 776 525 806 538 791 533 b 738 492 760 517 748 506 l 661 382 l 442 511 b 374 547 412 529 389 541 b 324 557 358 554 341 557 b 240 530 293 557 265 548 b 164 444 214 512 189 483 b 106 310 125 385 106 340 b 124 265 106 290 112 275 b 168 249 136 254 150 249 b 215 261 184 249 199 253 b 253 294 230 269 243 281 l 329 404 l 549 275 b 617 238 580 256 603 244 z "}," ":{"ha":368,"x_min":0,"x_max":0,"o":""},"¡":{"ha":472,"x_min":0,"x_max":0,"o":"m 199 319 b 292 289 220 299 251 289 b 391 326 334 289 367 301 b 426 426 415 351 426 385 b 395 514 426 463 416 492 b 303 547 374 536 344 547 b 204 509 261 547 228 534 b 168 407 180 484 168 450 b 199 319 168 368 178 339 z m -16 -522 b 53 -536 -3 -531 20 -536 b 133 -515 86 -536 113 -529 b 174 -447 153 -500 166 -478 b 249 -103 197 -351 222 -236 b 312 250 275 29 297 147 l 314 261 b 296 300 314 279 308 292 b 250 313 284 308 269 313 b 178 268 212 313 188 298 b 64 -95 142 165 104 44 b -32 -451 24 -234 -8 -353 b -36 -481 -35 -462 -36 -472 b -16 -522 -36 -499 -29 -513 z "},"¢":{"ha":647,"x_min":0,"x_max":0,"o":"m 594 247 b 565 263 587 257 577 263 b 528 242 551 263 539 256 b 451 160 500 205 474 177 b 368 129 427 142 400 132 l 389 308 l 414 487 b 448 474 431 485 442 480 b 457 446 454 467 457 458 b 450 407 457 434 455 421 b 446 389 449 403 448 397 b 443 367 444 381 443 373 b 459 332 443 352 448 340 b 501 319 470 324 484 319 b 569 360 529 319 552 333 b 594 458 586 387 594 419 b 554 565 594 501 581 536 b 431 617 527 593 486 610 l 450 757 b 440 788 452 770 448 780 b 406 800 431 796 419 800 b 370 789 393 800 381 796 b 353 757 359 781 354 771 l 336 617 b 194 560 283 609 236 590 b 97 440 153 529 120 489 b 61 274 73 390 61 335 b 116 98 61 207 79 148 b 260 0 153 47 200 15 l 240 -142 b 250 -174 238 -156 242 -166 b 282 -186 258 -182 269 -186 b 318 -174 295 -186 307 -182 b 338 -142 329 -166 336 -156 l 353 -6 b 581 119 456 2 531 44 b 604 206 596 144 604 172 b 594 247 604 222 601 236 z m 279 147 b 222 281 241 172 222 217 b 247 410 222 332 230 376 b 321 481 263 445 288 469 l 300 308 z "},"£":{"ha":729,"x_min":0,"x_max":0,"o":"m 363 621 b 471 678 394 659 430 678 b 560 611 517 678 547 656 b 647 532 575 558 605 532 b 707 554 673 532 693 539 b 728 617 721 569 728 590 b 697 715 728 653 718 686 b 610 785 677 745 648 768 b 481 811 573 803 530 811 b 245 721 384 811 306 781 b 140 472 184 661 150 578 l 136 429 l 89 431 b 52 413 73 431 61 426 b 39 371 43 401 39 387 b 49 335 39 357 42 345 b 79 321 56 326 66 321 l 128 322 l 115 175 b 51 144 87 169 65 159 b 29 76 36 128 29 106 b 44 15 29 50 34 29 b 81 -7 53 0 66 -7 b 136 6 94 -7 113 -3 b 164 14 139 6 148 9 b 208 21 180 19 194 21 b 406 11 249 21 315 18 b 509 6 426 10 460 8 b 619 1 558 3 594 1 b 681 31 645 1 666 11 b 704 99 697 51 704 74 b 689 150 704 119 699 136 b 644 169 679 164 664 170 l 285 160 l 299 322 l 503 321 b 540 341 519 321 531 328 b 554 386 550 354 554 369 b 544 419 554 399 551 410 b 517 433 538 429 529 433 l 307 428 l 308 450 b 363 621 314 526 332 583 z "},"¤":{"ha":972,"x_min":0,"x_max":0,"o":"m 232 74 b 268 89 246 74 258 79 l 340 161 b 496 115 387 131 438 115 b 651 161 553 115 605 131 l 724 89 b 760 74 734 79 746 74 b 803 92 775 74 790 80 b 822 135 816 105 822 119 b 806 172 822 149 817 161 l 735 243 b 782 401 766 292 782 345 b 736 557 782 459 767 511 l 807 628 b 822 662 817 638 822 650 b 803 706 822 678 816 693 b 761 725 791 719 777 725 b 725 710 747 725 735 720 l 654 640 b 496 687 605 672 552 687 b 337 639 437 687 385 671 l 267 710 b 231 726 256 721 244 726 b 188 707 215 726 201 720 b 169 664 176 694 169 680 b 185 628 169 650 175 638 l 256 557 b 210 401 225 511 210 459 b 257 243 210 345 225 292 l 186 172 b 169 135 175 161 169 149 b 189 92 169 119 176 105 b 232 74 202 80 216 74 z m 612 285 b 496 237 584 253 545 237 b 379 285 447 237 408 253 b 336 401 350 317 336 356 b 379 517 336 447 350 485 b 496 565 408 549 447 565 b 612 517 545 565 584 549 b 656 401 641 485 656 447 b 612 285 656 356 641 317 z "},"¥":{"ha":690,"x_min":0,"x_max":0,"o":"m 724 796 b 672 807 710 803 693 807 b 613 797 648 807 628 803 b 571 758 598 790 584 777 l 369 468 l 222 757 b 135 810 204 792 175 810 b 73 793 110 810 89 804 b 49 743 57 782 49 765 b 71 672 49 721 56 697 l 238 375 l 117 378 b 81 363 102 379 90 374 b 68 325 72 351 68 339 b 78 297 68 314 71 305 b 106 286 84 290 94 286 l 254 288 l 247 228 l 104 229 b 68 212 89 229 77 223 b 54 174 59 200 54 188 b 64 147 54 163 57 153 b 92 136 70 140 80 136 l 236 139 l 228 74 l 226 60 b 249 10 226 38 234 21 b 314 -7 265 -1 286 -7 b 411 64 373 -7 406 17 l 419 140 l 572 138 b 610 153 588 137 600 142 b 624 190 619 164 624 176 b 613 219 624 201 620 211 b 585 231 606 227 597 231 l 429 229 l 435 286 l 586 285 b 623 300 602 285 614 290 b 636 336 632 310 636 322 b 626 365 636 347 633 357 b 597 376 619 372 609 376 l 478 375 l 718 697 b 746 761 737 722 746 744 b 724 796 746 777 739 788 z "},"¦":{"ha":453,"x_min":0,"x_max":0,"o":"m 201 562 b 257 547 216 552 235 547 b 322 565 282 547 303 553 b 354 624 340 576 350 596 l 439 1225 b 440 1239 440 1229 440 1233 b 363 1299 440 1279 414 1299 b 298 1282 338 1299 316 1293 b 265 1225 280 1271 269 1252 l 181 624 b 179 608 180 620 179 615 b 201 562 179 587 187 572 z m 64 -413 b 119 -426 79 -422 97 -426 b 184 -409 144 -426 166 -421 b 217 -350 202 -397 213 -378 l 301 251 b 303 265 302 255 303 260 b 225 325 303 305 277 325 b 160 308 200 325 178 319 b 128 251 142 297 131 278 l 43 -350 b 42 -365 42 -354 42 -359 b 64 -413 42 -388 49 -403 z "},"§":{"ha":843,"x_min":0,"x_max":0,"o":"m 633 856 b 679 839 645 844 661 839 b 755 871 714 839 740 850 b 778 971 770 892 778 925 b 712 1120 778 1036 756 1085 b 519 1172 668 1155 604 1172 b 358 1140 458 1172 405 1162 b 251 1051 312 1119 276 1089 b 214 918 226 1012 214 968 b 258 782 214 864 229 819 b 158 585 192 732 158 666 b 219 430 158 518 179 466 b 385 336 260 393 315 362 b 468 301 422 322 450 311 b 512 266 487 292 501 280 b 529 211 524 252 529 233 b 494 142 529 181 518 159 b 394 118 471 126 438 118 b 296 137 356 118 323 125 b 256 196 269 150 256 170 b 258 233 256 206 256 219 l 260 269 b 242 306 260 284 254 297 b 196 321 230 316 214 321 b 122 291 163 321 139 311 b 97 204 106 271 97 242 b 176 44 97 132 123 79 b 385 -7 228 10 298 -7 b 609 56 478 -7 553 14 b 693 235 665 98 693 158 b 646 369 693 288 677 333 b 719 449 676 392 701 418 b 746 554 737 480 746 515 b 705 682 746 607 732 650 b 564 775 678 714 631 745 b 456 826 515 796 479 813 b 400 871 434 838 415 853 b 378 935 385 888 378 910 b 414 1017 378 970 390 997 b 514 1047 438 1037 471 1047 b 621 971 585 1047 621 1022 b 618 931 621 959 620 945 b 615 896 616 916 615 904 b 633 856 615 880 621 867 z m 554 595 b 589 529 577 578 589 556 b 542 442 589 492 573 463 b 475 471 519 453 497 462 l 447 483 b 348 542 404 503 371 522 b 314 618 325 561 314 587 b 347 706 314 654 325 683 b 443 657 364 696 396 680 b 554 595 494 633 531 612 z "},"¨":{"ha":833,"x_min":0,"x_max":0,"o":"m 213 763 b 282 739 229 747 252 739 b 362 770 315 739 342 749 b 392 857 382 791 392 820 b 367 933 392 891 383 916 b 297 957 350 949 327 957 b 217 926 264 957 237 947 b 188 839 197 905 188 876 b 213 763 188 805 196 779 z m 501 763 b 571 739 518 747 541 739 b 651 770 604 739 631 749 b 681 857 671 791 681 820 b 656 933 681 891 672 916 b 586 957 639 949 616 957 b 506 926 553 957 526 947 b 476 839 486 905 476 876 b 501 763 476 805 485 779 z "},"©":{"ha":899,"x_min":0,"x_max":0,"o":"m 311 544 b 519 490 372 508 442 490 b 728 544 597 490 667 508 b 872 691 789 581 837 629 b 924 894 906 753 924 820 b 872 1098 924 969 906 1036 b 728 1244 837 1159 789 1208 b 519 1299 667 1281 597 1299 b 311 1244 442 1299 372 1281 b 167 1098 250 1208 202 1159 b 115 894 133 1036 115 969 b 167 691 115 820 133 753 b 311 544 202 629 250 581 z m 679 624 b 519 582 634 596 581 582 b 360 624 458 582 405 596 b 256 738 314 653 280 691 b 219 894 231 786 219 838 b 256 1051 219 951 231 1003 b 360 1165 280 1098 314 1136 b 519 1207 405 1193 458 1207 b 679 1165 581 1207 634 1193 b 783 1051 725 1136 759 1098 b 819 894 807 1003 819 951 b 783 738 819 838 807 786 b 679 624 759 691 725 653 z m 367 719 b 510 661 404 680 451 661 b 672 732 576 661 631 685 b 688 775 682 745 688 759 b 683 799 688 784 686 792 b 668 808 679 805 675 808 b 651 800 664 808 659 806 b 589 757 630 781 609 766 b 522 743 569 748 546 743 b 438 782 486 743 458 756 b 408 885 418 808 408 842 b 450 1013 408 936 422 978 b 553 1064 478 1047 512 1064 b 585 1053 567 1064 577 1060 b 596 1026 592 1047 596 1038 b 592 1003 596 1022 595 1014 b 589 981 590 992 589 984 b 598 959 589 971 592 964 b 624 951 604 954 613 951 b 685 1028 664 951 685 977 b 651 1110 685 1062 674 1090 b 553 1142 629 1131 596 1142 b 431 1107 508 1142 468 1130 b 344 1011 395 1084 366 1052 b 311 875 322 970 311 925 b 367 719 311 809 330 757 z "},"ª":{"ha":546,"x_min":0,"x_max":0,"o":"m 151 677 b 267 625 180 642 219 625 b 390 725 325 625 366 658 b 405 649 388 690 392 664 b 467 625 417 633 438 625 b 533 644 498 625 520 631 b 553 708 546 656 553 678 b 560 850 553 761 555 808 b 579 986 564 892 571 937 b 592 1079 588 1032 592 1063 b 524 1132 592 1114 569 1132 b 475 1128 502 1132 486 1131 b 461 1164 471 1145 467 1157 b 426 1174 456 1170 444 1174 b 269 1123 370 1174 317 1157 b 152 990 220 1089 181 1045 b 108 814 123 934 108 876 b 151 677 108 757 123 712 z m 370 788 b 313 743 353 758 334 743 b 277 760 298 743 286 749 b 264 813 268 772 264 789 b 288 935 264 856 272 897 b 353 1028 304 974 326 1005 b 440 1065 380 1052 409 1064 l 418 949 b 370 788 403 872 387 818 z "},"«":{"ha":854,"x_min":0,"x_max":0,"o":"m 89 238 l 285 72 b 325 58 295 63 308 58 b 387 83 347 58 368 67 b 415 138 406 100 415 118 b 394 179 415 154 408 168 l 214 333 l 393 457 b 425 513 414 472 425 490 b 402 565 425 532 417 549 b 347 588 387 580 369 588 b 297 571 331 588 314 582 l 76 421 b 47 383 63 413 54 400 b 38 329 41 367 38 349 b 89 238 38 297 55 266 z m 458 238 l 653 72 b 693 58 663 63 676 58 b 755 83 715 58 736 67 b 783 138 774 100 783 118 b 763 179 783 154 776 168 l 582 333 l 761 457 b 794 514 783 472 794 491 b 772 565 794 533 787 550 b 717 588 756 580 738 588 b 667 571 700 588 683 582 l 444 421 b 415 383 431 413 422 400 b 406 329 409 367 406 349 b 458 238 406 298 423 267 z "},"¬":{"ha":972,"x_min":0,"x_max":0,"o":"m 808 60 b 838 108 825 71 835 87 l 872 375 b 874 394 873 380 874 386 b 851 456 874 419 866 440 b 785 479 835 471 813 479 l 200 479 b 138 451 174 479 153 470 b 115 389 123 433 115 412 b 132 341 115 370 121 354 b 181 321 143 328 159 321 l 697 321 l 669 119 b 690 64 666 96 672 78 b 751 43 707 50 727 43 b 808 60 773 43 792 49 z "},"­":{"ha":560,"x_min":0,"x_max":0,"o":"m 99 361 b 153 342 113 346 131 340 l 438 369 b 510 451 486 374 510 401 b 491 510 510 477 503 497 b 438 528 478 524 461 530 l 153 500 b 98 479 129 498 110 491 b 79 424 85 467 79 449 b 99 361 79 397 86 376 z "},"®":{"ha":899,"x_min":0,"x_max":0,"o":"m 311 544 b 519 490 372 508 442 490 b 728 544 597 490 667 508 b 872 691 789 581 837 629 b 924 894 906 753 924 820 b 872 1098 924 969 906 1036 b 728 1244 837 1159 789 1208 b 519 1299 667 1281 597 1299 b 311 1244 442 1299 372 1281 b 167 1098 250 1208 202 1159 b 115 894 133 1036 115 969 b 167 691 115 820 133 753 b 311 544 202 629 250 581 z m 679 624 b 519 582 634 596 581 582 b 360 624 458 582 405 596 b 256 738 314 653 280 691 b 219 894 231 786 219 838 b 256 1051 219 951 231 1003 b 360 1165 280 1098 314 1136 b 519 1207 405 1193 458 1207 b 679 1165 581 1207 634 1193 b 783 1051 725 1136 759 1098 b 819 894 807 1003 819 951 b 783 738 819 838 807 786 b 679 624 759 691 725 653 z m 587 672 b 624 664 596 667 608 664 b 654 674 634 664 644 667 b 669 697 664 680 669 688 b 660 725 669 706 666 716 b 631 772 652 735 643 751 l 615 800 b 582 846 603 820 592 836 b 539 868 572 856 557 863 b 652 924 590 877 628 896 b 689 1015 677 951 689 982 b 640 1110 689 1054 672 1086 b 503 1147 607 1135 561 1147 b 432 1140 479 1147 455 1145 b 378 1119 409 1134 391 1128 b 358 1087 365 1110 358 1100 b 367 1067 358 1079 361 1072 b 387 1065 373 1062 380 1062 l 408 1074 b 399 1008 401 1020 398 998 b 394 976 397 998 395 987 b 388 943 392 965 390 954 l 375 869 l 365 808 b 350 700 355 751 350 715 b 363 675 350 690 354 681 b 396 665 372 669 383 665 b 427 674 411 665 421 668 b 439 706 433 680 437 691 b 460 847 444 751 450 798 b 494 829 474 846 485 840 b 529 767 503 818 514 797 b 563 698 545 732 556 709 b 587 672 570 686 578 678 z m 563 940 b 472 911 542 922 512 912 l 476 944 b 499 1079 479 965 487 1010 b 572 1063 532 1079 556 1074 b 594 1014 587 1053 594 1036 b 563 940 594 983 584 959 z "},"¯":{"ha":833,"x_min":0,"x_max":0,"o":"m 216 754 b 263 739 227 744 242 739 l 572 739 b 626 759 595 739 613 746 b 646 815 639 772 646 791 b 630 855 646 832 641 845 b 583 869 619 865 604 869 l 274 869 b 219 850 250 869 232 863 b 200 797 206 837 200 819 b 216 754 200 779 205 764 z "},"°":{"ha":535,"x_min":0,"x_max":0,"o":"m 238 768 b 336 744 268 752 301 744 b 444 772 374 744 410 753 b 526 850 478 790 505 816 b 557 971 547 884 557 925 b 528 1080 557 1013 547 1049 b 453 1150 509 1111 484 1134 b 354 1174 422 1166 389 1174 b 247 1147 316 1174 281 1165 b 166 1067 214 1128 187 1102 b 135 947 145 1033 135 993 b 163 837 135 905 144 868 b 238 768 182 807 207 784 z m 405 891 b 342 862 388 872 367 862 b 285 887 320 862 301 871 b 260 954 268 904 260 926 b 286 1028 260 985 269 1009 b 349 1056 304 1046 325 1056 b 406 1031 371 1056 390 1047 b 431 965 422 1014 431 992 b 405 891 431 935 422 910 z "},"±":{"ha":972,"x_min":0,"x_max":0,"o":"m 818 571 b 769 590 807 584 791 590 l 597 590 l 615 733 b 599 788 619 756 614 775 b 544 807 585 800 567 807 b 487 788 523 807 504 800 b 457 733 470 775 460 756 l 439 590 l 269 590 b 208 563 244 590 223 581 b 185 500 192 544 185 523 b 201 452 185 481 190 466 b 250 432 213 439 229 432 l 421 432 l 403 289 b 419 233 400 265 405 246 b 471 214 432 220 450 214 b 530 233 493 214 513 220 b 561 289 547 246 557 265 l 579 432 l 750 432 b 812 460 776 432 797 441 b 835 524 827 479 835 500 b 818 571 835 542 829 558 z m 764 139 b 715 158 753 152 737 158 l 215 158 b 153 131 189 158 169 149 b 131 68 138 112 131 91 b 147 20 131 50 136 34 b 196 0 158 7 175 0 l 696 0 b 758 28 722 0 742 9 b 781 92 773 47 781 69 b 764 139 781 110 775 126 z "},"²":{"ha":625,"x_min":0,"x_max":0,"o":"m 616 617 b 579 635 607 629 595 635 l 329 631 b 540 797 421 679 491 734 b 613 976 588 859 613 919 b 553 1121 613 1038 593 1086 b 390 1174 514 1156 460 1174 b 244 1144 333 1174 284 1164 b 153 1066 203 1125 173 1099 b 122 960 132 1033 122 998 b 140 906 122 936 128 918 b 192 888 152 894 169 888 b 260 956 237 888 260 910 b 290 1028 260 986 270 1010 b 372 1054 311 1045 338 1054 b 427 1033 396 1054 415 1047 b 446 974 440 1019 446 1000 b 406 854 446 936 432 896 b 299 738 379 813 343 774 b 153 649 254 701 206 672 b 99 612 129 638 111 625 b 81 556 87 598 81 580 b 93 505 81 533 85 516 b 124 488 101 493 112 488 b 174 499 135 488 151 491 b 194 504 177 500 184 501 b 219 508 205 507 213 508 b 393 500 248 508 306 506 b 476 496 413 499 440 498 b 558 493 513 494 540 493 b 610 518 580 493 597 501 b 629 575 623 535 629 554 b 616 617 629 592 625 606 z "},"³":{"ha":625,"x_min":0,"x_max":0,"o":"m 574 779 b 475 828 547 806 514 822 b 585 899 520 844 557 867 b 628 1003 614 931 628 966 b 569 1131 628 1059 608 1102 b 399 1174 529 1159 473 1174 b 259 1148 346 1174 299 1165 b 167 1081 219 1131 188 1108 b 135 993 145 1053 135 1024 b 151 944 135 973 140 956 b 200 926 163 932 179 926 b 242 940 218 926 231 931 b 267 985 252 948 260 963 b 381 1054 280 1031 318 1054 b 440 1039 406 1054 426 1049 b 460 997 453 1029 460 1015 b 428 919 460 967 449 941 b 325 874 406 897 372 882 b 290 857 308 871 297 865 b 281 817 284 849 281 835 b 293 780 281 803 285 791 b 329 762 301 769 313 763 b 418 739 369 759 399 751 b 447 682 438 727 447 708 b 415 629 447 659 437 641 b 340 611 394 617 369 611 b 263 626 305 611 279 616 b 228 668 246 637 234 650 b 203 714 219 690 211 706 b 165 726 196 722 183 726 b 115 705 144 726 127 719 b 97 646 103 691 97 671 b 160 535 97 601 118 565 b 350 492 203 506 266 492 b 539 540 425 492 488 508 b 615 676 590 573 615 618 b 574 779 615 718 602 752 z "},"´":{"ha":833,"x_min":0,"x_max":0,"o":"m 387 753 b 421 739 397 744 408 739 b 465 763 438 739 453 747 l 644 993 b 675 1071 665 1019 675 1045 b 648 1133 675 1096 666 1117 b 586 1158 630 1150 609 1158 b 541 1145 569 1158 554 1154 b 508 1104 528 1136 517 1123 l 379 815 b 372 789 375 804 372 795 b 387 753 372 775 377 763 z "},"µ":{"ha":642,"x_min":0,"x_max":0,"o":"m 60 -353 b 119 -368 74 -363 94 -368 b 182 -350 144 -368 164 -362 b 208 -287 200 -338 208 -317 l 207 -182 b 210 -7 207 -114 208 -56 b 313 46 248 -5 282 13 b 381 189 343 79 366 127 b 412 44 381 127 391 79 b 510 -7 433 10 465 -7 b 666 40 568 -7 620 9 b 794 161 712 72 755 112 b 821 247 812 181 821 210 b 810 293 821 267 817 282 b 782 310 803 304 794 310 b 744 290 768 310 756 303 b 642 180 702 239 668 203 b 576 146 617 157 595 146 b 547 160 564 146 555 151 b 536 201 540 170 536 184 b 575 421 536 229 549 302 b 610 611 598 525 610 588 b 597 640 610 625 606 634 b 553 647 589 645 574 647 b 484 629 522 647 499 641 b 450 569 469 617 457 597 b 381 361 428 487 405 418 b 315 235 358 305 335 263 b 263 193 294 207 276 193 b 240 205 252 193 245 197 b 233 246 236 213 233 226 b 261 440 233 278 243 343 b 283 533 267 468 274 499 b 299 608 294 576 299 601 b 287 638 299 621 295 631 b 244 647 279 644 265 647 b 165 629 208 647 182 641 b 126 569 149 617 136 597 b 63 231 98 482 76 369 b 39 -300 47 82 39 -94 b 60 -353 39 -325 46 -343 z "},"¶":{"ha":1026,"x_min":0,"x_max":0,"o":"m 351 15 b 422 -7 365 0 389 -7 b 494 16 454 -7 478 1 b 524 90 511 31 521 56 b 545 280 527 135 534 198 b 576 496 556 362 566 434 l 607 678 b 665 994 631 825 650 931 l 725 994 b 771 943 756 994 771 977 b 769 926 771 936 770 930 b 733 675 754 809 742 725 l 701 493 l 696 457 b 656 212 678 354 665 272 b 643 76 647 151 643 106 b 736 -7 643 21 674 -7 b 808 16 768 -7 792 1 b 838 90 825 31 835 56 b 859 280 841 135 848 198 b 890 496 870 362 880 434 l 921 678 l 940 792 b 974 1013 963 921 974 995 b 928 1119 974 1059 959 1094 b 803 1168 898 1143 857 1160 b 597 1181 750 1176 681 1181 b 263 1103 456 1181 345 1155 b 139 878 180 1051 139 976 b 184 738 139 823 154 776 b 293 650 214 699 250 669 b 410 621 336 631 375 621 b 403 578 406 602 404 588 b 388 493 395 544 390 516 l 382 457 b 342 212 364 354 351 272 b 329 76 334 151 329 106 b 351 15 329 50 336 29 z "},"·":{"ha":357,"x_min":0,"x_max":0,"o":"m 97 238 b 189 204 117 215 148 204 b 288 242 231 204 263 217 b 324 344 312 268 324 302 b 292 433 324 383 313 413 b 200 463 272 453 241 463 b 101 425 157 463 124 450 b 65 325 77 400 65 367 b 97 238 65 289 76 260 z "},"¸":{"ha":833,"x_min":0,"x_max":0,"o":"m 135 -340 b 221 -347 157 -345 186 -347 b 359 -318 274 -347 320 -337 b 449 -237 398 -299 428 -272 b 481 -119 470 -202 481 -163 b 424 8 481 -65 462 -22 b 271 54 386 39 335 54 l 235 54 b 183 41 212 54 194 50 b 161 0 172 32 165 19 b 160 -12 160 -3 160 -7 b 179 -46 160 -28 166 -39 b 235 -56 192 -52 211 -56 b 316 -76 269 -56 296 -62 b 346 -131 336 -89 346 -107 b 315 -201 346 -162 335 -185 b 228 -224 294 -216 265 -224 b 154 -218 204 -224 179 -222 b 136 -217 150 -217 144 -217 b 81 -279 99 -217 81 -237 b 135 -340 81 -313 99 -334 z "},"¹":{"ha":625,"x_min":0,"x_max":0,"o":"m 308 510 b 363 490 323 497 341 490 b 454 563 418 490 449 514 b 525 1076 489 846 513 1017 b 528 1106 527 1091 528 1101 b 458 1174 528 1151 505 1174 b 407 1167 440 1174 423 1171 l 358 1154 b 221 1112 296 1138 250 1123 b 163 1080 191 1100 172 1090 b 146 1044 153 1070 148 1058 b 156 998 144 1028 147 1012 b 190 976 164 984 175 976 b 206 979 193 976 198 977 l 351 1022 b 321 824 343 976 333 910 b 290 575 309 738 299 655 b 308 510 288 545 294 524 z "},"º":{"ha":567,"x_min":0,"x_max":0,"o":"m 215 660 b 336 626 247 638 288 626 b 467 665 384 626 428 639 b 560 774 507 691 538 727 b 594 931 583 820 594 872 b 569 1050 594 973 586 1013 b 494 1140 553 1087 528 1117 b 372 1174 461 1162 420 1174 b 240 1135 323 1174 279 1161 b 149 1028 201 1110 171 1074 b 115 869 126 981 115 929 b 140 750 115 827 124 787 b 215 660 157 713 182 683 z m 415 794 b 349 751 397 766 375 751 b 291 783 325 751 306 762 b 268 881 276 803 268 836 b 295 1006 268 936 277 978 b 364 1049 313 1034 336 1049 b 419 1016 385 1049 403 1038 b 442 919 434 994 442 962 b 415 794 442 865 433 823 z "},"»":{"ha":854,"x_min":0,"x_max":0,"o":"m 139 58 b 189 75 156 58 172 64 l 411 225 b 440 263 424 233 434 246 b 450 317 447 279 450 297 b 397 408 450 348 432 379 l 203 574 b 163 588 193 583 179 588 b 101 563 140 588 120 579 b 72 508 82 546 72 528 b 93 467 72 492 79 478 l 274 313 l 94 189 b 61 132 72 174 61 155 b 84 81 61 112 69 95 b 139 58 99 66 118 58 z m 508 58 b 558 75 525 58 542 64 l 779 225 b 808 262 792 233 802 246 b 818 317 815 279 818 297 b 767 408 818 349 801 380 l 571 574 b 531 587 561 583 547 587 b 469 562 508 587 488 579 b 440 508 450 546 440 528 b 461 467 440 492 447 478 l 642 312 l 463 189 b 431 133 441 174 431 156 b 453 81 431 114 438 97 b 508 58 469 66 487 58 z "},"¼":{"ha":1326,"x_min":0,"x_max":0,"o":"m 308 510 b 363 490 323 497 341 490 b 454 563 418 490 449 514 b 525 1076 489 846 513 1017 b 528 1106 527 1091 528 1101 b 458 1174 528 1151 505 1174 b 407 1167 440 1174 423 1171 l 358 1154 b 221 1112 296 1138 250 1123 b 163 1080 191 1100 172 1090 b 146 1044 153 1070 148 1058 b 156 998 144 1028 147 1012 b 190 976 164 984 175 976 b 206 979 193 976 198 977 l 351 1022 b 321 824 343 976 333 910 b 290 575 309 738 299 655 b 308 510 288 545 294 524 z m 415 161 b 469 139 431 146 449 139 b 529 175 494 139 514 151 l 963 889 b 975 932 971 903 975 917 b 953 987 975 953 968 972 b 901 1011 938 1003 921 1011 b 826 960 872 1011 847 994 l 408 269 b 392 217 397 250 392 232 b 415 161 392 194 400 176 z m 1276 244 b 1231 258 1267 254 1252 258 l 1194 258 b 1231 456 1205 326 1217 392 b 1233 479 1232 467 1233 475 b 1168 531 1233 513 1212 531 b 1110 512 1143 531 1124 524 b 1079 456 1096 499 1086 481 b 1042 258 1065 404 1053 338 l 919 258 b 973 383 935 301 953 343 b 1053 540 993 424 1019 476 l 1078 586 b 1089 625 1085 601 1089 614 b 1076 656 1089 638 1084 648 b 1038 667 1067 663 1054 667 b 963 650 1003 667 978 661 b 918 593 947 639 932 620 b 765 256 848 461 797 348 b 758 213 761 243 758 228 b 780 151 758 188 766 167 b 828 126 794 134 810 126 b 1026 125 919 126 986 126 l 1021 68 l 1019 49 b 1081 -26 1019 -1 1040 -26 b 1149 -8 1112 -26 1135 -20 b 1172 64 1162 5 1170 29 b 1178 125 1174 92 1176 112 l 1194 125 b 1267 142 1228 125 1252 131 b 1290 203 1283 154 1290 174 b 1276 244 1290 221 1286 235 z "},"½":{"ha":1422,"x_min":0,"x_max":0,"o":"m 308 510 b 363 490 323 497 341 490 b 454 563 418 490 449 514 b 525 1076 489 846 513 1017 b 528 1106 527 1091 528 1101 b 458 1174 528 1151 505 1174 b 407 1167 440 1174 423 1171 l 358 1154 b 221 1112 296 1138 250 1123 b 163 1080 191 1100 172 1090 b 146 1044 153 1070 148 1058 b 156 998 144 1028 147 1012 b 190 976 164 984 175 976 b 206 979 193 976 198 977 l 351 1022 b 321 824 343 976 333 910 b 290 575 309 738 299 655 b 308 510 288 545 294 524 z m 415 161 b 469 139 431 146 449 139 b 529 175 494 139 514 151 l 963 889 b 975 932 971 903 975 917 b 953 987 975 953 968 972 b 901 1011 938 1003 921 1011 b 826 960 872 1011 847 994 l 408 269 b 392 217 397 250 392 232 b 415 161 392 194 400 176 z m 1352 110 b 1315 128 1343 122 1331 128 l 1065 124 b 1276 290 1157 172 1227 227 b 1349 469 1324 352 1349 412 b 1290 614 1349 531 1329 579 b 1126 667 1250 649 1196 667 b 980 637 1069 667 1020 657 b 889 559 940 618 909 592 b 858 453 869 526 858 491 b 876 399 858 429 864 411 b 928 381 888 387 906 381 b 996 449 973 381 996 403 b 1026 521 996 479 1006 503 b 1108 547 1047 538 1074 547 b 1163 526 1132 547 1151 540 b 1182 467 1176 512 1182 493 b 1142 347 1182 429 1169 389 b 1035 231 1115 306 1079 267 b 889 142 990 194 942 165 b 835 105 865 131 847 118 b 817 49 823 91 817 73 b 829 -2 817 26 821 9 b 860 -19 838 -14 848 -19 b 910 -8 871 -19 888 -16 b 931 -3 913 -7 920 -6 b 956 1 941 0 949 1 b 1129 -7 984 1 1042 -1 b 1213 -11 1149 -8 1176 -9 b 1294 -14 1249 -13 1276 -14 b 1346 11 1316 -14 1333 -6 b 1365 68 1359 28 1365 47 b 1352 110 1365 85 1361 99 z "},"¾":{"ha":1438,"x_min":0,"x_max":0,"o":"m 574 779 b 475 828 547 806 514 822 b 585 899 520 844 557 867 b 628 1003 614 931 628 966 b 569 1131 628 1059 608 1102 b 399 1174 529 1159 473 1174 b 259 1148 346 1174 299 1165 b 167 1081 219 1131 188 1108 b 135 993 145 1053 135 1024 b 151 944 135 973 140 956 b 200 926 163 932 179 926 b 242 940 218 926 231 931 b 267 985 252 948 260 963 b 381 1054 280 1031 318 1054 b 440 1039 406 1054 426 1049 b 460 997 453 1029 460 1015 b 428 919 460 967 449 941 b 325 874 406 897 372 882 b 290 857 308 871 297 865 b 281 817 284 849 281 835 b 293 780 281 803 285 791 b 329 762 301 769 313 763 b 418 739 369 759 399 751 b 447 682 438 727 447 708 b 415 629 447 659 437 641 b 340 611 394 617 369 611 b 263 626 305 611 279 616 b 228 668 246 637 234 650 b 203 714 219 690 211 706 b 165 726 196 722 183 726 b 115 705 144 726 127 719 b 97 646 103 691 97 671 b 160 535 97 601 118 565 b 350 492 203 506 266 492 b 539 540 425 492 488 508 b 615 676 590 573 615 618 b 574 779 615 718 602 752 z m 526 161 b 581 139 542 146 560 139 b 640 175 606 139 625 151 l 1074 889 b 1086 932 1082 903 1086 917 b 1064 987 1086 953 1079 972 b 1013 1011 1049 1003 1032 1011 b 938 960 983 1011 958 994 l 519 269 b 503 217 508 250 503 232 b 526 161 503 194 511 176 z m 1388 244 b 1342 258 1378 254 1363 258 l 1306 258 b 1342 456 1316 326 1328 392 b 1344 479 1344 467 1344 475 b 1279 531 1344 513 1323 531 b 1221 512 1254 531 1235 524 b 1190 456 1207 499 1197 481 b 1153 258 1176 404 1164 338 l 1031 258 b 1084 383 1046 301 1064 343 b 1164 540 1104 424 1131 476 l 1189 586 b 1200 625 1196 601 1200 614 b 1187 656 1200 638 1196 648 b 1149 667 1178 663 1165 667 b 1074 650 1114 667 1089 661 b 1029 593 1058 639 1043 620 b 876 256 959 461 908 348 b 869 212 872 243 869 228 b 891 151 869 187 877 167 b 939 126 905 134 921 126 b 1137 125 1031 126 1097 126 l 1132 68 l 1131 49 b 1192 -26 1131 -1 1151 -26 b 1260 -8 1223 -26 1246 -20 b 1283 64 1274 5 1281 29 b 1289 125 1285 92 1287 112 l 1306 125 b 1378 142 1339 125 1363 131 b 1401 203 1394 154 1401 174 b 1388 244 1401 221 1397 235 z "},"¿":{"ha":661,"x_min":0,"x_max":0,"o":"m 345 417 b 438 388 366 397 397 388 b 537 425 480 388 513 400 b 572 525 560 450 572 483 b 541 613 572 561 562 590 b 449 646 520 635 489 646 b 350 608 407 646 374 633 b 314 506 326 582 314 548 b 345 417 314 467 324 437 z m 15 -476 b 228 -535 65 -515 136 -535 b 399 -500 295 -535 352 -523 b 502 -408 445 -477 479 -446 b 536 -281 525 -369 536 -327 b 513 -208 536 -249 528 -225 b 447 -182 498 -191 476 -182 b 392 -199 422 -182 404 -188 b 375 -240 381 -211 375 -225 l 376 -297 b 343 -369 376 -326 365 -350 b 246 -397 321 -388 288 -397 b 139 -301 175 -397 139 -365 b 174 -189 139 -262 150 -225 b 287 -57 197 -153 235 -109 b 408 96 344 0 384 50 b 450 251 432 141 446 193 b 436 299 451 274 446 290 b 396 314 426 309 413 314 b 347 297 377 314 361 308 b 315 243 332 285 322 267 b 287 174 308 217 298 194 b 231 104 275 154 256 131 b 117 0 205 77 167 43 b -17 -147 57 -51 13 -100 b -61 -306 -46 -194 -61 -247 b 15 -476 -61 -380 -36 -436 z "},"À":{"ha":1092,"x_min":0,"x_max":0,"o":"m 244 40 b 417 -7 295 9 353 -7 b 719 208 550 -7 651 65 b 794 49 730 140 755 87 b 951 -7 834 12 887 -7 b 1111 36 1014 -7 1068 7 b 1244 161 1155 65 1199 106 b 1271 247 1262 182 1271 211 b 1260 293 1271 267 1267 282 b 1232 310 1253 304 1244 310 b 1194 290 1218 310 1206 303 b 1093 188 1154 242 1120 208 b 1008 158 1066 168 1038 158 b 940 192 978 158 955 170 b 918 301 925 215 918 251 b 948 549 918 358 928 441 b 1014 847 968 658 990 757 b 1018 875 1017 858 1018 868 b 919 939 1018 918 985 939 b 853 925 892 939 869 934 b 819 872 836 916 825 898 b 715 450 785 694 750 554 b 599 225 680 346 641 271 b 450 156 556 179 506 156 b 328 220 400 156 359 177 b 282 403 297 263 282 324 b 343 706 282 511 302 612 b 528 931 384 799 445 874 b 828 1017 610 988 710 1017 b 936 1009 866 1017 902 1014 b 1060 985 970 1004 1012 996 b 1076 983 1063 984 1069 983 b 1140 1015 1100 983 1122 994 b 1167 1083 1158 1037 1167 1059 b 1128 1139 1167 1113 1154 1131 b 995 1168 1088 1152 1044 1162 b 858 1178 947 1175 901 1178 b 435 1069 694 1178 552 1141 b 168 780 317 996 228 900 b 78 389 108 660 78 530 b 122 177 78 307 93 237 b 244 40 152 117 192 72 z m 786 1274 b 815 1267 794 1269 804 1267 b 853 1281 830 1267 843 1272 b 868 1317 863 1291 868 1303 b 842 1367 868 1335 859 1352 l 603 1571 b 542 1594 584 1587 564 1594 b 479 1569 518 1594 497 1586 b 453 1507 462 1552 453 1531 b 526 1408 453 1467 477 1434 z "},"Á":{"ha":1092,"x_min":0,"x_max":0,"o":"m 244 40 b 417 -7 295 9 353 -7 b 719 208 550 -7 651 65 b 794 49 730 140 755 87 b 951 -7 834 12 887 -7 b 1111 36 1014 -7 1068 7 b 1244 161 1155 65 1199 106 b 1271 247 1262 182 1271 211 b 1260 293 1271 267 1267 282 b 1232 310 1253 304 1244 310 b 1194 290 1218 310 1206 303 b 1093 188 1154 242 1120 208 b 1008 158 1066 168 1038 158 b 940 192 978 158 955 170 b 918 301 925 215 918 251 b 948 549 918 358 928 441 b 1014 847 968 658 990 757 b 1018 875 1017 858 1018 868 b 919 939 1018 918 985 939 b 853 925 892 939 869 934 b 819 872 836 916 825 898 b 715 450 785 694 750 554 b 599 225 680 346 641 271 b 450 156 556 179 506 156 b 328 220 400 156 359 177 b 282 403 297 263 282 324 b 343 706 282 511 302 612 b 528 931 384 799 445 874 b 828 1017 610 988 710 1017 b 936 1009 866 1017 902 1014 b 1060 985 970 1004 1012 996 b 1076 983 1063 984 1069 983 b 1140 1015 1100 983 1122 994 b 1167 1083 1158 1037 1167 1059 b 1128 1139 1167 1113 1154 1131 b 995 1168 1088 1152 1044 1162 b 858 1178 947 1175 901 1178 b 435 1069 694 1178 552 1141 b 168 780 317 996 228 900 b 78 389 108 660 78 530 b 122 177 78 307 93 237 b 244 40 152 117 192 72 z m 796 1281 b 833 1267 806 1272 819 1267 b 862 1274 844 1267 854 1269 l 1122 1408 b 1196 1507 1171 1434 1196 1467 b 1169 1569 1196 1531 1187 1552 b 1107 1594 1152 1586 1131 1594 b 1046 1571 1085 1594 1064 1587 l 807 1367 b 781 1317 789 1352 781 1335 b 796 1281 781 1303 786 1291 z "},"Â":{"ha":1092,"x_min":0,"x_max":0,"o":"m 244 40 b 417 -7 295 9 353 -7 b 719 208 550 -7 651 65 b 794 49 730 140 755 87 b 951 -7 834 12 887 -7 b 1111 36 1014 -7 1068 7 b 1244 161 1155 65 1199 106 b 1271 247 1262 182 1271 211 b 1260 293 1271 267 1267 282 b 1232 310 1253 304 1244 310 b 1194 290 1218 310 1206 303 b 1093 188 1154 242 1120 208 b 1008 158 1066 168 1038 158 b 940 192 978 158 955 170 b 918 301 925 215 918 251 b 948 549 918 358 928 441 b 1014 847 968 658 990 757 b 1018 875 1017 858 1018 868 b 919 939 1018 918 985 939 b 853 925 892 939 869 934 b 819 872 836 916 825 898 b 715 450 785 694 750 554 b 599 225 680 346 641 271 b 450 156 556 179 506 156 b 328 220 400 156 359 177 b 282 403 297 263 282 324 b 343 706 282 511 302 612 b 528 931 384 799 445 874 b 828 1017 610 988 710 1017 b 936 1009 866 1017 902 1014 b 1060 985 970 1004 1012 996 b 1076 983 1063 984 1069 983 b 1140 1015 1100 983 1122 994 b 1167 1083 1158 1037 1167 1059 b 1128 1139 1167 1113 1154 1131 b 995 1168 1088 1152 1044 1162 b 858 1178 947 1175 901 1178 b 435 1069 694 1178 552 1141 b 168 780 317 996 228 900 b 78 389 108 660 78 530 b 122 177 78 307 93 237 b 244 40 152 117 192 72 z m 867 1518 l 924 1317 b 951 1280 928 1301 937 1289 b 994 1267 964 1271 979 1267 b 1050 1287 1016 1267 1034 1273 b 1074 1340 1066 1300 1074 1318 b 1065 1379 1074 1352 1071 1365 l 1000 1547 b 953 1621 986 1581 971 1606 b 885 1643 936 1636 913 1643 b 739 1565 822 1643 773 1617 l 611 1375 b 593 1324 599 1356 593 1339 b 614 1281 593 1306 600 1292 b 664 1265 628 1271 644 1265 b 715 1279 681 1265 699 1270 b 756 1321 732 1288 745 1302 z "},"Ã":{"ha":1092,"x_min":0,"x_max":0,"o":"m 244 40 b 417 -7 295 9 353 -7 b 719 208 550 -7 651 65 b 794 49 730 140 755 87 b 951 -7 834 12 887 -7 b 1111 36 1014 -7 1068 7 b 1244 161 1155 65 1199 106 b 1271 247 1262 182 1271 211 b 1260 293 1271 267 1267 282 b 1232 310 1253 304 1244 310 b 1194 290 1218 310 1206 303 b 1093 188 1154 242 1120 208 b 1008 158 1066 168 1038 158 b 940 192 978 158 955 170 b 918 301 925 215 918 251 b 948 549 918 358 928 441 b 1014 847 968 658 990 757 b 1018 875 1017 858 1018 868 b 919 939 1018 918 985 939 b 853 925 892 939 869 934 b 819 872 836 916 825 898 b 715 450 785 694 750 554 b 599 225 680 346 641 271 b 450 156 556 179 506 156 b 328 220 400 156 359 177 b 282 403 297 263 282 324 b 343 706 282 511 302 612 b 528 931 384 799 445 874 b 828 1017 610 988 710 1017 b 936 1009 866 1017 902 1014 b 1060 985 970 1004 1012 996 b 1076 983 1063 984 1069 983 b 1140 1015 1100 983 1122 994 b 1167 1083 1158 1037 1167 1059 b 1128 1139 1167 1113 1154 1131 b 995 1168 1088 1152 1044 1162 b 858 1178 947 1175 901 1178 b 435 1069 694 1178 552 1141 b 168 780 317 996 228 900 b 78 389 108 660 78 530 b 122 177 78 307 93 237 b 244 40 152 117 192 72 z m 932 1274 b 974 1267 945 1269 959 1267 b 1046 1288 999 1267 1023 1274 b 1108 1356 1069 1303 1090 1325 b 1149 1427 1128 1388 1141 1412 b 1160 1468 1156 1442 1160 1456 b 1141 1508 1160 1486 1153 1499 b 1096 1522 1128 1518 1113 1522 b 1060 1515 1084 1522 1072 1520 b 1032 1492 1049 1509 1039 1502 l 971 1404 l 822 1507 b 773 1536 802 1522 785 1531 b 731 1543 760 1541 746 1543 b 596 1454 681 1543 637 1513 b 544 1342 562 1404 544 1367 b 563 1301 544 1324 551 1311 b 608 1287 576 1292 591 1287 b 644 1295 620 1287 632 1290 b 672 1318 655 1300 665 1308 l 733 1406 l 882 1303 b 932 1274 902 1289 919 1279 z "},"Ä":{"ha":1092,"x_min":0,"x_max":0,"o":"m 244 40 b 417 -7 295 9 353 -7 b 719 208 550 -7 651 65 b 794 49 730 140 755 87 b 951 -7 834 12 887 -7 b 1111 36 1014 -7 1068 7 b 1244 161 1155 65 1199 106 b 1271 247 1262 182 1271 211 b 1260 293 1271 267 1267 282 b 1232 310 1253 304 1244 310 b 1194 290 1218 310 1206 303 b 1093 188 1154 242 1120 208 b 1008 158 1066 168 1038 158 b 940 192 978 158 955 170 b 918 301 925 215 918 251 b 948 549 918 358 928 441 b 1014 847 968 658 990 757 b 1018 875 1017 858 1018 868 b 919 939 1018 918 985 939 b 853 925 892 939 869 934 b 819 872 836 916 825 898 b 715 450 785 694 750 554 b 599 225 680 346 641 271 b 450 156 556 179 506 156 b 328 220 400 156 359 177 b 282 403 297 263 282 324 b 343 706 282 511 302 612 b 528 931 384 799 445 874 b 828 1017 610 988 710 1017 b 936 1009 866 1017 902 1014 b 1060 985 970 1004 1012 996 b 1076 983 1063 984 1069 983 b 1140 1015 1100 983 1122 994 b 1167 1083 1158 1037 1167 1059 b 1128 1139 1167 1113 1154 1131 b 995 1168 1088 1152 1044 1162 b 858 1178 947 1175 901 1178 b 435 1069 694 1178 552 1141 b 168 780 317 996 228 900 b 78 389 108 660 78 530 b 122 177 78 307 93 237 b 244 40 152 117 192 72 z m 625 1292 b 696 1267 643 1275 666 1267 b 778 1299 730 1267 757 1277 b 808 1387 798 1320 808 1350 b 782 1465 808 1422 800 1447 b 711 1490 764 1482 741 1490 b 629 1458 677 1490 650 1480 b 599 1369 609 1437 599 1407 b 625 1292 599 1335 607 1309 z m 914 1292 b 985 1267 931 1275 955 1267 b 1067 1299 1019 1267 1046 1277 b 1097 1387 1087 1320 1097 1350 b 1071 1465 1097 1422 1088 1447 b 1000 1490 1053 1482 1030 1490 b 918 1458 966 1490 938 1480 b 887 1369 898 1437 887 1407 b 914 1292 887 1335 896 1309 z "},"Å":{"ha":1092,"x_min":0,"x_max":0,"o":"m 244 40 b 417 -7 295 9 353 -7 b 719 208 550 -7 651 65 b 794 49 730 140 755 87 b 951 -7 834 12 887 -7 b 1111 36 1014 -7 1068 7 b 1244 161 1155 65 1199 106 b 1271 247 1262 182 1271 211 b 1260 293 1271 267 1267 282 b 1232 310 1253 304 1244 310 b 1194 290 1218 310 1206 303 b 1093 188 1154 242 1120 208 b 1008 158 1066 168 1038 158 b 940 192 978 158 955 170 b 918 301 925 215 918 251 b 948 549 918 358 928 441 b 1014 847 968 658 990 757 b 1018 875 1017 858 1018 868 b 919 939 1018 918 985 939 b 853 925 892 939 869 934 b 819 872 836 916 825 898 b 715 450 785 694 750 554 b 599 225 680 346 641 271 b 450 156 556 179 506 156 b 328 220 400 156 359 177 b 282 403 297 263 282 324 b 343 706 282 511 302 612 b 528 931 384 799 445 874 b 828 1017 610 988 710 1017 b 936 1009 866 1017 902 1014 b 1060 985 970 1004 1012 996 b 1076 983 1063 984 1069 983 b 1140 1015 1100 983 1122 994 b 1167 1083 1158 1037 1167 1059 b 1128 1139 1167 1113 1154 1131 b 995 1168 1088 1152 1044 1162 b 858 1178 947 1175 901 1178 b 435 1069 694 1178 552 1141 b 168 780 317 996 228 900 b 78 389 108 660 78 530 b 122 177 78 307 93 237 b 244 40 152 117 192 72 z m 722 1316 b 849 1267 757 1283 800 1267 b 945 1292 883 1267 915 1275 b 1017 1363 975 1308 999 1332 b 1044 1472 1035 1394 1044 1431 b 992 1606 1044 1529 1027 1573 b 865 1656 956 1639 914 1656 b 769 1631 831 1656 799 1647 b 697 1559 739 1614 715 1590 b 669 1450 678 1528 669 1492 b 722 1316 669 1394 687 1349 z m 901 1410 b 854 1389 888 1396 873 1389 b 811 1408 838 1389 823 1395 b 793 1457 799 1420 793 1437 b 813 1512 793 1480 800 1499 b 860 1533 825 1526 841 1533 b 903 1515 876 1533 891 1527 b 921 1465 915 1502 921 1486 b 901 1410 921 1442 914 1424 z "},"Æ":{"ha":1410,"x_min":0,"x_max":0,"o":"m 1543 260 b 1515 253 1533 260 1524 257 b 1344 183 1451 221 1394 198 b 1197 160 1294 167 1245 160 b 938 381 1024 160 938 233 b 953 501 938 416 943 456 b 1154 507 1039 503 1106 505 l 1311 511 b 1378 541 1340 512 1362 522 b 1403 613 1395 560 1403 584 b 1387 663 1403 635 1397 652 b 1329 681 1376 675 1357 681 b 1078 674 1261 681 1177 678 b 986 671 1059 674 1029 673 b 1067 986 1018 814 1044 919 b 1209 996 1096 990 1144 993 b 1400 1000 1274 999 1338 1000 b 1475 1031 1433 1000 1458 1010 b 1500 1104 1492 1051 1500 1075 b 1481 1162 1500 1131 1494 1150 b 1411 1179 1468 1173 1444 1179 b 1136 1171 1344 1179 1253 1176 l 1064 1167 b 945 1125 1017 1165 977 1151 b 876 1010 913 1099 890 1061 l 764 599 b 635 270 725 456 682 347 b 450 156 589 194 527 156 b 328 220 400 156 359 177 b 282 403 297 263 282 324 b 338 694 282 508 301 605 b 506 911 376 782 432 855 b 776 1014 581 968 671 1002 b 816 1035 794 1016 807 1023 b 829 1083 825 1048 829 1064 b 739 1171 829 1142 799 1171 b 710 1169 727 1171 717 1170 b 385 1040 589 1155 481 1111 b 159 762 288 968 213 875 b 78 389 105 648 78 524 b 123 177 78 307 93 237 b 249 40 153 117 195 72 b 433 -7 302 9 364 -7 b 764 240 581 -7 691 75 b 894 60 784 165 828 105 b 1165 -7 961 16 1051 -7 b 1362 22 1228 -7 1294 3 b 1526 96 1430 42 1485 66 b 1572 145 1548 112 1563 128 b 1585 203 1580 162 1585 181 b 1574 244 1585 219 1581 233 b 1543 260 1566 254 1556 260 z "},"Ç":{"ha":953,"x_min":0,"x_max":0,"o":"m 1083 261 b 1049 253 1074 261 1063 258 b 844 183 974 221 905 198 b 661 160 782 167 721 160 b 386 251 540 160 448 190 b 293 508 324 311 293 397 b 344 784 293 615 310 707 b 479 960 379 861 424 920 b 654 1019 535 1000 593 1019 b 789 893 744 1019 789 977 b 781 826 789 876 786 854 b 775 781 777 804 775 789 b 797 728 775 757 782 740 b 858 710 812 716 832 710 b 944 761 895 710 924 727 b 974 897 964 795 974 841 b 896 1101 974 981 948 1049 b 668 1178 844 1152 768 1178 b 375 1091 561 1178 463 1149 b 166 846 287 1033 217 951 b 89 483 115 740 89 619 b 165 207 89 377 114 285 b 381 36 216 129 288 72 b 363 -12 369 24 363 8 b 382 -46 363 -28 369 -39 b 438 -56 395 -52 413 -56 b 519 -76 472 -56 499 -62 b 549 -131 539 -89 549 -107 b 517 -201 549 -162 538 -185 b 431 -224 497 -216 468 -224 b 357 -218 406 -224 382 -222 b 339 -217 352 -217 346 -217 b 297 -232 320 -217 306 -222 b 283 -281 288 -242 283 -258 b 297 -325 283 -300 288 -315 b 338 -346 305 -335 319 -342 b 424 -353 360 -350 388 -353 b 617 -288 505 -353 570 -331 b 689 -119 665 -245 689 -189 b 647 -7 689 -74 675 -37 b 1036 76 787 -3 917 25 b 1128 201 1097 103 1128 145 b 1117 244 1128 219 1124 233 b 1083 261 1109 256 1098 261 z "},"È":{"ha":953,"x_min":0,"x_max":0,"o":"m 1083 261 b 1049 253 1074 261 1063 258 b 828 187 988 227 914 205 b 585 160 743 169 662 160 b 329 203 468 160 383 174 b 249 333 275 233 249 276 b 283 430 249 368 260 400 b 392 504 305 460 342 485 b 583 536 443 524 506 534 b 667 629 639 537 667 568 b 654 671 667 649 662 663 b 611 685 646 679 631 684 b 437 731 531 688 472 703 b 383 839 401 759 383 795 b 454 974 383 895 407 940 b 643 1024 501 1007 564 1024 b 768 992 701 1024 743 1013 b 806 911 793 972 806 944 b 799 849 806 900 803 879 b 792 797 794 830 792 813 b 814 745 792 774 799 757 b 875 728 829 734 849 728 b 960 778 912 728 941 745 b 990 911 980 812 990 856 b 904 1103 990 990 962 1054 b 646 1178 847 1153 761 1178 b 411 1136 561 1178 482 1164 b 241 1017 340 1108 283 1069 b 178 840 199 966 178 907 b 222 707 178 791 192 747 b 347 624 251 667 293 639 b 120 502 247 599 172 558 b 43 299 69 446 43 378 b 101 142 43 240 62 188 b 276 33 139 95 198 59 b 569 -7 355 6 453 -7 b 826 16 654 -7 739 1 b 1039 78 913 31 984 52 b 1108 131 1071 94 1094 111 b 1128 201 1121 150 1128 174 b 1117 244 1128 219 1124 233 b 1083 261 1109 256 1098 261 z m 611 1274 b 640 1267 619 1269 629 1267 b 678 1281 655 1267 668 1272 b 693 1317 688 1291 693 1303 b 667 1367 693 1335 684 1352 l 428 1571 b 367 1594 409 1587 389 1594 b 304 1569 343 1594 322 1586 b 278 1507 287 1552 278 1531 b 351 1408 278 1467 302 1434 z "},"É":{"ha":953,"x_min":0,"x_max":0,"o":"m 1083 261 b 1049 253 1074 261 1063 258 b 828 187 988 227 914 205 b 585 160 743 169 662 160 b 329 203 468 160 383 174 b 249 333 275 233 249 276 b 283 430 249 368 260 400 b 392 504 305 460 342 485 b 583 536 443 524 506 534 b 667 629 639 537 667 568 b 654 671 667 649 662 663 b 611 685 646 679 631 684 b 437 731 531 688 472 703 b 383 839 401 759 383 795 b 454 974 383 895 407 940 b 643 1024 501 1007 564 1024 b 768 992 701 1024 743 1013 b 806 911 793 972 806 944 b 799 849 806 900 803 879 b 792 797 794 830 792 813 b 814 745 792 774 799 757 b 875 728 829 734 849 728 b 960 778 912 728 941 745 b 990 911 980 812 990 856 b 904 1103 990 990 962 1054 b 646 1178 847 1153 761 1178 b 411 1136 561 1178 482 1164 b 241 1017 340 1108 283 1069 b 178 840 199 966 178 907 b 222 707 178 791 192 747 b 347 624 251 667 293 639 b 120 502 247 599 172 558 b 43 299 69 446 43 378 b 101 142 43 240 62 188 b 276 33 139 95 198 59 b 569 -7 355 6 453 -7 b 826 16 654 -7 739 1 b 1039 78 913 31 984 52 b 1108 131 1071 94 1094 111 b 1128 201 1121 150 1128 174 b 1117 244 1128 219 1124 233 b 1083 261 1109 256 1098 261 z m 621 1281 b 658 1267 631 1272 644 1267 b 688 1274 669 1267 679 1269 l 947 1408 b 1021 1507 996 1434 1021 1467 b 994 1569 1021 1531 1012 1552 b 932 1594 977 1586 956 1594 b 871 1571 910 1594 889 1587 l 632 1367 b 606 1317 614 1352 606 1335 b 621 1281 606 1303 611 1291 z "},"Ê":{"ha":953,"x_min":0,"x_max":0,"o":"m 1083 261 b 1049 253 1074 261 1063 258 b 828 187 988 227 914 205 b 585 160 743 169 662 160 b 329 203 468 160 383 174 b 249 333 275 233 249 276 b 283 430 249 368 260 400 b 392 504 305 460 342 485 b 583 536 443 524 506 534 b 667 629 639 537 667 568 b 654 671 667 649 662 663 b 611 685 646 679 631 684 b 437 731 531 688 472 703 b 383 839 401 759 383 795 b 454 974 383 895 407 940 b 643 1024 501 1007 564 1024 b 768 992 701 1024 743 1013 b 806 911 793 972 806 944 b 799 849 806 900 803 879 b 792 797 794 830 792 813 b 814 745 792 774 799 757 b 875 728 829 734 849 728 b 960 778 912 728 941 745 b 990 911 980 812 990 856 b 904 1103 990 990 962 1054 b 646 1178 847 1153 761 1178 b 411 1136 561 1178 482 1164 b 241 1017 340 1108 283 1069 b 178 840 199 966 178 907 b 222 707 178 791 192 747 b 347 624 251 667 293 639 b 120 502 247 599 172 558 b 43 299 69 446 43 378 b 101 142 43 240 62 188 b 276 33 139 95 198 59 b 569 -7 355 6 453 -7 b 826 16 654 -7 739 1 b 1039 78 913 31 984 52 b 1108 131 1071 94 1094 111 b 1128 201 1121 150 1128 174 b 1117 244 1128 219 1124 233 b 1083 261 1109 256 1098 261 z m 692 1518 l 749 1317 b 776 1280 753 1301 762 1289 b 819 1267 789 1271 804 1267 b 875 1287 841 1267 859 1273 b 899 1340 891 1300 899 1318 b 890 1379 899 1352 896 1365 l 825 1547 b 778 1621 811 1581 796 1606 b 710 1643 761 1636 738 1643 b 564 1565 647 1643 598 1617 l 436 1375 b 418 1324 424 1356 418 1339 b 439 1281 418 1306 425 1292 b 489 1265 453 1271 469 1265 b 540 1279 506 1265 524 1270 b 581 1321 557 1288 570 1302 z "},"Ë":{"ha":953,"x_min":0,"x_max":0,"o":"m 1083 261 b 1049 253 1074 261 1063 258 b 828 187 988 227 914 205 b 585 160 743 169 662 160 b 329 203 468 160 383 174 b 249 333 275 233 249 276 b 283 430 249 368 260 400 b 392 504 305 460 342 485 b 583 536 443 524 506 534 b 667 629 639 537 667 568 b 654 671 667 649 662 663 b 611 685 646 679 631 684 b 437 731 531 688 472 703 b 383 839 401 759 383 795 b 454 974 383 895 407 940 b 643 1024 501 1007 564 1024 b 768 992 701 1024 743 1013 b 806 911 793 972 806 944 b 799 849 806 900 803 879 b 792 797 794 830 792 813 b 814 745 792 774 799 757 b 875 728 829 734 849 728 b 960 778 912 728 941 745 b 990 911 980 812 990 856 b 904 1103 990 990 962 1054 b 646 1178 847 1153 761 1178 b 411 1136 561 1178 482 1164 b 241 1017 340 1108 283 1069 b 178 840 199 966 178 907 b 222 707 178 791 192 747 b 347 624 251 667 293 639 b 120 502 247 599 172 558 b 43 299 69 446 43 378 b 101 142 43 240 62 188 b 276 33 139 95 198 59 b 569 -7 355 6 453 -7 b 826 16 654 -7 739 1 b 1039 78 913 31 984 52 b 1108 131 1071 94 1094 111 b 1128 201 1121 150 1128 174 b 1117 244 1128 219 1124 233 b 1083 261 1109 256 1098 261 z m 450 1292 b 521 1267 468 1275 491 1267 b 603 1299 555 1267 582 1277 b 633 1388 623 1320 633 1350 b 607 1465 633 1422 625 1447 b 536 1490 589 1482 566 1490 b 454 1458 502 1490 475 1480 b 424 1369 434 1437 424 1407 b 450 1292 424 1335 432 1309 z m 739 1292 b 810 1267 756 1275 780 1267 b 892 1299 844 1267 871 1277 b 922 1388 912 1320 922 1350 b 896 1465 922 1422 913 1447 b 825 1490 878 1482 855 1490 b 743 1458 791 1490 763 1480 b 713 1369 723 1437 713 1407 b 739 1292 713 1335 721 1309 z "},"Ì":{"ha":688,"x_min":0,"x_max":0,"o":"m 747 1152 b 686 1169 731 1164 710 1169 l 432 1171 b 276 1168 371 1171 319 1170 b 140 1067 186 1163 140 1130 b 159 1022 140 1047 147 1032 b 228 1006 172 1011 194 1006 l 344 1007 b 294 675 330 893 313 782 l 264 493 b 215 179 254 432 238 327 l 211 149 l 146 147 b 21 118 92 146 50 137 b -24 40 -9 100 -24 74 b -3 -8 -24 19 -17 3 b 49 -25 11 -19 28 -25 b 114 -18 62 -25 83 -23 b 306 -3 183 -8 247 -3 b 397 -6 320 -3 351 -4 b 507 -8 447 -7 484 -8 b 587 17 541 -8 568 0 b 615 78 606 33 615 54 b 589 136 615 104 606 123 b 489 156 571 149 538 156 b 410 154 456 156 429 155 b 458 496 422 246 438 360 l 488 678 b 518 860 491 700 501 761 l 543 1010 b 665 1011 571 1011 612 1011 b 744 1038 700 1011 726 1020 b 772 1110 763 1056 772 1080 b 747 1152 772 1126 764 1141 z m 433 1274 b 463 1267 442 1269 451 1267 b 500 1281 477 1267 490 1272 b 515 1317 510 1291 515 1303 b 489 1367 515 1335 506 1352 l 250 1571 b 189 1594 231 1587 211 1594 b 126 1569 165 1594 144 1586 b 100 1507 109 1552 100 1531 b 174 1408 100 1467 125 1434 z "},"Í":{"ha":688,"x_min":0,"x_max":0,"o":"m 747 1152 b 686 1169 731 1164 710 1169 l 432 1171 b 276 1168 371 1171 319 1170 b 140 1067 186 1163 140 1130 b 159 1022 140 1047 147 1032 b 228 1006 172 1011 194 1006 l 344 1007 b 294 675 330 893 313 782 l 264 493 b 215 179 254 432 238 327 l 211 149 l 146 147 b 21 118 92 146 50 137 b -24 40 -9 100 -24 74 b -3 -8 -24 19 -17 3 b 49 -25 11 -19 28 -25 b 114 -18 62 -25 83 -23 b 306 -3 183 -8 247 -3 b 397 -6 320 -3 351 -4 b 507 -8 447 -7 484 -8 b 587 17 541 -8 568 0 b 615 78 606 33 615 54 b 589 136 615 104 606 123 b 489 156 571 149 538 156 b 410 154 456 156 429 155 b 458 496 422 246 438 360 l 488 678 b 518 860 491 700 501 761 l 543 1010 b 665 1011 571 1011 612 1011 b 744 1038 700 1011 726 1020 b 772 1110 763 1056 772 1080 b 747 1152 772 1126 764 1141 z m 443 1281 b 481 1267 453 1272 466 1267 b 510 1274 492 1267 501 1269 l 769 1408 b 843 1507 819 1434 843 1467 b 817 1569 843 1531 834 1552 b 754 1594 799 1586 778 1594 b 693 1571 732 1594 712 1587 l 454 1367 b 428 1317 437 1352 428 1335 b 443 1281 428 1303 433 1291 z "},"Î":{"ha":688,"x_min":0,"x_max":0,"o":"m 747 1152 b 686 1169 731 1164 710 1169 l 432 1171 b 276 1168 371 1171 319 1170 b 140 1067 186 1163 140 1130 b 159 1022 140 1047 147 1032 b 228 1006 172 1011 194 1006 l 344 1007 b 294 675 330 893 313 782 l 264 493 b 215 179 254 432 238 327 l 211 149 l 146 147 b 21 118 92 146 50 137 b -24 40 -9 100 -24 74 b -3 -8 -24 19 -17 3 b 49 -25 11 -19 28 -25 b 114 -18 62 -25 83 -23 b 306 -3 183 -8 247 -3 b 397 -6 320 -3 351 -4 b 507 -8 447 -7 484 -8 b 587 17 541 -8 568 0 b 615 78 606 33 615 54 b 589 136 615 104 606 123 b 489 156 571 149 538 156 b 410 154 456 156 429 155 b 458 496 422 246 438 360 l 488 678 b 518 860 491 700 501 761 l 543 1010 b 665 1011 571 1011 612 1011 b 744 1038 700 1011 726 1020 b 772 1110 763 1056 772 1080 b 747 1152 772 1126 764 1141 z m 514 1518 l 571 1317 b 598 1280 575 1301 584 1289 b 642 1267 611 1271 626 1267 b 697 1287 663 1267 681 1273 b 721 1340 713 1300 721 1318 b 713 1379 721 1352 718 1365 l 647 1547 b 601 1621 633 1581 618 1606 b 532 1643 584 1636 561 1643 b 386 1565 469 1643 420 1617 l 258 1375 b 240 1324 246 1356 240 1339 b 261 1281 240 1306 247 1292 b 311 1265 275 1271 292 1265 b 363 1279 329 1265 346 1270 b 403 1321 379 1288 393 1302 z "},"Ï":{"ha":688,"x_min":0,"x_max":0,"o":"m 747 1152 b 686 1169 731 1164 710 1169 l 432 1171 b 276 1168 371 1171 319 1170 b 140 1067 186 1163 140 1130 b 159 1022 140 1047 147 1032 b 228 1006 172 1011 194 1006 l 344 1007 b 294 675 330 893 313 782 l 264 493 b 215 179 254 432 238 327 l 211 149 l 146 147 b 21 118 92 146 50 137 b -24 40 -9 100 -24 74 b -3 -8 -24 19 -17 3 b 49 -25 11 -19 28 -25 b 114 -18 62 -25 83 -23 b 306 -3 183 -8 247 -3 b 397 -6 320 -3 351 -4 b 507 -8 447 -7 484 -8 b 587 17 541 -8 568 0 b 615 78 606 33 615 54 b 589 136 615 104 606 123 b 489 156 571 149 538 156 b 410 154 456 156 429 155 b 458 496 422 246 438 360 l 488 678 b 518 860 491 700 501 761 l 543 1010 b 665 1011 571 1011 612 1011 b 744 1038 700 1011 726 1020 b 772 1110 763 1056 772 1080 b 747 1152 772 1126 764 1141 z m 272 1292 b 343 1267 290 1275 313 1267 b 425 1299 377 1267 405 1277 b 456 1388 445 1320 456 1350 b 429 1465 456 1422 447 1447 b 358 1490 412 1482 388 1490 b 276 1458 324 1490 297 1480 b 246 1369 256 1437 246 1407 b 272 1292 246 1335 255 1309 z m 561 1292 b 632 1267 579 1275 602 1267 b 714 1299 666 1267 694 1277 b 744 1388 734 1320 744 1350 b 718 1465 744 1422 736 1447 b 647 1490 700 1482 677 1490 b 565 1458 613 1490 586 1480 b 535 1369 545 1437 535 1407 b 561 1292 535 1335 544 1309 z "},"Ð":{"ha":1140,"x_min":0,"x_max":0,"o":"m 873 1131 b 589 1194 794 1173 699 1194 b 404 1178 511 1194 450 1189 b 362 1153 386 1173 372 1165 b 338 1108 352 1142 344 1127 b 224 701 295 981 257 845 l 192 701 b 62 677 132 701 89 693 b 21 596 34 661 21 634 b 90 532 21 553 44 532 l 186 532 b 124 108 156 377 136 236 b 140 36 121 75 126 51 b 215 7 154 21 179 12 b 408 -7 283 -2 347 -7 b 787 83 555 -7 681 23 b 1031 330 894 142 975 225 b 1115 686 1087 435 1115 554 b 1053 953 1115 788 1095 877 b 873 1131 1012 1030 952 1089 z m 698 222 b 426 150 625 174 535 150 b 325 154 387 150 354 151 b 382 533 335 268 354 394 l 454 532 b 607 529 526 530 577 529 b 676 554 641 529 664 538 b 694 622 688 571 694 594 b 663 681 694 649 684 669 b 543 699 642 693 602 699 b 417 700 486 699 444 699 b 510 1038 448 832 479 945 b 571 1039 520 1038 540 1039 b 818 949 674 1039 756 1009 b 911 679 880 888 911 799 b 859 413 911 581 894 492 b 698 222 824 333 771 269 z "},"Ñ":{"ha":1228,"x_min":0,"x_max":0,"o":"m 249 16 b 322 -7 263 1 288 -7 b 395 21 358 -7 383 2 b 424 119 408 39 417 72 b 535 626 450 325 488 494 b 689 913 582 758 633 853 b 856 1001 744 972 800 1001 b 926 975 886 1001 910 993 b 951 904 943 957 951 934 b 947 848 951 886 950 867 b 936 788 944 829 941 809 b 926 743 931 766 928 751 l 871 489 b 845 351 859 433 850 388 b 838 251 840 315 838 282 b 904 63 838 173 860 110 b 1089 -7 949 16 1010 -7 b 1238 33 1141 -7 1190 6 b 1381 161 1285 60 1332 103 b 1407 247 1398 182 1407 211 b 1397 293 1407 267 1403 282 b 1368 310 1390 304 1380 310 b 1331 290 1354 310 1342 303 b 1227 189 1291 243 1256 209 b 1138 158 1198 169 1168 158 b 1062 187 1105 158 1080 168 b 1035 275 1044 207 1035 236 b 1049 394 1035 308 1039 348 l 1133 792 b 1151 940 1145 850 1151 900 b 1094 1113 1151 1012 1132 1070 b 922 1178 1055 1156 998 1178 b 671 1072 826 1178 742 1142 b 494 760 600 1001 541 897 b 517 993 509 862 517 939 b 478 1131 517 1053 504 1099 b 364 1178 453 1162 415 1178 b 189 1127 303 1178 244 1161 b 38 983 133 1093 83 1045 b 7 931 23 963 13 946 b -1 886 1 917 -1 902 b 13 844 -1 870 3 856 b 47 825 23 831 34 825 b 90 851 63 825 77 834 b 202 969 130 905 167 944 b 289 1006 237 993 266 1006 b 335 943 319 1006 335 985 b 321 776 335 906 330 850 b 286 527 311 689 299 606 b 264 392 273 448 266 403 b 235 207 250 309 240 248 b 226 103 229 166 226 131 b 249 16 226 60 234 31 z m 875 1274 b 917 1267 888 1269 902 1267 b 989 1288 942 1267 966 1274 b 1051 1356 1012 1303 1033 1325 b 1092 1427 1071 1388 1084 1412 b 1103 1468 1099 1442 1103 1456 b 1084 1508 1103 1486 1097 1499 b 1039 1522 1072 1518 1056 1522 b 1003 1515 1027 1522 1015 1520 b 975 1492 992 1509 982 1502 l 914 1404 l 765 1507 b 716 1536 745 1522 728 1531 b 674 1543 703 1541 689 1543 b 539 1454 625 1543 580 1513 b 488 1342 505 1404 488 1367 b 506 1301 488 1324 494 1311 b 551 1288 519 1292 534 1288 b 587 1295 563 1288 575 1290 b 615 1318 598 1300 608 1308 l 676 1406 l 825 1303 b 875 1274 845 1289 862 1279 z "},"Ò":{"ha":1133,"x_min":0,"x_max":0,"o":"m 305 49 b 528 -7 371 12 445 -7 b 822 81 635 -7 733 22 b 1031 329 910 139 980 222 b 1108 701 1083 437 1108 561 b 1050 959 1108 801 1089 887 b 892 1122 1011 1031 959 1085 b 669 1178 826 1159 752 1178 b 376 1090 562 1178 464 1149 b 166 842 287 1032 217 949 b 89 469 115 734 89 610 b 147 212 89 369 108 284 b 305 49 186 140 239 86 z m 733 224 b 542 157 678 179 614 157 b 363 242 469 157 409 185 b 293 493 316 299 293 383 b 339 763 293 594 308 684 b 467 948 369 842 412 904 b 656 1014 521 992 584 1014 b 835 928 729 1014 788 985 b 904 678 881 872 904 788 b 860 409 904 578 889 488 b 733 224 830 330 788 268 z m 633 1267 b 662 1260 642 1262 651 1260 b 700 1274 677 1260 690 1265 b 715 1310 710 1284 715 1296 b 689 1360 715 1328 706 1345 l 450 1564 b 389 1588 431 1580 411 1588 b 326 1562 365 1588 344 1579 b 300 1500 309 1545 300 1524 b 374 1401 300 1460 325 1427 z "},"Ó":{"ha":1133,"x_min":0,"x_max":0,"o":"m 305 49 b 528 -7 371 12 445 -7 b 822 81 635 -7 733 22 b 1031 329 910 139 980 222 b 1108 701 1083 437 1108 561 b 1050 959 1108 801 1089 887 b 892 1122 1011 1031 959 1085 b 669 1178 826 1159 752 1178 b 376 1090 562 1178 464 1149 b 166 842 287 1032 217 949 b 89 469 115 734 89 610 b 147 212 89 369 108 284 b 305 49 186 140 239 86 z m 733 224 b 542 157 678 179 614 157 b 363 242 469 157 409 185 b 293 493 316 299 293 383 b 339 763 293 594 308 684 b 467 948 369 842 412 904 b 656 1014 521 992 584 1014 b 835 928 729 1014 788 985 b 904 678 881 872 904 788 b 860 409 904 578 889 488 b 733 224 830 330 788 268 z m 643 1274 b 681 1260 653 1265 666 1260 b 710 1267 692 1260 701 1262 l 969 1401 b 1043 1500 1019 1427 1043 1460 b 1017 1562 1043 1524 1034 1545 b 954 1588 999 1579 978 1588 b 893 1564 932 1588 912 1580 l 654 1360 b 628 1310 637 1345 628 1328 b 643 1274 628 1296 633 1284 z "},"Ô":{"ha":1133,"x_min":0,"x_max":0,"o":"m 305 49 b 528 -7 371 12 445 -7 b 822 81 635 -7 733 22 b 1031 329 910 139 980 222 b 1108 701 1083 437 1108 561 b 1050 959 1108 801 1089 887 b 892 1122 1011 1031 959 1085 b 669 1178 826 1159 752 1178 b 376 1090 562 1178 464 1149 b 166 842 287 1032 217 949 b 89 469 115 734 89 610 b 147 212 89 369 108 284 b 305 49 186 140 239 86 z m 733 224 b 542 157 678 179 614 157 b 363 242 469 157 409 185 b 293 493 316 299 293 383 b 339 763 293 594 308 684 b 467 948 369 842 412 904 b 656 1014 521 992 584 1014 b 835 928 729 1014 788 985 b 904 678 881 872 904 788 b 860 409 904 578 889 488 b 733 224 830 330 788 268 z m 714 1511 l 771 1310 b 798 1273 775 1294 784 1282 b 842 1260 811 1264 826 1260 b 897 1280 863 1260 881 1266 b 921 1333 913 1293 921 1311 b 912 1372 921 1345 918 1358 l 847 1540 b 801 1614 833 1575 818 1599 b 732 1636 784 1629 761 1636 b 586 1558 669 1636 620 1610 l 458 1368 b 440 1317 446 1350 440 1332 b 461 1274 440 1299 447 1285 b 511 1258 475 1264 492 1258 b 562 1272 529 1258 546 1263 b 603 1314 579 1281 593 1295 z "},"Õ":{"ha":1133,"x_min":0,"x_max":0,"o":"m 305 49 b 528 -7 371 12 445 -7 b 822 81 635 -7 733 22 b 1031 329 910 139 980 222 b 1108 701 1083 437 1108 561 b 1050 959 1108 801 1089 887 b 892 1122 1011 1031 959 1085 b 669 1178 826 1159 752 1178 b 376 1090 562 1178 464 1149 b 166 842 287 1032 217 949 b 89 469 115 734 89 610 b 147 212 89 369 108 284 b 305 49 186 140 239 86 z m 733 224 b 542 157 678 179 614 157 b 363 242 469 157 409 185 b 293 493 316 299 293 383 b 339 763 293 594 308 684 b 467 948 369 842 412 904 b 656 1014 521 992 584 1014 b 835 928 729 1014 788 985 b 904 678 881 872 904 788 b 860 409 904 578 889 488 b 733 224 830 330 788 268 z m 779 1267 b 821 1260 792 1262 806 1260 b 893 1281 846 1260 870 1267 b 956 1349 916 1296 937 1318 b 996 1420 975 1381 988 1405 b 1007 1461 1003 1435 1007 1449 b 988 1501 1007 1479 1001 1492 b 943 1515 976 1511 961 1515 b 908 1508 931 1515 919 1513 b 879 1485 896 1503 887 1495 l 818 1397 l 669 1500 b 620 1529 649 1515 633 1525 b 578 1536 608 1534 594 1536 b 443 1447 529 1536 484 1506 b 392 1335 409 1397 392 1360 b 410 1294 392 1317 398 1304 b 456 1281 423 1285 438 1281 b 491 1288 468 1281 479 1283 b 519 1311 503 1293 512 1301 l 581 1399 l 729 1296 b 779 1267 750 1282 766 1272 z "},"Ö":{"ha":1133,"x_min":0,"x_max":0,"o":"m 305 49 b 528 -7 371 12 445 -7 b 822 81 635 -7 733 22 b 1031 329 910 139 980 222 b 1108 701 1083 437 1108 561 b 1050 959 1108 801 1089 887 b 892 1122 1011 1031 959 1085 b 669 1178 826 1159 752 1178 b 376 1090 562 1178 464 1149 b 166 842 287 1032 217 949 b 89 469 115 734 89 610 b 147 212 89 369 108 284 b 305 49 186 140 239 86 z m 733 224 b 542 157 678 179 614 157 b 363 242 469 157 409 185 b 293 493 316 299 293 383 b 339 763 293 594 308 684 b 467 948 369 842 412 904 b 656 1014 521 992 584 1014 b 835 928 729 1014 788 985 b 904 678 881 872 904 788 b 860 409 904 578 889 488 b 733 224 830 330 788 268 z m 472 1285 b 543 1260 490 1268 513 1260 b 625 1292 577 1260 605 1270 b 656 1381 645 1313 656 1343 b 629 1458 656 1415 647 1441 b 558 1483 612 1475 588 1483 b 476 1451 524 1483 497 1473 b 446 1363 456 1430 446 1400 b 472 1285 446 1328 455 1303 z m 761 1285 b 832 1260 779 1268 802 1260 b 914 1292 866 1260 894 1270 b 944 1381 934 1313 944 1343 b 918 1458 944 1415 936 1441 b 847 1483 900 1475 877 1483 b 765 1451 813 1483 786 1473 b 735 1363 745 1430 735 1400 b 761 1285 735 1328 744 1303 z "},"×":{"ha":972,"x_min":0,"x_max":0,"o":"m 765 714 b 712 692 748 714 730 706 l 510 510 l 351 690 b 303 714 338 706 322 714 b 239 685 280 714 258 704 b 210 621 219 665 210 644 b 226 578 210 606 215 592 l 383 399 l 183 219 b 153 160 163 202 153 182 b 175 108 153 140 160 123 b 226 86 190 94 207 86 b 281 108 245 86 263 94 l 481 288 l 639 107 b 687 85 653 92 669 85 b 752 113 711 85 732 94 b 782 175 772 131 782 152 b 765 218 782 190 776 204 l 607 399 l 810 579 b 839 639 829 596 839 616 b 817 692 839 659 832 677 b 765 714 803 706 786 714 z "},"Ø":{"ha":1133,"x_min":0,"x_max":0,"o":"m 1031 991 b 826 1153 980 1068 912 1122 l 850 1240 b 853 1258 852 1248 853 1254 b 828 1302 853 1277 845 1291 b 774 1318 812 1313 794 1318 b 730 1308 757 1318 742 1315 b 706 1279 717 1302 709 1292 l 679 1178 l 669 1178 b 376 1090 562 1178 464 1149 b 166 842 287 1032 217 949 b 89 469 115 734 89 610 b 166 179 89 354 115 257 b 372 18 217 101 286 48 l 346 -79 b 343 -97 344 -87 343 -93 b 367 -140 343 -115 351 -129 b 421 -156 382 -150 400 -156 b 465 -146 437 -156 452 -152 b 489 -117 477 -139 485 -130 l 518 -7 l 528 -7 b 822 81 635 -7 733 22 b 1031 329 910 139 980 222 b 1108 701 1083 437 1108 561 b 1031 991 1108 817 1083 914 z m 326 304 b 293 493 304 355 293 418 b 336 755 293 590 307 678 b 457 940 365 832 405 894 b 636 1014 509 985 569 1010 l 537 632 l 418 190 b 326 304 379 215 349 253 z m 742 231 b 560 157 690 185 629 161 l 682 626 l 779 981 b 871 867 818 956 849 918 b 904 678 893 816 904 753 b 862 416 904 581 890 493 b 742 231 834 339 794 277 z "},"Ù":{"ha":1236,"x_min":0,"x_max":0,"o":"m 285 58 b 461 -7 325 15 383 -7 b 706 100 554 -7 635 29 b 882 411 777 171 836 275 b 860 206 867 309 860 241 b 921 52 860 143 880 91 b 1097 -7 962 13 1020 -7 b 1246 33 1149 -7 1199 6 b 1389 161 1293 60 1341 103 b 1415 247 1406 182 1415 211 b 1405 293 1415 267 1412 282 b 1376 310 1398 304 1388 310 b 1339 290 1362 310 1350 303 b 1235 189 1299 243 1265 209 b 1146 158 1206 169 1176 158 b 1077 188 1117 158 1094 168 b 1051 275 1060 208 1051 237 b 1062 394 1051 301 1055 341 b 1122 785 1077 513 1097 643 b 1149 956 1134 858 1143 915 b 1158 1054 1155 996 1158 1029 b 1135 1149 1158 1098 1150 1129 b 1063 1178 1119 1168 1095 1178 b 990 1150 1026 1178 1002 1169 b 961 1051 977 1131 968 1099 b 848 545 934 846 897 677 b 690 258 799 413 747 318 b 521 169 633 199 576 169 b 450 196 490 169 467 178 b 425 267 433 213 425 237 b 429 323 425 285 426 304 b 440 383 432 342 436 362 b 450 428 445 405 448 419 l 507 682 b 540 844 523 750 534 805 b 550 975 547 884 550 928 b 502 1126 550 1042 534 1092 b 369 1178 470 1161 426 1178 b 37 983 243 1178 132 1113 b -1 886 12 947 -1 915 b 13 844 -1 870 3 856 b 47 825 23 831 34 825 b 90 851 63 825 77 834 b 207 973 131 906 170 947 b 304 1013 244 999 276 1013 b 340 996 319 1013 331 1007 b 353 946 348 985 353 968 b 342 838 353 907 349 871 b 329 776 335 804 331 784 l 243 379 b 225 231 231 321 225 271 b 285 58 225 158 245 101 z m 704 1274 b 733 1267 712 1269 722 1267 b 771 1281 748 1267 761 1272 b 786 1317 781 1291 786 1303 b 760 1367 786 1335 777 1352 l 521 1571 b 460 1594 502 1587 482 1594 b 397 1569 436 1594 415 1586 b 371 1507 380 1552 371 1531 b 444 1408 371 1467 395 1434 z "},"Ú":{"ha":1236,"x_min":0,"x_max":0,"o":"m 285 58 b 461 -7 325 15 383 -7 b 706 100 554 -7 635 29 b 882 411 777 171 836 275 b 860 206 867 309 860 241 b 921 52 860 143 880 91 b 1097 -7 962 13 1020 -7 b 1246 33 1149 -7 1199 6 b 1389 161 1293 60 1341 103 b 1415 247 1406 182 1415 211 b 1405 293 1415 267 1412 282 b 1376 310 1398 304 1388 310 b 1339 290 1362 310 1350 303 b 1235 189 1299 243 1265 209 b 1146 158 1206 169 1176 158 b 1077 188 1117 158 1094 168 b 1051 275 1060 208 1051 237 b 1062 394 1051 301 1055 341 b 1122 785 1077 513 1097 643 b 1149 956 1134 858 1143 915 b 1158 1054 1155 996 1158 1029 b 1135 1149 1158 1098 1150 1129 b 1063 1178 1119 1168 1095 1178 b 990 1150 1026 1178 1002 1169 b 961 1051 977 1131 968 1099 b 848 545 934 846 897 677 b 690 258 799 413 747 318 b 521 169 633 199 576 169 b 450 196 490 169 467 178 b 425 267 433 213 425 237 b 429 323 425 285 426 304 b 440 383 432 342 436 362 b 450 428 445 405 448 419 l 507 682 b 540 844 523 750 534 805 b 550 975 547 884 550 928 b 502 1126 550 1042 534 1092 b 369 1178 470 1161 426 1178 b 37 983 243 1178 132 1113 b -1 886 12 947 -1 915 b 13 844 -1 870 3 856 b 47 825 23 831 34 825 b 90 851 63 825 77 834 b 207 973 131 906 170 947 b 304 1013 244 999 276 1013 b 340 996 319 1013 331 1007 b 353 946 348 985 353 968 b 342 838 353 907 349 871 b 329 776 335 804 331 784 l 243 379 b 225 231 231 321 225 271 b 285 58 225 158 245 101 z m 714 1281 b 751 1267 724 1272 737 1267 b 781 1274 762 1267 772 1269 l 1040 1408 b 1114 1507 1089 1434 1114 1467 b 1087 1569 1114 1531 1105 1552 b 1025 1594 1070 1586 1049 1594 b 964 1571 1003 1594 982 1587 l 725 1367 b 699 1317 707 1352 699 1335 b 714 1281 699 1303 704 1291 z "},"Û":{"ha":1236,"x_min":0,"x_max":0,"o":"m 285 58 b 461 -7 325 15 383 -7 b 706 100 554 -7 635 29 b 882 411 777 171 836 275 b 860 206 867 309 860 241 b 921 52 860 143 880 91 b 1097 -7 962 13 1020 -7 b 1246 33 1149 -7 1199 6 b 1389 161 1293 60 1341 103 b 1415 247 1406 182 1415 211 b 1405 293 1415 267 1412 282 b 1376 310 1398 304 1388 310 b 1339 290 1362 310 1350 303 b 1235 189 1299 243 1265 209 b 1146 158 1206 169 1176 158 b 1077 188 1117 158 1094 168 b 1051 275 1060 208 1051 237 b 1062 394 1051 301 1055 341 b 1122 785 1077 513 1097 643 b 1149 956 1134 858 1143 915 b 1158 1054 1155 996 1158 1029 b 1135 1149 1158 1098 1150 1129 b 1063 1178 1119 1168 1095 1178 b 990 1150 1026 1178 1002 1169 b 961 1051 977 1131 968 1099 b 848 545 934 846 897 677 b 690 258 799 413 747 318 b 521 169 633 199 576 169 b 450 196 490 169 467 178 b 425 267 433 213 425 237 b 429 323 425 285 426 304 b 440 383 432 342 436 362 b 450 428 445 405 448 419 l 507 682 b 540 844 523 750 534 805 b 550 975 547 884 550 928 b 502 1126 550 1042 534 1092 b 369 1178 470 1161 426 1178 b 37 983 243 1178 132 1113 b -1 886 12 947 -1 915 b 13 844 -1 870 3 856 b 47 825 23 831 34 825 b 90 851 63 825 77 834 b 207 973 131 906 170 947 b 304 1013 244 999 276 1013 b 340 996 319 1013 331 1007 b 353 946 348 985 353 968 b 342 838 353 907 349 871 b 329 776 335 804 331 784 l 243 379 b 225 231 231 321 225 271 b 285 58 225 158 245 101 z m 785 1518 l 842 1317 b 869 1280 846 1301 855 1289 b 912 1267 882 1271 897 1267 b 968 1287 934 1267 952 1273 b 992 1340 984 1300 992 1318 b 983 1379 992 1352 989 1365 l 918 1547 b 872 1621 904 1581 889 1606 b 803 1643 854 1636 831 1643 b 657 1565 740 1643 691 1617 l 529 1375 b 511 1324 517 1356 511 1339 b 532 1281 511 1306 518 1292 b 582 1265 546 1271 562 1265 b 633 1279 600 1265 617 1270 b 674 1321 650 1288 663 1302 z "},"Ü":{"ha":1236,"x_min":0,"x_max":0,"o":"m 285 58 b 461 -7 325 15 383 -7 b 706 100 554 -7 635 29 b 882 411 777 171 836 275 b 860 206 867 309 860 241 b 921 52 860 143 880 91 b 1097 -7 962 13 1020 -7 b 1246 33 1149 -7 1199 6 b 1389 161 1293 60 1341 103 b 1415 247 1406 182 1415 211 b 1405 293 1415 267 1412 282 b 1376 310 1398 304 1388 310 b 1339 290 1362 310 1350 303 b 1235 189 1299 243 1265 209 b 1146 158 1206 169 1176 158 b 1077 188 1117 158 1094 168 b 1051 275 1060 208 1051 237 b 1062 394 1051 301 1055 341 b 1122 785 1077 513 1097 643 b 1149 956 1134 858 1143 915 b 1158 1054 1155 996 1158 1029 b 1135 1149 1158 1098 1150 1129 b 1063 1178 1119 1168 1095 1178 b 990 1150 1026 1178 1002 1169 b 961 1051 977 1131 968 1099 b 848 545 934 846 897 677 b 690 258 799 413 747 318 b 521 169 633 199 576 169 b 450 196 490 169 467 178 b 425 267 433 213 425 237 b 429 323 425 285 426 304 b 440 383 432 342 436 362 b 450 428 445 405 448 419 l 507 682 b 540 844 523 750 534 805 b 550 975 547 884 550 928 b 502 1126 550 1042 534 1092 b 369 1178 470 1161 426 1178 b 37 983 243 1178 132 1113 b -1 886 12 947 -1 915 b 13 844 -1 870 3 856 b 47 825 23 831 34 825 b 90 851 63 825 77 834 b 207 973 131 906 170 947 b 304 1013 244 999 276 1013 b 340 996 319 1013 331 1007 b 353 946 348 985 353 968 b 342 838 353 907 349 871 b 329 776 335 804 331 784 l 243 379 b 225 231 231 321 225 271 b 285 58 225 158 245 101 z m 543 1292 b 614 1267 561 1275 584 1267 b 696 1299 648 1267 675 1277 b 726 1388 716 1320 726 1350 b 700 1465 726 1422 718 1447 b 629 1490 682 1482 659 1490 b 547 1458 595 1490 568 1480 b 517 1369 527 1437 517 1407 b 543 1292 517 1335 525 1309 z m 832 1292 b 903 1267 850 1275 873 1267 b 985 1299 937 1267 964 1277 b 1015 1388 1005 1320 1015 1350 b 989 1465 1015 1422 1006 1447 b 918 1490 971 1482 948 1490 b 836 1458 884 1490 856 1480 b 806 1369 816 1437 806 1407 b 832 1292 806 1335 814 1309 z "},"Ý":{"ha":1182,"x_min":0,"x_max":0,"o":"m 1286 314 b 1261 311 1275 314 1267 313 b 1047 261 1186 296 1115 280 b 1078 475 1057 333 1068 405 b 1108 681 1089 545 1099 614 b 1163 1054 1125 792 1143 916 b 1164 1081 1163 1061 1164 1069 b 1067 1178 1164 1145 1131 1178 b 994 1152 1035 1178 1011 1169 b 963 1065 978 1135 967 1106 b 872 654 944 903 914 766 b 730 403 829 542 782 459 b 576 321 678 348 626 321 b 489 351 535 321 506 331 b 464 453 472 372 464 406 b 472 523 464 471 467 495 b 497 635 478 551 486 588 b 537 827 515 712 528 777 b 550 975 546 878 550 927 b 502 1126 550 1042 534 1092 b 369 1178 470 1161 426 1178 b 38 983 243 1178 132 1113 b -1 886 12 947 -1 915 b 13 844 -1 870 3 856 b 47 825 23 831 34 825 b 90 851 63 825 77 834 b 206 973 131 906 170 947 b 301 1012 243 999 275 1012 b 353 946 336 1012 353 990 b 342 844 353 916 349 882 b 311 692 335 806 325 756 b 276 524 295 621 284 566 b 265 411 269 483 265 445 b 328 223 265 334 286 272 b 510 150 369 174 430 150 b 736 235 593 150 669 178 b 903 492 804 291 859 377 b 889 403 897 455 893 425 l 861 207 b 465 6 684 149 552 81 b 335 -254 378 -70 335 -157 b 398 -398 335 -313 356 -360 b 576 -454 440 -435 500 -454 b 866 -323 692 -454 789 -410 b 1021 82 943 -235 995 -100 l 1025 115 b 1274 168 1106 135 1189 152 b 1319 197 1294 172 1309 181 b 1333 253 1328 212 1333 231 b 1286 314 1333 294 1318 314 z m 840 61 l 839 51 b 597 -313 806 -191 726 -313 b 528 -287 568 -313 545 -304 b 504 -222 512 -270 504 -248 b 840 61 504 -111 616 -17 z m 732 1281 b 769 1267 742 1272 755 1267 b 799 1274 781 1267 790 1269 l 1058 1408 b 1132 1507 1107 1434 1132 1467 b 1106 1569 1132 1531 1123 1552 b 1043 1594 1088 1586 1067 1594 b 982 1571 1021 1594 1000 1587 l 743 1367 b 717 1317 725 1352 717 1335 b 732 1281 717 1303 722 1291 z "},"Þ":{"ha":1078,"x_min":0,"x_max":0,"o":"m 1025 500 b 1085 703 1065 562 1085 630 b 1039 862 1085 762 1069 815 b 903 974 1008 909 963 946 b 682 1018 843 1001 769 1016 l 708 1214 b 710 1238 709 1219 710 1227 b 690 1287 710 1260 703 1276 b 622 1303 676 1297 654 1303 b 551 1285 596 1303 573 1297 b 515 1229 530 1273 518 1254 l 482 993 b 256 857 395 967 319 922 b 109 613 192 792 143 711 b 58 281 75 514 58 404 b 94 55 58 195 70 120 b 194 -97 119 -10 152 -61 b 333 -151 236 -133 282 -151 b 456 -104 385 -151 426 -136 b 519 42 485 -73 506 -24 b 565 285 537 131 552 212 b 849 349 676 288 771 310 b 1025 500 926 387 985 438 z m 811 512 b 590 428 768 465 694 437 b 660 868 614 567 637 713 b 824 812 735 864 790 846 b 876 676 859 778 876 733 b 811 512 876 613 855 559 z m 340 118 b 287 22 328 54 311 22 b 233 107 265 22 247 50 b 212 287 219 163 212 224 b 275 637 212 427 233 544 b 458 832 317 730 378 795 b 396 433 441 712 420 579 l 372 437 b 351 439 368 438 361 439 b 305 421 331 439 316 433 b 289 369 294 409 289 392 b 300 323 289 350 293 334 b 353 299 307 311 325 303 b 372 296 360 297 367 296 b 340 118 366 257 355 198 z "},"ß":{"ha":828,"x_min":0,"x_max":0,"o":"m 1003 276 b 958 339 1003 305 988 326 b 836 374 925 353 884 364 b 678 390 788 383 735 388 b 644 413 670 396 659 403 b 575 465 613 433 590 450 b 553 515 560 479 553 496 b 573 562 553 532 559 547 b 647 622 586 576 611 596 b 758 724 695 655 732 689 b 796 860 783 760 796 805 b 765 974 796 901 786 939 b 677 1055 745 1008 716 1035 b 539 1085 639 1075 593 1085 b 215 908 406 1085 298 1026 b 74 343 131 790 84 601 b 60 -254 64 105 60 -94 b 85 -292 60 -271 68 -284 b 143 -306 101 -301 121 -306 b 210 -290 169 -306 191 -300 b 239 -249 229 -280 239 -266 l 239 -124 b 246 358 239 27 241 188 b 327 806 252 559 279 709 b 518 953 375 904 438 953 b 601 925 553 953 581 944 b 631 850 621 906 631 881 b 603 776 631 822 622 797 b 519 706 585 754 557 731 b 402 604 465 669 426 635 b 367 499 378 574 367 538 b 436 353 367 443 390 394 b 325 272 389 332 352 305 b 285 160 298 238 285 200 b 346 35 285 111 305 69 b 529 -15 387 2 448 -15 b 726 41 611 -15 676 3 b 801 193 776 78 801 129 b 789 265 801 221 797 245 b 931 219 833 256 881 241 b 961 213 940 215 950 213 b 1003 276 989 213 1003 234 z m 601 119 b 535 100 583 106 561 100 b 467 120 506 100 484 107 b 443 168 451 134 443 150 b 470 230 443 190 452 211 b 550 272 488 249 515 263 b 609 223 576 255 596 238 b 629 171 622 208 629 190 b 601 119 629 149 620 131 z "},"à":{"ha":653,"x_min":0,"x_max":0,"o":"m 100 56 b 238 -7 134 14 180 -7 b 419 110 311 -7 371 32 b 477 24 432 74 452 45 b 561 -7 503 3 531 -7 b 685 42 601 -7 642 9 b 806 161 727 74 768 114 b 832 247 823 181 832 210 b 822 293 832 267 828 282 b 793 310 815 304 805 310 b 756 290 779 310 767 303 b 654 180 713 239 679 203 b 590 146 629 157 608 146 b 563 158 579 146 570 150 b 553 192 556 167 553 178 b 585 414 553 233 563 307 b 606 553 599 487 606 533 b 538 601 606 585 583 601 b 476 596 516 601 496 600 b 459 638 472 616 466 630 b 418 650 452 646 438 650 b 237 590 354 650 294 630 b 100 430 180 549 134 496 b 49 219 66 364 49 294 b 100 56 49 152 66 97 z m 346 169 b 288 133 327 145 308 133 b 240 154 267 133 251 140 b 222 218 228 168 222 189 b 251 365 222 270 232 319 b 330 477 271 412 297 449 b 438 521 363 505 399 520 l 386 265 b 346 169 378 225 364 194 z m 388 638 b 431 614 400 622 414 614 b 465 628 444 614 455 619 b 479 664 474 638 479 650 b 474 690 479 673 477 682 l 344 979 b 311 1021 336 998 325 1012 b 267 1035 297 1030 282 1035 b 205 1010 244 1035 223 1026 b 178 946 187 993 178 972 b 208 868 178 920 188 894 z "},"á":{"ha":653,"x_min":0,"x_max":0,"o":"m 100 56 b 238 -7 134 14 180 -7 b 419 110 311 -7 371 32 b 477 24 432 74 452 45 b 561 -7 503 3 531 -7 b 685 42 601 -7 642 9 b 806 161 727 74 768 114 b 832 247 823 181 832 210 b 822 293 832 267 828 282 b 793 310 815 304 805 310 b 756 290 779 310 767 303 b 654 180 713 239 679 203 b 590 146 629 157 608 146 b 563 158 579 146 570 150 b 553 192 556 167 553 178 b 585 414 553 233 563 307 b 606 553 599 487 606 533 b 538 601 606 585 583 601 b 476 596 516 601 496 600 b 459 638 472 616 466 630 b 418 650 452 646 438 650 b 237 590 354 650 294 630 b 100 430 180 549 134 496 b 49 219 66 364 49 294 b 100 56 49 152 66 97 z m 346 169 b 288 133 327 145 308 133 b 240 154 267 133 251 140 b 222 218 228 168 222 189 b 251 365 222 270 232 319 b 330 477 271 412 297 449 b 438 521 363 505 399 520 l 386 265 b 346 169 378 225 364 194 z m 397 753 b 431 739 406 744 418 739 b 475 763 448 739 463 747 l 654 993 b 685 1071 675 1019 685 1045 b 658 1133 685 1096 676 1117 b 596 1158 640 1150 619 1158 b 551 1145 579 1158 564 1154 b 518 1104 537 1136 526 1123 l 389 815 b 382 789 384 804 382 795 b 397 753 382 775 387 763 z "},"â":{"ha":653,"x_min":0,"x_max":0,"o":"m 100 56 b 238 -7 134 14 180 -7 b 419 110 311 -7 371 32 b 477 24 432 74 452 45 b 561 -7 503 3 531 -7 b 685 42 601 -7 642 9 b 806 161 727 74 768 114 b 832 247 823 181 832 210 b 822 293 832 267 828 282 b 793 310 815 304 805 310 b 756 290 779 310 767 303 b 654 180 713 239 679 203 b 590 146 629 157 608 146 b 563 158 579 146 570 150 b 553 192 556 167 553 178 b 585 414 553 233 563 307 b 606 553 599 487 606 533 b 538 601 606 585 583 601 b 476 596 516 601 496 600 b 459 638 472 616 466 630 b 418 650 452 646 438 650 b 237 590 354 650 294 630 b 100 430 180 549 134 496 b 49 219 66 364 49 294 b 100 56 49 152 66 97 z m 346 169 b 288 133 327 145 308 133 b 240 154 267 133 251 140 b 222 218 228 168 222 189 b 251 365 222 270 232 319 b 330 477 271 412 297 449 b 438 521 363 505 399 520 l 386 265 b 346 169 378 225 364 194 z m 532 753 b 583 738 545 743 562 738 b 638 756 605 738 623 744 b 661 810 653 769 661 787 b 657 840 661 819 660 829 l 596 1090 b 560 1169 588 1126 575 1153 b 494 1194 544 1186 522 1194 b 420 1173 466 1194 441 1187 b 364 1108 399 1159 381 1137 l 208 840 b 193 790 198 823 193 806 b 210 752 193 774 199 761 b 257 739 222 743 238 739 b 310 754 276 739 294 744 b 354 813 325 764 340 784 l 475 1058 l 507 813 b 532 753 511 784 519 764 z "},"ã":{"ha":653,"x_min":0,"x_max":0,"o":"m 100 56 b 238 -7 134 14 180 -7 b 419 110 311 -7 371 32 b 477 24 432 74 452 45 b 561 -7 503 3 531 -7 b 685 42 601 -7 642 9 b 806 161 727 74 768 114 b 832 247 823 181 832 210 b 822 293 832 267 828 282 b 793 310 815 304 805 310 b 756 290 779 310 767 303 b 654 180 713 239 679 203 b 590 146 629 157 608 146 b 563 158 579 146 570 150 b 553 192 556 167 553 178 b 585 414 553 233 563 307 b 606 553 599 487 606 533 b 538 601 606 585 583 601 b 476 596 516 601 496 600 b 459 638 472 616 466 630 b 418 650 452 646 438 650 b 237 590 354 650 294 630 b 100 430 180 549 134 496 b 49 219 66 364 49 294 b 100 56 49 152 66 97 z m 346 169 b 288 133 327 145 308 133 b 240 154 267 133 251 140 b 222 218 228 168 222 189 b 251 365 222 270 232 319 b 330 477 271 412 297 449 b 438 521 363 505 399 520 l 386 265 b 346 169 378 225 364 194 z m 528 747 b 569 739 541 741 555 739 b 636 760 594 739 616 746 b 699 828 656 775 677 797 b 737 891 715 854 728 875 b 750 935 746 907 750 922 b 733 974 750 951 744 965 b 690 989 721 984 707 989 b 628 958 663 989 643 979 l 567 871 l 418 974 b 369 1003 398 988 381 998 b 326 1010 356 1007 342 1010 b 260 988 302 1010 280 1003 b 197 921 239 974 219 951 b 146 814 163 871 146 835 b 163 774 146 797 152 784 b 206 760 175 765 189 760 b 268 790 232 760 253 770 l 329 878 l 478 775 b 528 747 498 761 515 752 z "},"ä":{"ha":653,"x_min":0,"x_max":0,"o":"m 100 56 b 238 -7 134 14 180 -7 b 419 110 311 -7 371 32 b 477 24 432 74 452 45 b 561 -7 503 3 531 -7 b 685 42 601 -7 642 9 b 806 161 727 74 768 114 b 832 247 823 181 832 210 b 822 293 832 267 828 282 b 793 310 815 304 805 310 b 756 290 779 310 767 303 b 654 180 713 239 679 203 b 590 146 629 157 608 146 b 563 158 579 146 570 150 b 553 192 556 167 553 178 b 585 414 553 233 563 307 b 606 553 599 487 606 533 b 538 601 606 585 583 601 b 476 596 516 601 496 600 b 459 638 472 616 466 630 b 418 650 452 646 438 650 b 237 590 354 650 294 630 b 100 430 180 549 134 496 b 49 219 66 364 49 294 b 100 56 49 152 66 97 z m 346 169 b 288 133 327 145 308 133 b 240 154 267 133 251 140 b 222 218 228 168 222 189 b 251 365 222 270 232 319 b 330 477 271 412 297 449 b 438 521 363 505 399 520 l 386 265 b 346 169 378 225 364 194 z m 222 763 b 292 739 239 747 262 739 b 372 770 325 739 352 749 b 401 857 391 791 401 820 b 376 933 401 891 393 916 b 307 957 360 949 337 957 b 227 926 274 957 247 947 b 197 839 207 905 197 876 b 222 763 197 805 206 779 z m 511 763 b 581 739 528 747 551 739 b 660 770 614 739 641 749 b 690 857 680 791 690 820 b 665 933 690 891 682 916 b 596 957 649 949 625 957 b 516 926 563 957 536 947 b 486 839 496 905 486 876 b 511 763 486 805 494 779 z "},"å":{"ha":653,"x_min":0,"x_max":0,"o":"m 100 56 b 238 -7 134 14 180 -7 b 419 110 311 -7 371 32 b 477 24 432 74 452 45 b 561 -7 503 3 531 -7 b 685 42 601 -7 642 9 b 806 161 727 74 768 114 b 832 247 823 181 832 210 b 822 293 832 267 828 282 b 793 310 815 304 805 310 b 756 290 779 310 767 303 b 654 180 713 239 679 203 b 590 146 629 157 608 146 b 563 158 579 146 570 150 b 553 192 556 167 553 178 b 585 414 553 233 563 307 b 606 553 599 487 606 533 b 538 601 606 585 583 601 b 476 596 516 601 496 600 b 459 638 472 616 466 630 b 418 650 452 646 438 650 b 237 590 354 650 294 630 b 100 430 180 549 134 496 b 49 219 66 364 49 294 b 100 56 49 152 66 97 z m 346 169 b 288 133 327 145 308 133 b 240 154 267 133 251 140 b 222 218 228 168 222 189 b 251 365 222 270 232 319 b 330 477 271 412 297 449 b 438 521 363 505 399 520 l 386 265 b 346 169 378 225 364 194 z m 318 788 b 444 739 353 755 395 739 b 541 764 479 739 511 747 b 613 835 571 781 595 804 b 640 944 631 866 640 903 b 588 1078 640 1001 623 1046 b 461 1128 552 1111 510 1128 b 365 1103 427 1128 395 1119 b 292 1031 334 1086 310 1062 b 265 922 274 1000 265 964 b 318 788 265 866 283 821 z m 497 882 b 450 861 484 868 469 861 b 407 880 433 861 419 867 b 389 929 395 892 389 909 b 408 985 389 952 395 971 b 456 1006 421 999 437 1006 b 499 987 472 1006 487 999 b 517 938 511 974 517 958 b 497 882 517 914 510 896 z "},"æ":{"ha":907,"x_min":0,"x_max":0,"o":"m 1076 293 b 1047 310 1069 304 1059 310 b 1010 290 1033 310 1021 303 b 872 176 971 243 925 205 b 729 132 818 147 771 132 b 597 196 664 132 620 153 b 830 305 706 223 784 259 b 899 469 876 351 899 406 b 850 599 899 524 882 567 b 721 647 818 631 775 647 b 615 630 684 647 649 641 b 531 581 582 618 554 602 b 510 636 525 608 518 627 b 467 650 501 645 487 650 b 247 594 383 650 310 631 b 101 444 184 557 136 507 b 50 236 67 381 50 312 b 104 59 50 162 68 103 b 253 -7 140 15 190 -7 b 370 26 295 -7 334 4 b 451 118 406 49 433 79 b 555 26 476 78 511 47 b 714 -7 599 4 652 -7 b 915 46 785 -7 852 11 b 1060 161 977 81 1025 119 b 1086 247 1077 181 1086 210 b 1076 293 1086 267 1083 282 z m 469 514 b 408 349 442 469 421 413 l 394 279 b 353 171 385 232 371 196 b 290 133 334 146 313 133 b 240 163 269 133 252 143 b 222 243 228 182 222 209 b 289 441 222 327 244 393 b 469 514 333 489 394 513 z m 610 451 b 697 511 634 491 663 511 b 737 495 714 511 727 506 b 751 453 747 484 751 470 b 704 362 751 419 736 388 b 575 304 673 337 630 317 l 575 307 b 610 451 575 363 587 412 z "},"ç":{"ha":511,"x_min":0,"x_max":0,"o":"m 680 293 b 651 310 673 304 663 310 b 614 290 638 310 625 303 b 484 176 571 239 528 201 b 361 138 440 150 399 138 b 221 299 268 138 221 191 b 237 406 221 338 226 373 b 282 483 249 438 263 464 b 342 511 300 502 320 511 b 367 501 353 511 361 508 b 376 474 373 495 376 486 b 369 435 376 462 374 449 b 365 417 369 431 367 425 b 362 394 363 408 362 401 b 378 360 362 380 368 368 b 421 347 389 351 403 347 b 488 387 449 347 471 361 b 514 486 505 414 514 447 b 472 602 514 533 500 572 b 353 647 443 632 404 647 b 204 601 301 647 251 632 b 89 471 157 571 119 527 b 44 274 59 414 44 349 b 78 128 44 219 56 170 b 174 31 100 85 132 53 b 161 0 168 24 164 14 b 160 -13 160 -3 160 -7 b 179 -46 160 -28 166 -39 b 235 -56 192 -52 211 -56 b 316 -76 269 -56 296 -62 b 346 -131 336 -89 346 -107 b 315 -201 346 -162 335 -185 b 228 -224 294 -216 265 -224 b 154 -218 204 -224 179 -222 b 136 -217 150 -217 144 -217 b 81 -279 99 -217 81 -238 b 135 -340 81 -313 99 -334 b 221 -347 157 -345 186 -347 b 359 -318 274 -347 320 -338 b 449 -237 398 -299 428 -272 b 481 -119 470 -202 481 -163 b 426 6 481 -67 462 -25 b 555 63 471 18 514 37 b 664 161 596 90 632 122 b 690 247 681 183 690 212 b 680 293 690 267 687 282 z "},"è":{"ha":546,"x_min":0,"x_max":0,"o":"m 715 293 b 686 310 708 304 698 310 b 649 290 672 310 660 303 b 510 176 610 243 564 205 b 368 132 457 147 410 132 b 236 196 303 132 259 153 b 469 305 345 223 423 259 b 537 469 515 351 537 406 b 489 599 537 524 521 567 b 360 647 456 631 413 647 b 198 599 300 647 246 631 b 86 467 150 566 113 522 b 46 289 59 412 46 353 b 126 72 46 197 73 125 b 353 -7 180 19 256 -7 b 553 46 424 -7 491 11 b 699 161 616 81 664 119 b 725 247 716 181 725 210 b 715 293 725 267 722 282 z m 249 451 b 336 511 273 491 302 511 b 376 495 353 511 366 506 b 390 453 385 484 390 470 b 343 362 390 419 375 388 b 214 304 312 337 269 317 l 214 307 b 249 451 214 363 226 412 z m 329 763 b 372 739 341 747 356 739 b 406 753 385 739 397 744 b 421 789 416 763 421 775 b 415 815 421 798 419 807 l 286 1104 b 253 1146 278 1123 267 1137 b 208 1160 239 1155 224 1160 b 147 1135 185 1160 165 1151 b 119 1071 128 1118 119 1097 b 150 993 119 1045 130 1019 z "},"é":{"ha":546,"x_min":0,"x_max":0,"o":"m 715 293 b 686 310 708 304 698 310 b 649 290 672 310 660 303 b 510 176 610 243 564 205 b 368 132 457 147 410 132 b 236 196 303 132 259 153 b 469 305 345 223 423 259 b 537 469 515 351 537 406 b 489 599 537 524 521 567 b 360 647 456 631 413 647 b 198 599 300 647 246 631 b 86 467 150 566 113 522 b 46 289 59 412 46 353 b 126 72 46 197 73 125 b 353 -7 180 19 256 -7 b 553 46 424 -7 491 11 b 699 161 616 81 664 119 b 725 247 716 181 725 210 b 715 293 725 267 722 282 z m 249 451 b 336 511 273 491 302 511 b 376 495 353 511 366 506 b 390 453 385 484 390 470 b 343 362 390 419 375 388 b 214 304 312 337 269 317 l 214 307 b 249 451 214 363 226 412 z m 338 753 b 372 739 348 744 359 739 b 417 763 390 739 405 747 l 596 993 b 626 1071 616 1019 626 1045 b 599 1133 626 1096 617 1117 b 538 1158 581 1150 561 1158 b 492 1145 521 1158 506 1154 b 460 1104 479 1136 468 1123 l 331 815 b 324 789 326 804 324 795 b 338 753 324 775 328 763 z "},"ê":{"ha":546,"x_min":0,"x_max":0,"o":"m 715 293 b 686 310 708 304 698 310 b 649 290 672 310 660 303 b 510 176 610 243 564 205 b 368 132 457 147 410 132 b 236 196 303 132 259 153 b 469 305 345 223 423 259 b 537 469 515 351 537 406 b 489 599 537 524 521 567 b 360 647 456 631 413 647 b 198 599 300 647 246 631 b 86 467 150 566 113 522 b 46 289 59 412 46 353 b 126 72 46 197 73 125 b 353 -7 180 19 256 -7 b 553 46 424 -7 491 11 b 699 161 616 81 664 119 b 725 247 716 181 725 210 b 715 293 725 267 722 282 z m 249 451 b 336 511 273 491 302 511 b 376 495 353 511 366 506 b 390 453 385 484 390 470 b 343 362 390 419 375 388 b 214 304 312 337 269 317 l 214 307 b 249 451 214 363 226 412 z m 474 753 b 525 738 487 743 504 738 b 580 756 546 738 565 744 b 603 810 595 769 603 787 b 599 840 603 819 601 829 l 538 1090 b 501 1169 529 1126 517 1153 b 436 1194 486 1186 464 1194 b 362 1173 407 1194 383 1187 b 306 1108 341 1159 322 1137 l 150 840 b 135 790 140 823 135 806 b 152 752 135 774 141 761 b 199 739 164 743 179 739 b 251 754 218 739 236 744 b 296 813 267 764 282 784 l 417 1058 l 449 813 b 474 753 452 784 461 764 z "},"ë":{"ha":546,"x_min":0,"x_max":0,"o":"m 715 293 b 686 310 708 304 698 310 b 649 290 672 310 660 303 b 510 176 610 243 564 205 b 368 132 457 147 410 132 b 236 196 303 132 259 153 b 469 305 345 223 423 259 b 537 469 515 351 537 406 b 489 599 537 524 521 567 b 360 647 456 631 413 647 b 198 599 300 647 246 631 b 86 467 150 566 113 522 b 46 289 59 412 46 353 b 126 72 46 197 73 125 b 353 -7 180 19 256 -7 b 553 46 424 -7 491 11 b 699 161 616 81 664 119 b 725 247 716 181 725 210 b 715 293 725 267 722 282 z m 249 451 b 336 511 273 491 302 511 b 376 495 353 511 366 506 b 390 453 385 484 390 470 b 343 362 390 419 375 388 b 214 304 312 337 269 317 l 214 307 b 249 451 214 363 226 412 z m 164 763 b 233 739 181 747 204 739 b 313 770 267 739 293 749 b 343 857 333 791 343 820 b 318 933 343 891 335 916 b 249 957 301 949 278 957 b 169 926 215 957 189 947 b 139 839 149 905 139 876 b 164 763 139 805 147 779 z m 453 763 b 522 739 469 747 493 739 b 602 770 556 739 582 749 b 632 857 622 791 632 820 b 607 933 632 891 624 916 b 538 957 590 949 567 957 b 458 926 504 957 478 947 b 428 839 438 905 428 876 b 453 763 428 805 436 779 z "},"ì":{"ha":342,"x_min":0,"x_max":0,"o":"m 106 57 b 238 -7 134 14 177 -7 b 494 161 317 -7 403 49 b 521 247 512 181 521 210 b 510 293 521 267 517 282 b 482 310 503 304 494 310 b 444 290 468 310 456 303 b 344 181 403 240 369 204 b 282 146 319 157 299 146 b 244 168 264 146 252 153 b 233 232 237 183 233 204 b 267 439 233 268 244 337 b 293 600 284 523 293 577 b 222 647 293 631 269 647 b 156 631 192 647 169 642 b 122 569 142 619 131 599 b 81 387 106 513 92 452 b 65 226 71 322 65 268 b 106 57 65 156 79 100 z m 192 763 b 235 739 204 747 218 739 b 269 753 248 739 259 744 b 283 789 278 763 283 775 b 278 815 283 798 281 807 l 149 1104 b 115 1146 140 1123 129 1137 b 71 1160 101 1155 87 1160 b 9 1135 48 1160 27 1151 b -18 1071 -9 1118 -18 1097 b 13 993 -18 1045 -8 1019 z "},"í":{"ha":342,"x_min":0,"x_max":0,"o":"m 106 57 b 238 -7 134 14 177 -7 b 494 161 317 -7 403 49 b 521 247 512 181 521 210 b 510 293 521 267 517 282 b 482 310 503 304 494 310 b 444 290 468 310 456 303 b 344 181 403 240 369 204 b 282 146 319 157 299 146 b 244 168 264 146 252 153 b 233 232 237 183 233 204 b 267 439 233 268 244 337 b 293 600 284 523 293 577 b 222 647 293 631 269 647 b 156 631 192 647 169 642 b 122 569 142 619 131 599 b 81 387 106 513 92 452 b 65 226 71 322 65 268 b 106 57 65 156 79 100 z m 201 753 b 235 739 210 744 222 739 b 279 763 252 739 267 747 l 458 993 b 489 1071 479 1019 489 1045 b 462 1133 489 1096 480 1117 b 400 1158 444 1150 423 1158 b 355 1145 383 1158 368 1154 b 322 1104 341 1136 331 1123 l 193 815 b 186 789 188 804 186 795 b 201 753 186 775 191 763 z "},"î":{"ha":342,"x_min":0,"x_max":0,"o":"m 106 57 b 238 -7 134 14 177 -7 b 494 161 317 -7 403 49 b 521 247 512 181 521 210 b 510 293 521 267 517 282 b 482 310 503 304 494 310 b 444 290 468 310 456 303 b 344 181 403 240 369 204 b 282 146 319 157 299 146 b 244 168 264 146 252 153 b 233 232 237 183 233 204 b 267 439 233 268 244 337 b 293 600 284 523 293 577 b 222 647 293 631 269 647 b 156 631 192 647 169 642 b 122 569 142 619 131 599 b 81 387 106 513 92 452 b 65 226 71 322 65 268 b 106 57 65 156 79 100 z m 336 753 b 387 738 349 743 366 738 b 442 756 409 738 427 744 b 465 810 458 769 465 787 b 461 840 465 819 464 829 l 400 1090 b 364 1169 392 1126 380 1153 b 299 1194 348 1186 326 1194 b 224 1173 270 1194 245 1187 b 168 1108 203 1159 185 1137 l 12 840 b -3 790 2 823 -3 806 b 15 752 -3 774 3 761 b 61 739 26 743 42 739 b 114 754 81 739 98 744 b 158 813 130 764 144 784 l 279 1058 l 311 813 b 336 753 315 784 323 764 z "},"ï":{"ha":342,"x_min":0,"x_max":0,"o":"m 106 57 b 238 -7 134 14 177 -7 b 494 161 317 -7 403 49 b 521 247 512 181 521 210 b 510 293 521 267 517 282 b 482 310 503 304 494 310 b 444 290 468 310 456 303 b 344 181 403 240 369 204 b 282 146 319 157 299 146 b 244 168 264 146 252 153 b 233 232 237 183 233 204 b 267 439 233 268 244 337 b 293 600 284 523 293 577 b 222 647 293 631 269 647 b 156 631 192 647 169 642 b 122 569 142 619 131 599 b 81 387 106 513 92 452 b 65 226 71 322 65 268 b 106 57 65 156 79 100 z m 26 763 b 96 739 43 747 66 739 b 176 770 129 739 156 749 b 206 857 196 791 206 820 b 181 933 206 891 197 916 b 111 957 164 949 141 957 b 31 926 78 957 51 947 b 1 839 11 905 1 876 b 26 763 1 805 10 779 z m 315 763 b 385 739 332 747 355 739 b 465 770 418 739 445 749 b 494 857 484 791 494 820 b 469 933 494 891 486 916 b 400 957 453 949 430 957 b 320 926 367 957 340 947 b 290 839 300 905 290 876 b 315 763 290 805 299 779 z "},"ð":{"ha":626,"x_min":0,"x_max":0,"o":"m 719 1147 b 708 1186 719 1160 716 1173 b 665 1215 697 1206 683 1215 b 635 1206 655 1215 645 1212 b 550 1149 615 1194 587 1175 b 481 1100 528 1131 505 1115 b 398 1213 453 1144 425 1181 b 329 1275 371 1245 348 1266 b 289 1285 317 1281 304 1285 b 226 1267 266 1285 245 1279 b 199 1228 208 1256 199 1243 b 207 1207 199 1221 201 1214 b 346 1024 264 1147 311 1086 b 196 943 284 991 234 964 b 179 911 185 937 179 926 b 201 856 179 893 186 874 b 251 829 215 838 232 829 b 279 836 262 829 271 831 l 404 901 b 456 621 433 823 450 729 b 346 649 426 639 389 649 b 195 602 291 649 241 633 b 86 473 149 571 113 528 b 46 285 59 418 46 355 b 75 142 46 234 56 186 b 163 34 94 97 124 61 b 304 -7 201 7 249 -7 b 483 65 375 -7 434 17 b 594 265 532 113 569 180 b 631 560 618 350 631 449 b 608 783 631 637 623 711 b 546 981 594 854 573 920 b 679 1075 608 1018 652 1049 b 719 1147 706 1101 719 1125 z m 406 219 b 315 140 379 167 349 140 b 249 181 290 140 268 154 b 219 297 229 209 219 247 b 256 449 219 364 232 415 b 360 501 281 484 315 501 b 407 490 375 501 390 497 b 454 456 424 482 439 470 b 406 219 449 351 432 272 z "},"ñ":{"ha":689,"x_min":0,"x_max":0,"o":"m 91 49 b 165 -7 105 12 130 -7 b 228 16 194 -7 215 1 b 264 104 242 31 254 61 b 319 265 278 161 296 214 b 385 388 341 316 364 357 b 436 435 407 419 424 435 b 451 413 446 435 451 427 b 433 292 451 390 445 350 b 414 153 420 225 414 179 b 450 34 414 101 426 61 b 557 -7 474 7 510 -7 b 713 40 615 -7 667 9 b 842 161 759 72 802 112 b 868 247 859 181 868 210 b 858 293 868 267 865 282 b 829 310 851 304 841 310 b 792 290 815 310 803 303 b 690 180 749 239 715 203 b 624 146 664 157 642 146 b 583 201 597 146 583 164 b 610 361 583 227 592 281 b 640 557 630 456 640 521 b 550 647 640 617 610 647 b 449 615 519 647 486 637 b 338 508 413 594 375 558 b 235 314 300 458 265 394 b 249 417 238 355 243 389 b 271 514 254 444 262 477 b 292 614 285 566 292 599 b 281 640 292 627 288 636 b 242 647 273 645 260 647 b 162 628 207 647 181 641 b 121 569 143 616 129 596 b 69 226 87 461 69 347 b 91 49 69 145 77 86 z m 536 747 b 578 739 549 741 563 739 b 644 760 602 739 624 746 b 707 828 665 775 686 797 b 745 891 724 854 736 875 b 758 935 754 907 758 922 b 741 974 758 951 753 965 b 699 989 729 984 715 989 b 636 958 672 989 651 979 l 575 871 l 426 974 b 377 1003 406 988 390 998 b 335 1010 365 1007 350 1010 b 268 988 311 1010 288 1003 b 206 921 248 974 227 951 b 154 814 171 871 154 835 b 172 774 154 797 160 784 b 214 760 183 765 197 760 b 276 790 241 760 262 770 l 338 878 l 486 775 b 536 747 506 761 523 752 z "},"ò":{"ha":626,"x_min":0,"x_max":0,"o":"m 803 408 b 775 426 796 420 787 426 b 756 424 769 426 763 425 b 600 396 695 408 644 399 b 524 576 593 467 567 527 b 354 649 481 624 425 649 b 197 602 297 649 244 633 b 86 473 150 571 113 528 b 46 285 59 418 46 355 b 76 140 46 233 56 185 b 166 33 97 96 127 60 b 308 -7 205 6 253 -7 b 485 63 374 -7 433 16 b 589 250 537 110 571 172 b 772 283 656 253 717 264 b 812 362 799 292 812 318 b 803 408 812 381 809 396 z m 397 176 b 319 140 375 152 349 140 b 249 181 293 140 269 154 b 219 297 229 207 219 246 b 256 448 219 362 232 412 b 349 501 281 484 312 501 l 356 501 b 351 457 353 487 351 472 b 374 357 351 422 359 388 b 440 281 390 325 412 300 b 397 176 433 235 418 200 z m 324 762 b 367 739 336 747 350 739 b 401 753 380 739 391 744 b 415 789 410 763 415 775 b 410 815 415 798 413 807 l 281 1104 b 247 1146 272 1123 261 1137 b 203 1160 233 1155 219 1160 b 141 1135 180 1160 159 1151 b 114 1071 123 1118 114 1097 b 144 993 114 1045 124 1019 z "},"ó":{"ha":626,"x_min":0,"x_max":0,"o":"m 803 408 b 775 426 796 420 787 426 b 756 424 769 426 763 425 b 600 396 695 408 644 399 b 524 576 593 467 567 527 b 354 649 481 624 425 649 b 197 602 297 649 244 633 b 86 473 150 571 113 528 b 46 285 59 418 46 355 b 76 140 46 233 56 185 b 166 33 97 96 127 60 b 308 -7 205 6 253 -7 b 485 63 374 -7 433 16 b 589 250 537 110 571 172 b 772 283 656 253 717 264 b 812 362 799 292 812 318 b 803 408 812 381 809 396 z m 397 176 b 319 140 375 152 349 140 b 249 181 293 140 269 154 b 219 297 229 207 219 246 b 256 448 219 362 232 412 b 349 501 281 484 312 501 l 356 501 b 351 457 353 487 351 472 b 374 357 351 422 359 388 b 440 281 390 325 412 300 b 397 176 433 235 418 200 z m 333 753 b 367 739 342 744 354 739 b 411 762 384 739 399 747 l 590 993 b 621 1071 611 1019 621 1045 b 594 1133 621 1096 612 1117 b 532 1158 576 1150 555 1158 b 487 1145 515 1158 500 1154 b 454 1104 473 1136 463 1123 l 325 815 b 318 789 320 804 318 795 b 333 753 318 775 323 763 z "},"ô":{"ha":626,"x_min":0,"x_max":0,"o":"m 803 408 b 775 426 796 420 787 426 b 756 424 769 426 763 425 b 600 396 695 408 644 399 b 524 576 593 467 567 527 b 354 649 481 624 425 649 b 197 602 297 649 244 633 b 86 473 150 571 113 528 b 46 285 59 418 46 355 b 76 140 46 233 56 185 b 166 33 97 96 127 60 b 308 -7 205 6 253 -7 b 485 63 374 -7 433 16 b 589 250 537 110 571 172 b 772 283 656 253 717 264 b 812 362 799 292 812 318 b 803 408 812 381 809 396 z m 397 176 b 319 140 375 152 349 140 b 249 181 293 140 269 154 b 219 297 229 207 219 246 b 256 448 219 362 232 412 b 349 501 281 484 312 501 l 356 501 b 351 457 353 487 351 472 b 374 357 351 422 359 388 b 440 281 390 325 412 300 b 397 176 433 235 418 200 z m 468 753 b 519 737 481 743 498 737 b 574 756 541 737 559 744 b 597 810 590 769 597 787 b 593 840 597 819 596 829 l 532 1090 b 496 1169 524 1126 512 1153 b 431 1194 480 1186 458 1194 b 356 1173 402 1194 377 1187 b 300 1108 335 1159 317 1137 l 144 840 b 129 790 134 823 129 806 b 147 752 129 774 135 761 b 193 739 158 743 174 739 b 246 754 213 739 230 744 b 290 812 262 764 276 784 l 411 1058 l 443 812 b 468 753 447 784 455 764 z "},"õ":{"ha":626,"x_min":0,"x_max":0,"o":"m 803 408 b 775 426 796 420 787 426 b 756 424 769 426 763 425 b 600 396 695 408 644 399 b 524 576 593 467 567 527 b 354 649 481 624 425 649 b 197 602 297 649 244 633 b 86 473 150 571 113 528 b 46 285 59 418 46 355 b 76 140 46 233 56 185 b 166 33 97 96 127 60 b 308 -7 205 6 253 -7 b 485 63 374 -7 433 16 b 589 250 537 110 571 172 b 772 283 656 253 717 264 b 812 362 799 292 812 318 b 803 408 812 381 809 396 z m 397 176 b 319 140 375 152 349 140 b 249 181 293 140 269 154 b 219 297 229 207 219 246 b 256 448 219 362 232 412 b 349 501 281 484 312 501 l 356 501 b 351 457 353 487 351 472 b 374 357 351 422 359 388 b 440 281 390 325 412 300 b 397 176 433 235 418 200 z m 464 747 b 506 739 477 741 491 739 b 572 760 530 739 552 746 b 635 828 593 775 613 797 b 673 891 651 854 664 875 b 686 935 682 907 686 922 b 669 974 686 951 680 965 b 626 989 657 984 643 989 b 564 958 600 989 579 979 l 503 871 l 354 974 b 305 1003 334 988 317 998 b 263 1010 292 1007 278 1010 b 196 988 238 1010 216 1003 b 133 921 175 974 155 951 b 82 814 99 871 82 835 b 99 774 82 797 88 784 b 142 760 111 765 125 760 b 204 790 169 760 189 770 l 265 878 l 414 775 b 464 747 434 761 451 752 z "},"ö":{"ha":626,"x_min":0,"x_max":0,"o":"m 803 408 b 775 426 796 420 787 426 b 756 424 769 426 763 425 b 600 396 695 408 644 399 b 524 576 593 467 567 527 b 354 649 481 624 425 649 b 197 602 297 649 244 633 b 86 473 150 571 113 528 b 46 285 59 418 46 355 b 76 140 46 233 56 185 b 166 33 97 96 127 60 b 308 -7 205 6 253 -7 b 485 63 374 -7 433 16 b 589 250 537 110 571 172 b 772 283 656 253 717 264 b 812 362 799 292 812 318 b 803 408 812 381 809 396 z m 397 176 b 319 140 375 152 349 140 b 249 181 293 140 269 154 b 219 297 229 207 219 246 b 256 448 219 362 232 412 b 349 501 281 484 312 501 l 356 501 b 351 457 353 487 351 472 b 374 357 351 422 359 388 b 440 281 390 325 412 300 b 397 176 433 235 418 200 z m 158 763 b 228 739 175 747 198 739 b 308 770 261 739 288 749 b 338 857 328 791 338 820 b 313 933 338 891 329 916 b 243 957 296 949 273 957 b 163 926 210 957 183 947 b 133 839 143 905 133 876 b 158 763 133 805 142 779 z m 447 763 b 517 739 464 747 487 739 b 597 770 550 739 577 749 b 626 857 616 791 626 820 b 601 933 626 891 618 916 b 532 957 585 949 562 957 b 452 926 499 957 472 947 b 422 839 432 905 422 876 b 447 763 422 805 431 779 z "},"÷":{"ha":972,"x_min":0,"x_max":0,"o":"m 440 583 b 517 556 457 565 482 556 b 599 587 552 556 579 566 b 629 672 619 608 629 636 b 525 771 629 738 594 771 b 443 740 490 771 462 760 b 414 657 424 719 414 691 b 440 583 414 626 422 602 z m 132 320 b 181 300 143 307 159 300 l 792 300 b 853 328 818 300 838 309 b 876 392 869 347 876 369 b 860 439 876 410 871 426 b 811 458 849 452 832 458 l 200 458 b 138 431 174 458 153 449 b 115 368 123 412 115 391 b 132 320 115 350 121 334 z m 370 21 b 447 -7 387 2 413 -7 b 530 24 482 -7 510 3 b 560 110 550 45 560 74 b 456 208 560 175 525 208 b 374 177 420 208 393 198 b 344 94 354 156 344 129 b 370 21 344 64 353 39 z "},"ø":{"ha":638,"x_min":0,"x_max":0,"o":"m 814 408 b 786 426 807 420 798 426 b 767 424 779 426 772 425 b 615 396 708 409 658 400 b 561 547 610 452 592 503 b 437 636 531 591 489 620 l 465 786 b 455 812 467 797 464 806 b 421 821 446 818 435 821 b 383 812 407 821 394 818 b 364 786 372 806 366 797 l 340 649 b 190 599 285 647 235 630 b 85 469 146 567 111 524 b 46 285 59 415 46 353 b 92 109 46 220 61 161 b 228 4 123 57 169 22 l 200 -146 b 210 -172 198 -157 202 -166 b 244 -181 219 -178 231 -181 b 282 -172 258 -181 271 -178 b 301 -146 293 -166 300 -157 l 325 -7 b 501 69 392 -2 450 23 b 604 250 552 116 587 176 b 783 283 668 253 728 264 b 824 362 810 292 824 318 b 814 408 824 381 820 396 z m 256 161 b 215 297 229 188 215 233 b 244 438 215 357 225 404 b 315 501 263 472 287 493 l 290 350 z m 427 205 b 350 140 409 170 383 149 l 386 354 l 410 482 b 454 344 439 455 454 409 b 427 205 454 286 445 240 z "},"ù":{"ha":642,"x_min":0,"x_max":0,"o":"m 106 51 b 208 -7 133 12 167 -7 b 310 44 244 -7 278 10 b 381 189 341 78 365 126 b 412 44 381 127 391 79 b 510 -7 433 10 465 -7 b 666 40 568 -7 620 9 b 794 161 712 72 755 112 b 821 247 812 181 821 210 b 810 293 821 267 817 282 b 782 310 803 304 794 310 b 744 290 768 310 756 303 b 642 180 702 239 668 203 b 576 146 617 157 595 146 b 547 160 564 146 555 151 b 536 201 540 170 536 184 b 575 421 536 229 549 302 b 610 611 598 525 610 588 b 597 640 610 625 606 634 b 553 647 589 645 574 647 b 484 629 522 647 499 641 b 450 569 469 617 457 597 b 381 361 428 487 405 418 b 315 235 358 305 335 263 b 263 193 294 207 276 193 b 240 205 252 193 245 197 b 233 246 236 213 233 226 b 261 440 233 278 243 343 b 283 533 267 468 274 499 b 299 608 294 576 299 601 b 287 638 299 621 295 631 b 244 647 279 644 265 647 b 165 629 208 647 182 641 b 126 569 149 617 136 597 b 81 385 105 505 90 443 b 67 194 71 328 67 264 b 106 51 67 137 80 89 z m 368 762 b 411 739 380 747 394 739 b 445 753 424 739 435 744 b 460 789 455 763 460 775 b 454 815 460 798 458 807 l 325 1104 b 292 1146 317 1123 306 1137 b 247 1160 278 1155 263 1160 b 185 1135 224 1160 203 1151 b 158 1071 167 1118 158 1097 b 189 993 158 1045 169 1019 z "},"ú":{"ha":642,"x_min":0,"x_max":0,"o":"m 106 51 b 208 -7 133 12 167 -7 b 310 44 244 -7 278 10 b 381 189 341 78 365 126 b 412 44 381 127 391 79 b 510 -7 433 10 465 -7 b 666 40 568 -7 620 9 b 794 161 712 72 755 112 b 821 247 812 181 821 210 b 810 293 821 267 817 282 b 782 310 803 304 794 310 b 744 290 768 310 756 303 b 642 180 702 239 668 203 b 576 146 617 157 595 146 b 547 160 564 146 555 151 b 536 201 540 170 536 184 b 575 421 536 229 549 302 b 610 611 598 525 610 588 b 597 640 610 625 606 634 b 553 647 589 645 574 647 b 484 629 522 647 499 641 b 450 569 469 617 457 597 b 381 361 428 487 405 418 b 315 235 358 305 335 263 b 263 193 294 207 276 193 b 240 205 252 193 245 197 b 233 246 236 213 233 226 b 261 440 233 278 243 343 b 283 533 267 468 274 499 b 299 608 294 576 299 601 b 287 638 299 621 295 631 b 244 647 279 644 265 647 b 165 629 208 647 182 641 b 126 569 149 617 136 597 b 81 385 105 505 90 443 b 67 194 71 328 67 264 b 106 51 67 137 80 89 z m 377 753 b 411 739 387 744 398 739 b 456 762 429 739 444 747 l 635 993 b 665 1071 655 1019 665 1045 b 638 1133 665 1096 656 1117 b 576 1158 620 1150 600 1158 b 531 1145 560 1158 545 1154 b 499 1104 518 1136 507 1123 l 369 815 b 363 789 365 804 363 795 b 377 753 363 775 367 763 z "},"û":{"ha":642,"x_min":0,"x_max":0,"o":"m 106 51 b 208 -7 133 12 167 -7 b 310 44 244 -7 278 10 b 381 189 341 78 365 126 b 412 44 381 127 391 79 b 510 -7 433 10 465 -7 b 666 40 568 -7 620 9 b 794 161 712 72 755 112 b 821 247 812 181 821 210 b 810 293 821 267 817 282 b 782 310 803 304 794 310 b 744 290 768 310 756 303 b 642 180 702 239 668 203 b 576 146 617 157 595 146 b 547 160 564 146 555 151 b 536 201 540 170 536 184 b 575 421 536 229 549 302 b 610 611 598 525 610 588 b 597 640 610 625 606 634 b 553 647 589 645 574 647 b 484 629 522 647 499 641 b 450 569 469 617 457 597 b 381 361 428 487 405 418 b 315 235 358 305 335 263 b 263 193 294 207 276 193 b 240 205 252 193 245 197 b 233 246 236 213 233 226 b 261 440 233 278 243 343 b 283 533 267 468 274 499 b 299 608 294 576 299 601 b 287 638 299 621 295 631 b 244 647 279 644 265 647 b 165 629 208 647 182 641 b 126 569 149 617 136 597 b 81 385 105 505 90 443 b 67 194 71 328 67 264 b 106 51 67 137 80 89 z m 513 753 b 564 737 525 743 543 737 b 619 756 585 737 603 744 b 642 810 634 769 642 787 b 638 840 642 819 640 829 l 576 1090 b 540 1169 568 1126 556 1153 b 475 1194 525 1186 503 1194 b 401 1173 446 1194 422 1187 b 344 1108 380 1159 361 1137 l 189 840 b 174 790 179 823 174 806 b 191 752 174 774 179 761 b 238 739 203 743 218 739 b 290 754 257 739 275 744 b 335 812 306 764 321 784 l 456 1058 l 488 812 b 513 753 491 784 500 764 z "},"ü":{"ha":642,"x_min":0,"x_max":0,"o":"m 106 51 b 208 -7 133 12 167 -7 b 310 44 244 -7 278 10 b 381 189 341 78 365 126 b 412 44 381 127 391 79 b 510 -7 433 10 465 -7 b 666 40 568 -7 620 9 b 794 161 712 72 755 112 b 821 247 812 181 821 210 b 810 293 821 267 817 282 b 782 310 803 304 794 310 b 744 290 768 310 756 303 b 642 180 702 239 668 203 b 576 146 617 157 595 146 b 547 160 564 146 555 151 b 536 201 540 170 536 184 b 575 421 536 229 549 302 b 610 611 598 525 610 588 b 597 640 610 625 606 634 b 553 647 589 645 574 647 b 484 629 522 647 499 641 b 450 569 469 617 457 597 b 381 361 428 487 405 418 b 315 235 358 305 335 263 b 263 193 294 207 276 193 b 240 205 252 193 245 197 b 233 246 236 213 233 226 b 261 440 233 278 243 343 b 283 533 267 468 274 499 b 299 608 294 576 299 601 b 287 638 299 621 295 631 b 244 647 279 644 265 647 b 165 629 208 647 182 641 b 126 569 149 617 136 597 b 81 385 105 505 90 443 b 67 194 71 328 67 264 b 106 51 67 137 80 89 z m 203 763 b 272 739 219 747 243 739 b 352 770 306 739 332 749 b 382 857 372 791 382 820 b 357 933 382 891 374 916 b 288 957 340 949 317 957 b 208 926 254 957 228 947 b 178 839 188 905 178 876 b 203 763 178 805 186 779 z m 492 763 b 561 739 508 747 531 739 b 641 770 594 739 621 749 b 671 857 661 791 671 820 b 646 933 671 891 663 916 b 576 957 629 949 606 957 b 497 926 543 957 516 947 b 467 839 477 905 467 876 b 492 763 467 805 475 779 z "},"ý":{"ha":665,"x_min":0,"x_max":0,"o":"m 806 290 b 778 307 799 301 790 307 b 746 296 769 307 758 303 b 537 149 678 251 609 202 l 574 372 b 610 611 598 508 610 588 b 597 639 610 624 606 633 b 553 647 589 644 574 647 b 484 629 522 647 499 641 b 450 569 469 617 457 597 b 381 361 428 487 405 418 b 315 235 358 305 335 263 b 262 193 294 207 276 193 b 233 246 243 193 233 211 b 242 331 233 268 236 297 b 261 440 247 366 254 402 b 283 533 267 468 274 499 b 299 608 294 576 299 601 b 287 638 299 621 295 631 b 244 647 279 644 265 647 b 165 629 208 647 182 641 b 126 569 149 617 136 597 b 81 385 105 505 90 443 b 67 194 71 328 67 264 b 106 51 67 137 80 89 b 208 -7 133 12 167 -7 b 314 45 245 -7 281 10 b 392 197 347 80 373 131 b 369 50 383 133 376 84 l 365 18 b 135 -184 266 -58 190 -125 b 24 -340 81 -243 44 -295 b -6 -474 4 -386 -6 -430 b 39 -588 -6 -521 9 -559 b 154 -632 69 -617 107 -632 b 372 -467 242 -632 315 -577 b 510 -15 428 -358 475 -207 l 776 164 b 807 196 790 173 800 184 b 817 246 813 208 817 225 b 806 290 817 263 813 278 z m 247 -417 b 169 -497 219 -470 193 -497 b 140 -482 156 -497 146 -492 b 131 -443 134 -472 131 -459 b 178 -313 131 -406 147 -363 b 333 -149 210 -264 262 -209 b 247 -417 305 -274 276 -363 z m 377 753 b 411 739 387 744 398 739 b 456 763 429 739 444 747 l 635 993 b 665 1071 655 1019 665 1045 b 638 1133 665 1096 656 1117 b 576 1158 620 1150 600 1158 b 531 1145 560 1158 545 1154 b 499 1104 518 1136 507 1123 l 369 815 b 362 789 365 804 362 795 b 377 753 362 775 367 763 z "},"þ":{"ha":706,"x_min":0,"x_max":0,"o":"m 874 293 b 846 310 867 304 858 310 b 808 290 832 310 819 303 b 701 179 765 238 729 201 b 614 146 674 157 644 146 b 561 156 598 146 581 149 b 654 446 623 233 654 330 b 612 595 654 511 640 560 b 507 647 584 630 549 647 b 363 581 457 647 409 625 b 240 393 316 537 275 475 b 358 994 274 609 313 809 b 364 1031 362 1013 364 1025 b 343 1075 364 1051 357 1066 b 276 1089 329 1084 307 1089 b 213 1067 251 1089 230 1081 b 176 989 196 1052 184 1026 b 67 317 125 744 88 519 b 41 -53 55 203 46 79 b 33 -397 36 -186 33 -301 b 54 -450 33 -422 40 -440 b 114 -465 68 -460 88 -465 b 180 -447 140 -465 162 -459 b 207 -385 198 -435 207 -414 l 206 -207 b 208 -15 206 -166 206 -102 b 446 56 301 -6 380 18 b 574 -7 477 14 520 -7 b 730 40 632 -7 684 9 b 858 161 776 72 819 112 b 885 247 876 181 885 210 b 874 293 885 267 881 282 z m 415 211 b 229 125 372 164 310 135 b 290 292 245 184 265 240 b 366 419 314 345 340 387 b 438 467 392 451 416 467 b 479 383 465 467 479 439 b 415 211 479 316 458 258 z "},"ÿ":{"ha":665,"x_min":0,"x_max":0,"o":"m 806 290 b 778 307 799 301 790 307 b 746 296 769 307 758 303 b 537 149 678 251 609 202 l 574 372 b 610 611 598 508 610 588 b 597 639 610 624 606 633 b 553 647 589 644 574 647 b 484 629 522 647 499 641 b 450 569 469 617 457 597 b 381 361 428 487 405 418 b 315 235 358 305 335 263 b 262 193 294 207 276 193 b 233 246 243 193 233 211 b 242 331 233 268 236 297 b 261 440 247 366 254 402 b 283 533 267 468 274 499 b 299 608 294 576 299 601 b 287 638 299 621 295 631 b 244 647 279 644 265 647 b 165 629 208 647 182 641 b 126 569 149 617 136 597 b 81 385 105 505 90 443 b 67 194 71 328 67 264 b 106 51 67 137 80 89 b 208 -7 133 12 167 -7 b 314 45 245 -7 281 10 b 392 197 347 80 373 131 b 369 50 383 133 376 84 l 365 18 b 135 -184 266 -58 190 -125 b 24 -340 81 -243 44 -295 b -6 -474 4 -386 -6 -430 b 39 -588 -6 -521 9 -559 b 154 -632 69 -617 107 -632 b 372 -467 242 -632 315 -577 b 510 -15 428 -358 475 -207 l 776 164 b 807 196 790 173 800 184 b 817 246 813 208 817 225 b 806 290 817 263 813 278 z m 247 -417 b 169 -497 219 -470 193 -497 b 140 -482 156 -497 146 -492 b 131 -443 134 -472 131 -459 b 178 -313 131 -406 147 -363 b 333 -149 210 -264 262 -209 b 247 -417 305 -274 276 -363 z m 203 763 b 272 739 219 747 243 739 b 352 770 306 739 332 749 b 382 857 372 791 382 820 b 357 933 382 891 374 916 b 287 957 340 949 317 957 b 208 926 254 957 228 947 b 178 839 188 905 178 876 b 203 763 178 805 186 779 z m 492 763 b 561 739 508 747 531 739 b 641 770 594 739 621 749 b 671 857 661 791 671 820 b 646 933 671 891 662 916 b 576 957 629 949 606 957 b 497 926 543 957 516 947 b 467 839 477 905 467 876 b 492 763 467 805 475 779 z "},"Ā":{"ha":1092,"x_min":0,"x_max":0,"o":"m 244 40 b 417 -7 295 9 353 -7 b 719 208 550 -7 651 65 b 794 49 730 140 755 87 b 951 -7 834 12 887 -7 b 1111 36 1014 -7 1068 7 b 1244 161 1155 65 1199 106 b 1271 247 1262 182 1271 211 b 1260 293 1271 267 1267 282 b 1232 310 1253 304 1244 310 b 1194 290 1218 310 1206 303 b 1093 188 1154 242 1120 208 b 1008 158 1066 168 1038 158 b 940 192 978 158 955 170 b 918 301 925 215 918 251 b 948 549 918 358 928 441 b 1014 847 968 658 990 757 b 1018 875 1017 858 1018 868 b 919 939 1018 918 985 939 b 853 925 892 939 869 934 b 819 872 836 916 825 898 b 715 450 785 694 750 554 b 599 225 680 346 641 271 b 450 156 556 179 506 156 b 328 220 400 156 359 177 b 282 403 297 263 282 324 b 343 706 282 511 302 612 b 528 931 384 799 445 874 b 828 1017 610 988 710 1017 b 936 1009 866 1017 902 1014 b 1060 985 970 1004 1012 996 b 1076 983 1063 984 1069 983 b 1140 1015 1100 983 1122 994 b 1167 1083 1158 1037 1167 1059 b 1128 1139 1167 1113 1154 1131 b 995 1168 1088 1152 1044 1162 b 858 1178 947 1175 901 1178 b 435 1069 694 1178 552 1141 b 168 780 317 996 228 900 b 78 389 108 660 78 530 b 122 177 78 307 93 237 b 244 40 152 117 192 72 z m 612 1328 b 675 1267 612 1287 633 1267 l 985 1267 b 1039 1287 1008 1267 1026 1274 b 1058 1346 1052 1301 1058 1321 b 1042 1388 1058 1364 1053 1378 b 996 1403 1032 1398 1016 1403 l 686 1403 b 632 1383 663 1403 645 1396 b 612 1328 619 1369 612 1351 z "}}}
